<?xml version="1.0" encoding="UTF-8"?>
<svg id="Layer_1" data-name="Layer 1" xmlns="http://www.w3.org/2000/svg" xmlns:xlink="http://www.w3.org/1999/xlink" viewBox="0 0 1171.28 1391.68">
  <defs>
    <style>
      .cls-1 {
        fill: none;
      }

      .cls-2 {
        clip-path: url(#clippath);
      }
    </style>
    <clipPath id="clippath">
      <rect class="cls-1" y="0" width="1171.28" height="1391.67"/>
    </clipPath>
  </defs>
  <g class="cls-2">
    <path d="M354.28,458.04h59.75v5.24h-59.75v-5.24ZM352.19,438.13h55.55l2.08,5.24h-56.59l-1.05-5.24ZM352.19,479.01h64.98v5.23h-66.03l1.05-5.23ZM397.25,417.17l3.15,5.24h-53.46l-3.15-5.24h53.46ZM344.84,499.97h71.27l-2.1,5.24h-72.32l3.15-5.24ZM336.45,209.63h55.55v5.24h-55.55v-5.24ZM335.41,230.59h53.46l-2.1,5.24h-53.46l2.1-5.24ZM333.31,188.67h58.7v5.23h-57.65l-1.05-5.23ZM384.67,396.21l4.19,5.23h-54.51l-5.23-5.23h55.54ZM330.16,251.55h51.37l-3.15,5.24h-51.36l3.13-5.24ZM330.16,520.93h80.71l-2.1,5.24h-83.84l5.23-5.24ZM324.93,168.75h64.98v4.19h-62.88l-2.1-4.19ZM317.59,271.47h52.41l-4.19,5.24h-53.46l5.24-5.24ZM310.25,147.79h72.33l2.08,5.24h-69.17l-5.24-5.24ZM365.8,375.23l5.24,5.24h-57.65l-8.39-5.24h60.8ZM301.87,541.89h99.57l-2.1,4.19h-105.86l8.39-4.19ZM296.63,292.44h56.6l-6.29,5.24h-56.6l6.29-5.24ZM373.15,126.83l2.1,5.24h-83.85l-11.54-5.24h93.29ZM246.32,512.54c35.63,0,58.69-20.96,58.69-54.51,0-30.39-23.06-55.54-58.69-55.54h-93.29v110.05h93.29ZM226.4,271.47c35.64,0,60.8-24.11,60.8-58.69,0-32.5-25.16-57.65-60.8-57.65h-73.37v116.34h73.37ZM114.25,603.74h207.53l-44.02,5.24H114.25v-5.24ZM114.25,582.78h252.6l-7.34,5.23H114.25v-5.23ZM114.25,561.81h274.61l-5.24,5.24H114.25v-5.24ZM114.25,373.15h132.07c58.69,0,97.47,38.77,97.47,84.89,0,51.36-38.79,83.85-97.47,83.85H114.25v-168.75ZM114.25,355.32h227.44l5.24,4.19H114.25v-4.19ZM114.25,334.36h198.09l7.34,5.24H114.25v-5.24ZM114.25,313.4h210.68l-7.34,5.24H114.25v-5.24ZM114.25,125.78h112.14c58.7,0,99.59,37.74,99.59,87,0,52.41-40.89,88.04-99.59,88.04h-112.14V125.78ZM114.25,105.87h242.13l4.18,5.24H114.25v-5.24ZM114.25,84.91h218.02l-1.06-1.05,8.39,6.28H114.25v-5.23ZM114.25,64.98h169.79l18.88,5.24H114.25v-5.24ZM277.77,620.5c95.38,0,149.88-66.03,149.88-137.31,0-54.49-29.35-109-101.67-149.88v-8.39c58.69-34.58,77.56-77.56,77.56-127.87,0-81.76-67.09-146.74-149.88-146.74H38.79v570.19h238.98ZM0,20.96h253.66c104.8,0,188.66,77.56,188.66,176.09,0,58.7-24.11,95.39-68.12,128.92v2.1c64.98,46.13,92.23,90.15,92.23,155.13,0,87-69.17,166.66-188.66,166.66H0V20.96Z"/>
    <path d="M1065.41,333.31h56.6v5.24h-56.6v-5.24ZM1064.36,312.35h56.6v5.23h-56.6v-5.23ZM1064.36,354.28h56.6v5.23h-57.65l1.05-5.23ZM1062.27,375.24h57.65l-2.1,5.23h-56.6l1.05-5.23ZM1061.22,291.39h57.65l1.05,5.24h-57.65l-1.05-5.24ZM1058.07,396.2h57.65l-1.05,5.24h-58.7l2.1-5.24ZM1055.97,270.43h58.7l2.1,5.23h-58.7l-2.1-5.23ZM1049.69,249.45h59.75l2.08,5.24h-58.69l-3.15-5.24ZM1040.26,228.51h61.85l2.1,5.23h-60.8l-3.15-5.23ZM1028.73,207.53h64.98l2.1,5.24h-63.94l-3.13-5.24ZM1083.23,186.57l3.15,5.24h-68.12l-5.24-5.24h70.22ZM1070.66,165.61l4.19,5.23h-74.42l-6.29-5.23h76.51ZM1054.94,144.65l5.24,5.23h-83.85l-7.34-5.23h85.95ZM1037.11,123.68l-1.05-1.05,6.29,6.29h-101.67l-11.54-5.24h107.96ZM832.72,40.87l55.55,4.19h-106.91l51.36-4.19ZM725.81,60.8h213.83l13.62,5.23h-241.08l13.63-5.23ZM682.84,81.76h299.76l6.29,5.24h-314.45l8.39-5.24ZM832.72,525.13c111.11,0,182.38-83.85,182.38-189.72s-71.27-189.72-182.38-189.72-182.38,83.85-182.38,189.72,70.22,189.72,182.38,189.72M652.44,102.72h361.61l5.24,5.24h-144.65l-41.92-3.15-38.79,3.15h-149.88l8.39-5.24ZM628.34,123.68h110.06l-13.63,5.24h-101.67l5.24-5.24ZM832.72,116.35c134.17,0,222.21,96.43,222.21,219.06s-88.05,222.21-222.21,222.21-222.2-99.57-222.2-222.21,86.99-219.06,222.2-219.06M608.41,144.65h88.05l-7.34,5.23h-84.89l4.18-5.23ZM593.74,165.61h77.56l-6.29,5.23h-75.47l4.19-5.23ZM580.12,186.57h71.27l-4.19,5.24h-70.22l3.15-5.24ZM569.64,207.53h66.04l-4.19,5.24h-63.94l2.1-5.24ZM561.25,228.51h62.89l-3.15,5.23h-60.8l1.05-5.23ZM554.97,249.45h59.74l-2.1,5.24h-58.69l1.05-5.24ZM548.68,396.2h57.65l2.08,5.24h-57.64l-2.1-5.24ZM549.72,270.43h58.69l-2.08,5.23h-57.65l1.05-5.23ZM545.53,375.24h56.6l2.1,5.23h-57.65l-1.05-5.23ZM546.58,291.39h57.65l-2.1,5.24h-56.6l1.05-5.24ZM543.43,354.28h56.6l1.05,5.23h-56.6l-1.05-5.23ZM543.43,333.31h56.6v5.24h-56.6v-5.24ZM544.48,312.35h56.6l-1.05,5.24h-56.6l1.05-5.24ZM832.72,639.38c173.99,0,299.78-133.12,299.78-303.97S1006.71,29.35,832.72,29.35s-299.78,135.21-299.78,306.06,124.74,303.97,299.78,303.97M832.72,0c198.09,0,338.55,147.78,338.55,335.41s-140.46,335.42-338.55,335.42-338.55-147.8-338.55-335.42S633.57,0,832.72,0"/>
    <path d="M354.28,1178.31h59.75v5.24h-59.75v-5.24ZM352.19,1158.4h55.55l2.08,5.24h-56.59l-1.05-5.24ZM352.19,1199.29h64.98v5.23h-66.03l1.05-5.23ZM397.25,1137.44l3.15,5.24h-53.46l-3.15-5.24h53.46ZM344.84,1220.25h71.27l-2.1,5.23h-72.32l3.15-5.23ZM336.45,929.91h55.55v5.23h-55.55v-5.23ZM335.41,950.87h53.46l-2.1,5.24h-53.46l2.1-5.24ZM333.31,908.95h58.7v5.24h-57.65l-1.05-5.24ZM384.67,1116.48l4.19,5.23h-54.51l-5.23-5.23h55.54ZM330.16,971.83h51.37l-3.15,5.24h-51.36l3.13-5.24ZM330.16,1241.21h80.71l-2.1,5.24h-83.84l5.23-5.24ZM324.93,889.02h64.98v4.19h-62.88l-2.1-4.19ZM317.59,991.75h52.41l-4.19,5.24h-53.46l5.24-5.24ZM310.25,868.06h72.33l2.08,5.24h-69.17l-5.24-5.24ZM365.8,1095.52l5.24,5.24h-57.65l-8.39-5.24h60.8ZM301.87,1262.17h99.57l-2.1,4.19h-105.86l8.39-4.19ZM296.63,1012.71h56.6l-6.29,5.23h-56.6l6.29-5.23ZM373.15,847.1l2.1,5.24h-83.85l-11.54-5.24h93.29ZM246.32,1232.82c35.63,0,58.69-20.96,58.69-54.51,0-30.39-23.06-55.55-58.69-55.55h-93.29v110.06h93.29ZM226.4,991.75c35.64,0,60.8-24.12,60.8-58.7,0-32.5-25.16-57.65-60.8-57.65h-73.37v116.35h73.37ZM114.25,1324.01h207.53l-44.02,5.23H114.25v-5.23ZM114.25,1303.05h252.6l-7.34,5.24H114.25v-5.24ZM114.25,1282.09h274.61l-5.24,5.23H114.25v-5.23ZM114.25,1093.42h132.07c58.69,0,97.47,38.77,97.47,84.89,0,51.37-38.79,83.85-97.47,83.85H114.25v-168.75ZM114.25,1075.61h227.44l5.24,4.18H114.25v-4.18ZM114.25,1054.63h198.09l7.34,5.24H114.25v-5.24ZM114.25,1033.67h210.68l-7.34,5.23H114.25v-5.23ZM114.25,846.05h112.14c58.7,0,99.59,37.74,99.59,87,0,52.39-40.89,88.04-99.59,88.04h-112.14v-175.04ZM114.25,826.14h242.13l4.18,5.23H114.25v-5.23ZM114.25,805.18h218.02l-1.06-1.06,8.39,6.31H114.25v-5.24ZM114.25,785.27h169.79l18.88,5.23H114.25v-5.23ZM277.77,1340.78c95.38,0,149.88-66.03,149.88-137.31,0-54.49-29.35-109.01-101.67-149.88v-8.38c58.69-34.59,77.56-77.58,77.56-127.89,0-81.74-67.09-146.74-149.88-146.74H38.79v570.19h238.98ZM0,741.24h253.66c104.8,0,188.66,77.56,188.66,176.09,0,58.7-24.11,95.39-68.12,128.92v2.1c64.98,46.12,92.23,90.15,92.23,155.13,0,87-69.17,166.66-188.66,166.66H0v-628.89Z"/>
    <path d="M1063.81,1053.59h56.6v5.24h-56.6v-5.24ZM1062.76,1032.62h56.6v5.24h-56.6v-5.24ZM1062.76,1074.54h56.6v5.24h-57.65l1.05-5.24ZM1060.67,1095.51h57.65l-2.1,5.24h-56.6l1.05-5.24ZM1059.62,1011.66h57.65l1.05,5.24h-57.65l-1.05-5.24ZM1056.47,1116.48h57.65l-1.05,5.24h-58.7l2.1-5.24ZM1054.37,990.7h58.7l2.1,5.24h-58.7l-2.1-5.24ZM1048.09,969.74h59.75l2.08,5.24h-58.69l-3.15-5.24ZM1038.66,948.77h61.85l2.1,5.24h-60.8l-3.15-5.24ZM1027.13,927.8h64.98l2.1,5.24h-63.94l-3.13-5.24ZM1081.63,906.84l3.15,5.24h-68.12l-5.24-5.24h70.22ZM1069.06,885.88l4.19,5.24h-74.42l-6.29-5.24h76.51ZM1053.34,864.91l5.23,5.24h-83.84l-7.34-5.24h85.95ZM1035.51,843.95l-1.05-1.05,6.29,6.29h-101.67l-11.54-5.24h107.96ZM831.12,761.14l55.55,4.21h-106.91l51.36-4.21ZM724.21,781.07h213.83l13.62,5.24h-241.08l13.63-5.24ZM681.24,802.03h299.76l6.29,5.24h-314.45l8.39-5.24ZM831.12,1245.4c111.11,0,182.38-83.85,182.38-189.72s-71.27-189.71-182.38-189.71-182.38,83.85-182.38,189.71,70.22,189.72,182.38,189.72M650.84,822.99h361.61l5.24,5.24h-144.65l-41.92-3.15-38.79,3.15h-149.88l8.39-5.24ZM626.72,843.95h110.06l-13.62,5.24h-101.67l5.23-5.24ZM831.12,836.62c134.17,0,222.21,96.43,222.21,219.06s-88.05,222.21-222.21,222.21-222.2-99.59-222.2-222.21,86.99-219.06,222.2-219.06M606.81,864.91h88.05l-7.34,5.24h-84.9l4.19-5.24ZM592.14,885.88h77.56l-6.29,5.24h-75.47l4.19-5.24ZM578.51,906.84h71.28l-4.19,5.24h-70.22l3.13-5.24ZM568.04,927.8h66.04l-4.19,5.24h-63.94l2.1-5.24ZM559.65,948.77h62.89l-3.15,5.24h-60.8l1.05-5.24ZM553.36,969.74h59.75l-2.1,5.24h-58.7l1.05-5.24ZM547.08,1116.48h57.65l2.08,5.24h-57.64l-2.1-5.24ZM548.13,990.7h58.69l-2.08,5.24h-57.65l1.05-5.24ZM543.93,1095.51h56.6l2.08,5.24h-57.64l-1.05-5.24ZM544.98,1011.66h57.64l-2.08,5.24h-56.6l1.05-5.24ZM541.83,1074.54h56.6l1.05,5.24h-56.6l-1.05-5.24ZM541.83,1053.59h56.6v5.24h-56.6v-5.24ZM542.88,1032.62h56.6l-1.05,5.24h-56.6l1.05-5.24ZM831.12,1359.65c173.99,0,299.78-133.12,299.78-303.97s-125.79-306.06-299.78-306.06-299.78,135.21-299.78,306.06,124.74,303.97,299.78,303.97M832.72,720.85c198.09,0,338.55,147.78,338.55,335.41s-140.46,335.42-338.55,335.42-338.55-147.78-338.55-335.42,139.4-335.41,338.55-335.41"/>
  </g>
  <path d="M494.96,795.26h26.93v1.25h-26.93v-1.25ZM494.96,782.74h26.93v3.13h-26.93v-3.13ZM494.96,770.21h26.93v3.13h-26.93v-3.13ZM494.96,757.69h26.93v3.13h-26.93v-3.13ZM494.96,745.16h26.93v3.13h-26.93v-3.13ZM494.96,732.64h26.93v3.13h-26.93v-3.13ZM494.96,720.11h26.93v3.13h-26.93v-3.13ZM494.96,670.02h26.93v3.13h-26.93v-3.13ZM494.96,657.5h26.93v3.13h-26.93v-3.13ZM494.96,644.97h26.93v3.13h-26.93v-3.13ZM494.96,632.45h26.93v3.13h-26.93v-3.13ZM494.96,619.92h26.93v3.13h-26.93v-3.13ZM494.96,607.41h26.93v3.13h-26.93v-3.13ZM494.96,594.88h26.93v3.13h-26.93v-3.13ZM406.65,707.58h204.15v3.13h-204.15v-3.13ZM406.65,695.07h204.15v3.13h-204.15v-3.13ZM406.65,682.55h204.15v3.13h-204.15v-3.13ZM527.52,802.77v-83.91h88.91v-43.83h-88.91v-86.42h-38.2v86.42h-88.31v43.83h88.31v83.91h38.2ZM466.14,736.4h-88.29v-78.89h88.29v-86.42h84.54v86.42h88.92v78.89h-88.92v83.91h-84.54v-83.91Z"/>
</svg>