<?xml version="1.0" encoding="UTF-8"?>
<svg id="Layer_1" xmlns="http://www.w3.org/2000/svg" version="1.1" viewBox="0 0 442.86 768">
  <!-- Generator: Adobe Illustrator 29.7.1, SVG Export Plug-In . SVG Version: 2.1.1 Build 8)  -->
  <path d="M377.51,276.77c-.3.02-1.18.97-1.36.68l1.02-2.71.34,2.03Z"/>
  <path d="M183.57,118.67c-.29-.5-.46-.98-.68-1.36.02.07.56,1.14.68,1.36Z"/>
  <path d="M95.41,259.8c.49-.46.97-1.33,1.69-2.02,2.53-2.4,5.88-1.77,3.73-6.8l8.74-2.79.73-4.38c1.51.13,2.35.54,3.94-.07,2.1-.81,5.15-4.57,7-5.93,1.46-1.08,8.97-5.43,9.28-5.97.54-.94-.02-2.78.15-3.93,1.21-.38,1.57.98,2.46,1.17,1.06.22,7.83-1.62,6.35-3.21-2.65.94-5.6.33-8.31.84-5.45,1.02-11.26,3.29-16.61,4.44-.88.19-1.65-.33-2.48-.44-1.61.37-.69,2.89-1.22,3.84-.13.23-4.04,2.4-4.58,2.55-4.22,1.19-2.25-2.72-5.49-1.43-3.16,8.1-10.88,12.42-19.28,13.27-4.6.46-9.47-1.43-14.21-.64-4.95,2.31-12.05,2.55-16.82,4.88-4.47,2.18-2.35,12.84-9.75,13.38-4.92.36-6.97-4.65-9.95-5.26-.61-.12-2.46.48-3.49.5-1.08.03-2.11-.61-3.27-.5-2.05.18-10.09,3.59-11.34,2.96-1.85-.94-2.09-7.1-2.92-9.34-.87-2.35-3.2-4.47-3.87-6.97.19-.95,10.66-2.25,12.75-2.86,1.6-.47,5.89-2.92,6.56-2.94.59-.02.34,1.6,1.45,1.96,5.66,1.88,12.92.61,18.6-.9,4.72-1.25,2.52-1.67,4.34-4.48,3.2-4.93,7.71-9.11,14.13-7.94,2.42.44,5.65,3.34,7.55,3.24.86-.04,10.8-3.76,12.59-4.43,3.92-1.47,11.11-5.64,14.76-6.32,2.01-.37,3.61.86,5.1.47,1.61-.42,6.05-6.72,7.94-8.39,3.35-2.97,9.38-5.81,13.92-5.76,2.85.03,7.1,3.01,9.84,2.41.92-.2,7.63-4.05,7.95-4.61,1.11-1.95.2-9.05,2.88-10.39l8.44.43.41-2,4.7-.08-2.04-.68.68-2.71c-1.35-.33-1.84,1.36-3.05,1.36-1.04,0-2.33-1.71-4.1-2.01-4.45-.74-5.47,1.44-10.17-1.37-.96-.57-6.14-4.16-2.31-3.8,2.33.22,4.72.98,7.05,1.09,4.14.2,8.85-1.48,11.89.65,1.03-3.5-.54-5.38-2.7-7.81l2.03-1.68c-5.55-.52-8.46-7.89-2.97-10.78,2.15-1.13,6.62-.37,6.19-3.71-.71-5.48-7.84-3.52-11.01-1.12-.55.42-5.27,5.1-5.46,5.43-.5.83.57,1.84.05,2.7-.24.39-1.3.51-1.5.88-2.89,5.22-.13,8.2-8.88,5.42-6.56-2.09-9.44-5.35-7.27-12.4,1.89-1.69,4.81-.66,6.78-1.3,6.11-1.98,8.67-14.32,18.37-15.6,7.05-.93,9.41,2.68,15.2,4.69v-2.72s2.03.68,2.03.68l.08-4.68,6.71-.76-.69-1.35,4.74-1.03c.32-1.64-1.32-.97-2.36-1.01-2.5-.09-9.73-.16-11.58-1.31-2.95-1.84-1.03-4.21-.95-6.52.14-3.95-1.55-4.36-3.76-7.09-1.67,4.15,1.02,7.65-2.82,10.89-3.01.66-7.17-6.78-9.57-8.68-3.18-17.27-6.2-34.57-9.18-51.88-1.07-6.21-3.11-12.01-3.1-18.43,3.9-3.34,8.96-4.06,12.52.19,2.93,3.5,2.71,12.7,3.76,17.25,1.37,5.92,2.97,7.73,9.41,7.9l-1.42-10.78c-2.61-.45-7.4,1.21-8.08-2.44-.36-1.95,2.29-.24,3.7-.31,1.28-.06,2.47-.76,3.77-.72-1.76-2.96-1.2-5.69-1.6-8.37-.42-2.89-2.59-6.45-.17-9.33,2.26-1.78,14.06-.43,16.91-1.4,1.91-.65,1.23-4.06,4.9-4.58,7.29-1.03,17.28.29,24.43-.68,1.26-.17.86-1.27,1.44-1.41.83-.2,3.28.41,4.27.67-.38-4.5,1.4-9-.65-13.28-6.19-.55-11.64,1.24-17.65,2.43,3.2,3.86-1.37,6.39-2.13,1.45l-3.29-.1,1.36,5.08c-2.34,1.56-2.82-2.04-4.38-3.08-2.25-1.5-18.61-5.49-20.04-4.04-.33,2.84.57,5.35,1.85,7.81l-2.85,1.68c-3.15-3.82,2.24-10.94-4.79-11.41-1.43.11.02,3.79-2.02,3.3-1.99-.25-1.96-2.44-3.53-3.26-1.94-1.01-6.71.11-6.97-1.19-.61-3.07,4.77-3.38,6.78-3.04.09-.9-.08-1.76-.5-2.56-.83-1.59-2.6-.95-2.21-2.86,4.24.47,4.93,1.92,6.55,5.45l5.65-.02.11-2.94c2.95-3.23,3.98.84,2.6,3.61,5.66,1.1,11.62,1.65,16.63,4.75l1.04-4.71,2.72.26.63,3.35c2.65,1.64,4.13-1.2,4.08-3.65,2.15-.46,1.19,1.35,1.35,2.72.84.89,16.36-1.86,17.63-4.75l-7.05-1.9-4.12,4.37c-1.9-.36-3.54-.83-3.07-3.15l3.38-1.36c-2.66-.33-5.17.59-7.78.73-1.66.09-3.53-.68-4.67-.54-.91.11-1.76,1.16-2.81,1.15s-5.46-3.36-7.47-3.15c-1.07.11-2.3,3.31-4.39,2.48l1.35-4.74-8.84-1.09-1.03,2.4c-2.81,2.6-2.68-1.67-3.68-2.36-.91-.62-2.92-.18-4.36-1.07-3.68-2.26-.75-5.66,2.98-3.33l.69-8.14c7.54-1.21,1.59,5.94,3.68,8.87l9.87,1.99.1-5.32c5.46-2.46,3.55,2.12,2.79,5.69l.94.88c3.39-.8,6.02,1.81,8.69,2.17,4.91.66,11.17-.58,16.25.01.72-.13.91-4.8,1.09-5.8.21-1.11-.44-1.17,1.33-1.02l.31,6.81,5.79.65c-.2-4.4,2.2-3.22,3.89-4.26.46-.28.71-1.74,1.94-2.46,2.55-1.49,6.95.26,8.1-2.11.53-1.09.02-9.15.3-11.2.13-.95-.37-1.16,1.03-1.02,5.64,1.03.04,10.21,1.8,14.15,3.62,1.51,7.02,3.19,7.02,7.58,3.18.27,6.63-2.94,8.84-3.37,3.42-.67,8.28-.53,11.84-.71l-1.35-5.42,5.23,4.65c6.23.53,2.34-4.2,2.91-8.04,3.17-.15,2.57,5.48,4.03,6.47,1.7,1.15,4.82-.57,6.82-.37l-1.36-10.17c1.62-1.84,4.07,8.64,5.17,8.87l11.08-3.48c.66-3.58-5.75-7.15-1.58-9.42,2.26-.4,4.53,6.33,5.03,8.08,1.5,1.1,10.04-6.61,10.81-3.03-.23,3.36-8.07,3.06-8.81,4.74,2.01.71,2.1,2.42,2.03,4.4-2.71.99-5.24-3.93-6.82-3.78l-10.79,4.13,1.34,3.73c-2.44.56-4.03-3.13-6.15-3.07-1.48.04-3.56,1.35-5.34,1.07l-.03,2.69-6.37-1.98c-1.93.54.02,2.95.27,4.01-2.95-.24-3.21-2.82-6.4-2.74-6.5.17-10.75,4.28-16.66,5.47-.36,1.7,1.37,3.83,3.05,4.08,1.88.29.91-2.49,2.16-2.76.57-.12,6.28-.72,6.63-.68,1.57.21,2.14,2.13,3.28,1.95.29-.05,5.23-1.9,5.48-2.04.77-.43,1.08-1.07,1.12-1.92h1c.71.32.71,1.87,1.5,2.05s9.09.79,10.03.7c2.92-.29.16-3.12,1.36-4.77,3.09.65,2.42,2.07,3.71,4.43l8.84-.37-1.02-4.74c2.91,5.13,8.76,4.63,13.89,3.39l.41,3.43-5.14.65.68,2.02c-3.92-1.76-8.91-2.67-13.19-2s-12.96,1.63-17.59,1.31-7.15-4.33-10.25,2.73l-.34-3.39c-2.15,3.2-6.17-1.2-7.52,1.13-1.04,1.8-.32,3.85-3.78,4.14-2.58.22-4.02-4.9-8.01-1.19l-1.02-1.37,2.71,16.28c1.59.48,2.9-2.59,3.71-2.56.41.02,1.14,1.21,2.04,1.21s1.6-1.23,2.68-1.3c5.33-.35,19.11-1.28,23.8-.81.94.09,2.23,2.81,5.64.8l1.93,3.35c4.31.19,13.1-1.39,15.16,3.64,1.69,4.12-1.92,10.56-.71,15.34,1.58-.8.83-2.91,3.38-1.35.24-1.83.35-4.46,1-6.13,1.21-3.06,1.51-3.3,2.56-6.94,1.61-5.58,6.28-1.84,9.56.32.23,2.21,1.15,4.78,1.15,6.94.01,12.46-3.54,29.79-4.77,42.78-.86,9.07-.08,18.22-2.68,27.04-.38.67-2.64.47-3.92.97-1.85.72-3.48,3.25-4.01,3.42-2.17.71-4.25-.5-6.35-.56,2.1,3.36-2.84,3.81-2.05,7.45l-6.08-.66,4.7,1.39c.07,2.36,1.09,6.79-.79,8.63-.78.77-3.51.56-3.83,1.9.88,2.34.61,4.08-.08,6.39.26.25,3.29-1.01,3.63-1.31.63-.56.33-1.51.64-1.83,2.11-2.2,5.42-5.99,7.98-7.33,4.04-2.11,9.85-2.22,13.5.67,1.99,1.57,3.45,5.73,5.14,7.07,1.91,1.52,8,1.64,7.78,5.73-.21,3.86-9.83,13.81-12.54,8.53-.61-1.19-.32-3.44-.96-4.34-.47-.66-1.76-.2-2-.46-.29-.32-.05-2.34-.4-3.36-.71-2.08-5.7-5.37-7.53-4.11-.37.25-3.51,4.83-3.51,5.15,0,.33.83.92.9,1.48.51,4.06.81,2.58,2.11,5.5,3.47,7.86-6.44,5.28-3.22,12.06,1.15-.56,2.54.31,3.07.31h11.87c-1.72,7.87-14.41.71-13.92,8.83,1.13,1.75,3.4-.53,4.82-.68,3.78-.4,2.29,1.58,3.37,3.35,3.15,5.16,13.96,6.67,17.9,9.23,1.61,1.05,1.86,3.4,2.17,3.59.61.37,2.67-.02,3.99.42,4.76,1.59,10.26,3.11,12.86,7.15-1.43-.9-3.01-2.25-4.75-3.05-4.88-2.25-10.38-4.45-15.57-2.7-9.61,3.25-14.76,7.36-26.09,5.03-4.52-.93-4.67-4.59-6.78,2.42-.23.75,1.01,1.61-1.06,1.01-.15-2.77.95-5.17,3.37-6.44l-2.01-1.69-2.04,2.03v-4.07s2.03-1.36,2.03-1.36c-3.71-.19-6.29,3.5-9.48,5.09l10.36,9.3c6.85.89,15.69,3.94,22.38,2.43,2.25-.51,4.77-3.19,4.62-5.63-.11-1.77-1.44-2.17-1.42-3.73,2.85,1.63,2.1,4.89,1.35,7.46,6.92,1.37,5.55-4.17,6.79-5.42,2.13-2.15.24,3.49,1.69,3.38.7-.05,3.28-3.56,3.06-4.73l1.68,3.37,2.72-2.71c2.08,2.79,8.35,2.8,11.87,3.39-.11-1.29-2.16-1.63-2.56-2.2-.33-.47-.07-1.06-.15-1.19,3,1.89,5.53,4.32,8.83,5.76l31.17,10.25c2.91.23,6.19-3.59,9.21-3.76,1.13-.07,7.15.74,8.33,1.1,4.8,1.46,5.58,8.03,7.59,9.37,1.05.7,10.96,3.11,12.49,3.09,2.98-.03,6.18-2.12,8.81-2.08,5.47.09,11.7,4.01,17.34,3.42.84.83-4.17,13.2-6.11,14.62-2.09,1.04-7.5-2.72-9.3-2.96-.39-.05-6.03.43-6.5.53-.44.1-2.78,3.98-3.7,4.78-5.89,5.13-11.47,2.82-13.95-4.2-.52-1.48-.18-3.59-.79-4.64-1.2-2.05-16.06-4.7-19.05-6.06-13.12,6.89-25.23-1.74-35.01-10.21-1.39-1.21-1.85-3.16-3.45-4.28-2.6-1.81-26.27-8.12-27.53-7.2-1.71,1.23,1.38,9.59,3.36,11.1s19.41,10.1,21.5,10.44c2.43.4,3.81-1.76,6.2-1.18,1.86,3.31-.8,8.71,2.12,11.11,1.71,1.41,12.62,6.71,14.95,7.46,1.1.36,1.98-.43,3.29,0,1.08.36,5.59,4.32,7.47,5.52,4.62,2.94,9.56,7.27,15.4,9.67,5.14,2.11,10.94,3.56,16.52,4.17l-1.01,6.12-2.04.73c-4.75-1.19-10.13-.1-14.72-1.62-2.73-.91-6.21-3.71-8.68-5.22.52.17,1.55-.18,2.03,0,5.92,5.81,14.49,5.09,22.28,5.33l.83-3.55c-6.51-2.56-13.63-2.9-19.5-7.12-1.35-.14-2.01,1.83-3,2.33-.8.4-1.21-.39-1.3-.38l2.71-2.7-5.69-3.37c-5.16,5.02-1.36,4.47,1.62,6.75.5.39.89.93,1.36,1.36-2.04-.89-4.72-1.31-6.44-3.38-1.81,1.11-.03,1.91,1.02,2.7-4.61-1.79-9.33-3.39-14.3-3.01l-.72-2.33-2.5-.18-.85-3.24-5.05-.72c-1.66-2.32,3.58-2.35-1.88-4.9-.98-.46-7.85-3.22-8.29-3.26-1.81-.15-5.33,1.14-7.61-.18-1.82-1.05-2.31-6.96-3.03-7.82-.45-.54-4.85-1.66-6.11-2.37-3.76-2.1-7.18-5.2-11.36-6.61v16.96c6.44-.31,6.28,9.17,10.83,11.19.88.39,5.75-2.61,9.49.7,3.46,3.06-1.54,10.98,5.12,11.21,3.19.11,5.05-1.61,7.97,1.29,2.17,2.15,1.23,6.32,2.46,7.91.25.33,5.51,4.07,6.62,4.91.84.64,3.57,1.37,3.65,1.83.12.69-5.39,8.4-5.91,8.5-2.53.53-6-3.68-8.1-3.93-1.58-.19-3.65,1.09-5.72.86-9.37-1.02-7.97-6.75-11.84-13.25-1.08.91-1.94,2.2-3.09,2.99-3.58,2.45-4.21.52-4.69,6.17-1.58,18.35-.15,42.17-.04,61.08.34,55.45,1.8,110.96,7.49,166.2.9,8.69,1.57,17.77,5.53,25.68l5.99,5.87c-6.08,2.63-9-7.21-10.27-11.77-2.52-9.04-2.35-18.7-3.3-27.91-6.44-62.93-8.34-125.93-7.42-189.34l-1.37-33.92c-11.27-.76-6.05-15.29-10.12-20.26-.88-1.08-8.78-.33-7.55-6.1.15-.7,2.03.04,1.37-1.79-1.02-.22-2.44.96-3.38.38-.78-.48-5.37-6.37-7.11-7.86-3.87-3.32-6.17-5.41-11.56-4.09.87,6.22-5.01,5.48-5.7,6.19-.22.23-.58,4.9-.93,6.19-1.14,4.21-2.61,7.44-5.85,10.47,10.17,11.56,13.43,20.43,5.51,34.64-2.31,4.14-5.67,4.22-3.11,9.64,3.25,6.86,14.51,9.1,15.82,17.42,1.86,11.81-5.49,15.57-16.17,14.61-.84,6.21-6.57,11.37-12.95,8.76-.84.99,2.15,14.23,2.41,16.75.76,7.48-1.17,13.37,2.22,20.35,4.28,8.83,9.55,13.14,10.28,24.32.17,2.66-.8,7.45-.39,9.15,1.15,4.76,9.91,17.49,12.51,23.51,6.14,14.22,4.53,20.62,2.88,35.26-.74,6.57-.26,13.3-3.35,19.51,4.62,5.73,6.63,14.18,10.03,20.49,1.28,2.37,3.78,3.76,4.92,5.93,2.04,3.88,3.24,12.15,4.61,16.76-2.8-2.22-3.89-12.45-5.84-16.21l-9.08-10.92c1.06,3.7,3.61,6.64,5.07,10.19,3.87,9.43,2.91,13.27,3.75,22.71.49,5.46,1.79,11.36,2.05,16.97l-2.06,1.02c-.56-9.27-.16-18.65-3.4-27.47l1.35.09,1.36,3.63c-1.23-1.93-.04-4.73-.4-6.13-.88-3.45-4.21-13.13-6.23-16.07s-6.19-4.41-6.25-8.32l3.38,1.7c-2.04-3.73-4.79-4.38-8.76-5.07-1.08,1.34-1.64,6.72-2.16,7.36-.06.08-.97-.42-1.28-.21-3.01,2.1-5.38,17.98-6.39,22.05-.45,1.83-1.97,3.3-2.29,5.21-.42,2.57.67,6.23.57,9.36-.16,4.84-1.3,10.31-1.39,15.24-2.52-1.45-2.9-6.65-3.39-9.5l-2.37,4.05-1.69-2.02-2.04,3.38c1.46-2.23,0-4.18-.05-6.45-.12-5.09,1.38-10.75-1.34-15.58l1.46-1.34c-.31-2.57-2.37-4.71-2.1-7.44.3-2.96,3.6-3.89,4.04-6.18,1.36-6.92-5.22-18.89,1.35-25.12l.02-.98-9.48-5.44c-.95,4.64-2.02,9.28-2.63,14-.58,4.45-1.29,10.45-1.44,14.85s.95,9.24.69,12.87c-.14,1.93-1.86,4.72-1.82,5.44.07,1.22,4.83,7.66,3.85,10.14-2.43,8.25-2.99,19.95-5.52,27.79-.24.75-.21,1.64-1.28,1.76-.31-1.69-1.3-6.44-2.37-7.47s-3.32-.73-4.63-1.47c-2.06-1.17-4.54-8.73-5.03-11.25-1.61-8.32-.55-11.23,1.89-18.68.21-.64,1.44-.44,1.33-.81-.23-.76-1.73-1.94-1.91-2.89-1.72-9.21-4.01-19.18-4.87-29.02-.28-3.22,1.61-11.34-3.2-12.44-.25-.06-4.88-.03-5.13.03-1.39.28-9.16,5.96-9.32,7.68l2.04,10.51,1.36-.34c-.92,6.74-5.78,14.87-2.34,21.32.72,1.35,3.29,2.69,3.57,3.91.91,4-1.21,11.87-1.27,16.18-.04,2.91,1.39,6.58.71,9.81h-2.72s0,4.74,0,4.74l-2.02-.68c.23,2.42.79,4.03.01,6.46-.3.95.41,1.21-1.37,1,.45-2.99-2.88-2.56-3.31-3.81-.57-1.65-.37-5.64-.95-7.88-2.27-8.86-7.29-13.93-5.2-23.88.34-1.59,1.73-2.24,1.66-3.85-.1-2.32-5.08-19.1-6.27-21.46-.38-.77-2.68-3-3.59-2.58-2.06,1.98-4.33,4.12-4.73,7.14,2.13.53,1.27-1.71,2.18-2.56.84-.78,3.4-.68,4.26-2.18,1.88,3.18-2.69,2.05-3.61,2.84-.46.39-.75,3.7-.81,4.63-1.73.88-1.17-1.54-1.69-1.36-.44.61-1.16.9-1.7,1.36.07-.6.25-1.93-.68-1.02l-1.35,3.06c.92-.2,1.03-1.18,2.03-2.03-.09.75-.41,2-.68,2.71-1.41.99-.84.91-1.36,2.04-.35.45-1.22.81-1.92,1.79-.79,1.12-4.99,9.02-4.7,9.6.07.13,1,.04,1.19.62.29.87-.6,2.4.68,2.24.9-3.28,1.5-6.69,2.68-9.9.4-1.08,1.34-1.5,1.39-1.63-1.94,3.78-2.51,10.13-4.22,14.44-.89,2.26-3.03,3.23-2.57,5.91-1.2.16-.67-1.54-.59-2.29.15-1.47.73-3,.97-4.47.11-.71.91-2.22-.36-2.06-.37,1.56-.8,3.4-1.73,4.71-1.32,1.87-2.65,1.56-3.73,2.56-.93.87-9.92,15-10.47,16.48-1.83,4.94-3.71,16.3-4.11,21.68-.22,2.89,1.82,7.75-.99,9.52-.62-9.63,2.08-19.01,3.05-28.49-1.8,3.4-4.82,7.33-6.09,10.87-1.16,3.22-1.26,6.38-2.54,9.67-2.55,6.58-4.99,9.77-4.58,17.78.18,3.54,3.26,17.85,7.12,18.66,4.1.87-1.68-9.07,1.72-9.24-.86-7.01-1.56-14.35-.71-21.29.93.08,1.82,3.86,1.82,4.25-.05,3.08-1.28,6.03-1.18,9.69.06,2.05,1.38,10.87,2.86,11.71.94.53,3.27-.1,3.27-.89v-10.86c0-1,2.81-10.09,3.4-10.51l1.92,1.08c-1.33,3.91-1.44,7.69-1.25,11.8,5.83-1.21,1.71-7.51,2.72-11.53l1.36,4.74,1.01-2.71,1.7,4.75v-10.52c0-.21.62-1.15.71-2.01.53-5.35,0-10.19,5.06-13.93.13,3.25-.16,10.3,1.14,13.11.61,1.32,2.14,1.2,3.26,1.82.96-2.31-1.24-2.8-1.33-3.18-.95-3.95,1.23-4.33,1.32-4.75.26-1.15,1.72-9.29,1.73-10.05.1-5.07-3.82-13.6-3.07-19.34.83-1.09,1.23,0,1.35,1,.24,1.9-.19,4.02.08,6.04.48,3.54,1.81,6.99,1.96,10.6l2.02-.68-.67,4.74c2.85,2.96,3.22-13.6,6.1-12.21v16.28l2.72-8.82,1.73,3.36c8.72-4.37,13.48,2.39,17.05,9.39,6.62,12.98,6.11,19.17,4.95,33.06-.52,6.2-.76,12.45-1.08,18.65,5.34,8.88,11.49,19.61,21.41,23.74-1.16-2.3-4.54-2.35-5.75-4.76-.37-.74-1.05-3.18.65-2.69,6.93,4.63,7.02,10.6,16.81,8.65,5.66-1.13,11.87-3.95,17.95-4.43,2.4-1.52,4.14-3.18,3.58-6.26l1.69,1.26c.33,0,4.54-4.26,4.73-4.67,1.83-4.13,4.26-24.85,3.79-29.53-1.08-10.57-7.71-22.09-1.53-32.67,1.03-1.76,7.2-9.45,8.7-10.29,1.4-.78,3.29-.45,4.28-1.82,1.8-2.5-.79-5.75,1.42-8.43l1.35.34-2.04,8.47c1.52,1.28,5.39-6.35,6.77-6.78l-2.7,8.8c2.91,1.61,2.95-.96,5.41-1.33-2.46,1.73-3.94,4.42,0,5.42l-.67-2.69,2.02-.69c-.92,3.91,1.59,3.58,3.12,5.38,3.09,3.63,4.93,8.73,7.57,12.77,2.09,3.2,4.98,6.88,7.62,9.67l-.72-3.66,1.4-1.42-2.02-.35c2.48-3.85-2.38-6.06-2.45-7.8s2.09-3.5,2.41-5.47c.9-5.46-2.75-18.23-4.7-23.73-1.24-3.51-2.8-6.99-4.75-10.17l1.34-.33c2.22,4.66,3.57,9.69,5.61,14.41.63,1.47,2.24,3.09,3.12,5.02,3.23,7.12,3.63,15.03,2.12,22.63-2.66-.99,0-1.94,0-2.37v-12.21c0-.29-1.59-4.76-1.91-5.56-.36-.92-1.21-3.27-2.16-3.6.48,3.57,1.79,7.66,2.02,11.2.28,4.27-1.34,8.78.42,12.48.67,1.41,3.09,3.28,3.45,4.58.99,3.59,1.17,9.36,2.59,13.12.5,1.3,1.79,3.34,3.04,4.08l.19-2.86c1.1-.53.71-4.61,2.18-3.92.6.28,2.38,3.94,2.38,4.4v10.52l1.95-7.89c1.19-9.41.45-23.28-5.33-30.79.45,4.81.89,9.72,2.21,14.4.32,1.12,2.71,4.1,1.18,4.59-3.81-6.95-3.16-14.98-5.99-22.17-3.78-9.61-12.92-24.16-18.32-33.23-1.84-3.08-3.91-6.53-4.86-9.73,3.93,3.11,9.51,15.41,12.29,20.61,1.47,2.74,9.55,18.73,11.78,18.73,2.18-1.92,3.95-4.21,5.64-6.56,3.18-4.43,9.78-13.87,10.2-18.92.26-3.08-.48-7.93.39-10.52.36-1.08,4.9-5.91,6.5-5.39l-.69-2.03c2.24.31,5.17-1.36,7.16-1.27s5.19,2.24,8.01,1.36l3.48,6.68c3.09-3.83,6.7-6.89,11.69-7.97.93-.2,2.52-.79,2.21.85l-10.16,8.15c2.24,1.13,5.77-3.13,6.1,1.01-2.96.35-6.2,2.26-8.48,4.08-.92.73-1.29,2.13-2.4,3.03-3.09,2.5-8.92,4.61-12.15,7.52-10.04,9.05-10.97,26.72-12.99,39.25-1.68,10.4.79,16.58.81,26.53,0,2.68-.64,10.61-1.38,12.92-.66,2.04-1.14,3.66-3.42,2.33v2.05s-2.04-1.04-2.04-1.04l-1.33.68c.91,3.15-.19,8.57-1.02,11.9-3.1,12.43-10.11,16.48-17.66,25.08-6.36,7.25-13.11,15.01-16.93,23.77-.98,2.24-1.29,5.48-2.22,7.29-.64,1.25-1.97,1.33-2.42,2.36-1.46,3.27-1.21,9.16-2.5,12.72-4.89-2.64-6.56-19.29-9.48-20.69-4.42-2.11-7.13,2.11-10.84,3.41-2.96,1.04-5.54.16-7.9,3.68l-2.28-1.31c-1.83,2.6-.97,5.04-1.51,7.66-.26,1.23-1.34,2.34-1.7,3.72-2.37,9.12-4.38,18.39-6.29,27.63l-2.03,1.7c.36-2.49-1.53-3.96-2.37-6.11-.96-2.44-1.31-5.36-2.52-7.68-.48-.91-1.75-1.02-1.9-1.61-.4-1.6-.31-10.02-1.35-11.06-1.56-.32-1.08.17-1.52.87-.74,1.18-2.04,8.65-3.89,7.27-1.7-4.14-2.33-9.39-4.85-13.13-2.1-3.12-5.8-6.11-8.04-8.92-.68-.86-2.39-4.96-3.17-5.13-3.12.18-4.16,2.79-7.71,1.67l-7.51,20.34c-2.04,3.13-2.22-.9-2.97-.93l-1.69,1.34-4.43-21.02-2.36-.69c-.22.22.57,7.97-1.36,5.42-.06-2.31.26-6.88-1.05-8.79-.44-.64-4.77-2.99-6.06-4.12-8.65-7.59-20.93-24.72-24.62-35.75-.71-2.12-2.3-11.6-3.03-12.24-.99-.88-3.77-.89-5.08-.34-3.24,1.36-3.98,7.9-7.64,4.25v4.75s-1.96-.09-1.96-.09l-8.76-16c-1.66-10.62,1.37-24.15.34-34.38-.14-1.44-3.69-7.15-4.57-9.56-2.64-7.26-3.13-15.14-6.18-22.32-1.13-2.66-5.25-10.02-7.38-11.62-3.46-2.6-10.53-1.75-14.35-3.96-2.36-1.37-5.16-6.88-7.66-9.3-3.27-3.18-7.81-5.36-11.21-8.46,2.23-2.19,9.07,3.45,9.49,3.05l-8.13-11.53c6.38.37,7.89,5.1,12.45,8.09.9-.16,4.27-4.54,4.65-5.56.56-1.52.28-5.66,1.55-5.92,2.18-.43,2.04,4.48,3.38,5.42l.97-2.41c.66-.64,1.36-.3,2.07.04,2.97,1.41,6.28,6.53,9.11,8.51,2.08,9.83,7.46,17.58,14.18,24.84,3.49,3.77,8.59,6.86,12.35,10.39l1.3-.67c2.65-4.74,5.15-9.69,8.2-14.19,5.17-7.62,12.68-14.02,14.24-23.76.23-1.45-.75-2.55-.07-4.08.97-2.18,9.02-7.39,8.98-9.18-.01-.56-1.3-1.43-1.49-2.29-.41-1.87,1.29-11.4,2.03-13.65.82-2.49,4.27-7.11,4.4-9.22.09-1.48-2.07-6.17-2.51-8.29-5.11-24.63,2.16-64.91,11.67-88.34,2.25-5.55,7.35-10.87,10.18-16.27,6.13-11.65,7.2-24.66,9.82-37.33l-6.83,5.72c-9.01,5.07-16.71-2.49-16.97-11.76-11.58.76-21.01-9.51-18.62-21.14,1.9-9.27,15.76-20.84,23.43-25.76.82-1.18-5.92-5.08-7.1-6.11-6.08-5.32-11.49-11.49-8.65-20.15,1.13-3.46,8.79-9.6,8.98-11.39.36-3.39-2.21-3.83-3.25-5.56-1.18-1.96-5.09-18.86-4.89-20.88.16-1.64,2.03-1.98,2.05-3.4,0-.36-1.08-.18-1.49-1.26-.8-2.07-.39-4.31-.67-6.43l-1.92-.79c1.3,5.58-.91,10.68-1.45,16.2-2.61-.03-4.37,1.31-6.34,2.82-6.86,5.23-13.66,13.29-20.71,18.63-3.52,4.08.78,12.36-2.11,17.57-2.05,3.68-6.54,5.9-10.76,5.18-.1,1.74.62,3.33.71,5.05,2.47,48.74-1.14,96-.66,144.55.29,29.35,3.85,60.2-.13,89.48-.84,6.18-4.04,23-8.39,26.89-.68.6-1.33,1.98-2.38,1.02l3.92-6.94c8.41-22.38,5.9-46.4,5.55-69.7-.79-52.71,2.1-104.86.68-157.41-.27-10.05,1.06-22.22-.65-31.92-.3-1.72-6.38-4.36-7.52-4.11-2.33.53-4.92,7.19-7.06,9.2-7.1,6.63-11.83-2.85-18.96,4.07l-3.8-4.42c.26-2.38,9.13-6.04,9.44-6.53.63-.99-.71-4.43-.55-6.26.42-4.81,7-9.62,9.8-3.82l2.96-3.15c-3.21-5.54,1.06-9.16,6.19-10.77,1.76-.55,3.19-.12,5.15-.95,2.86-1.21,7.3-8.73,10.41-11.3,1.14-.94,3.91-1.56,4.03-1.74.74-1.14.13-14.29,2.8-16.87-.73-.62-12.33,7.04-14.24,7.8-2.02.8-4.97.74-6.09,1.37-1.28.71-1.59,3.48-2.24,4.21-.48.54-1.99.8-2.91,1.53-.64.5-.85,1.86-1.07,1.99-.72.41-1.96-.56-2.85-.42-.47.07-7.8,3.6-8.67,4.13-3.42,2.11-4.23,5.35-5.49,6.38-.65.53-2.65.48-3.85,1.24-2.27,1.42-5.61,5.83-6.62,6.43-2.01,1.2-5.45.28-8.16,1.16-5.65,1.83-14.28,10.85-18.92,11.47-.75.1-1.7-.48-2.53-.36-5.86.8-15.6,4.81-16.69-3.84-.18-1.46.18-.78.94-1.06,4.41-1.65,9.83-2.4,14.36-3.96,2.42-.83,8.12-2.86,10.24-4.01,4.46-2.41,2.66-2.06,3.76-5.74.65-2.19,2.61-1.35,3.73-2.04,1.69-1.03,6.71-5.17,8.81-5.77s4.97.3,7.12-.84c1.24-.66,3.69-2.76,5.96-4.05-2.03,1.9-4.02,3.91-6.1,5.77,1.81,1.01,4.45,2.86,6.1.66l-1.35-3.04c.4-.48,1.98,3.88,5.79.68.61-.51.78-1.6,1.11-1.86.38-.29,3.74.68,3.29-2.88,1.25.57,1.77.97,2.66-.35l-2.35-4.4c-3,1.93-6.07,3.66-9.16,5.42ZM213.4,15.88v11.87c4.2-2.33-.73-7.65,2.38-10.85v12.28s-1.69-.07-1.69-.07l.63,4.45,12.93-.38c.66-2.79-1.01-3.65-2.05-5.76l2.09-.72c-.68-2.98,1.61-10.74-2.07-11.53-1.92-.41-.88,1.82-.97,2.6-.27,2.29-.54,4.6-1.12,6.84l2.76,1.77-2.7-.68c.05,2.76-2.68,7.85-3.33,2.33-.23-2,.1-4.01-.12-6-.3-2.67-2.3-4.67-.63-7.85l-6.1,1.69ZM227.53,36.68c-4.15-2.21-7.73-1.66-11.76.57-1.03.95,1.23.58,1.62,1.78.48,1.48-.25,5.68.95,6.87.2.2,4.77,2.69,5.05,2.75,2,.46,3.73.01,5.61-.56-1.3-3.93-1.53-7.26-1.45-11.41ZM281.13,54.81l.59-4.35c-.16-.96-1.38-.95-2.16-1.02-10.65-1-21.97.54-32.56.74-26.82.5-54.66-.09-81.43,1.98-1.03.08-8.05.85-6.41,2.74l1.35.67c-3.27.11-.54,4.49-.28,6.08,1.09,6.59,3.7,20.03,2.94,26.1-1.62,12.99.67,23.88,3.47,36.73l-1.06,14.55c2.28,2.96,4.57.27,7.43-.05,16.59-1.84,37.14,1.14,54.33.76,3.88-.09,7.26-.6,11.47-.68,9.16-.16,18.37.33,27.5-.37-2.77-.77-.97-4.28-.69-6.44l-5.09-.68-86.45.66c2.93-2.69-1.56-4.74-2.02-7.13-1.24-6.51-.09-19.18-.76-27.06-.49-5.78-2.67-34.09-4.05-37.22-.23-.52-1.33-.62-1.32-.84l.8-1.6,29.05-.79-.68-2.71-2.02.68,1.69-2.71c1.32,2.41.72,4.33,4.03,4.78,7.75,1.05,16.63-1.14,24.42-1.42,15.97-.56,36.52,2.81,51.6.74,2-.28,4.13-1.91,6.32-2.16ZM281.44,137.21c.41-.58,1.72-.44,1.86-1.89.13-1.38-1.03-2.73-1.07-4.06-.3-10.5,1.74-22.71,2.37-33.28.9-14.94.82-29.97,3.08-44.8-.22-2.34-2.83-2.86-4.76-3.04-.49,4.34,1.93,7.48-4.41,6.12l2.74,1.8c0,14-1.88,27.97-2.76,41.92-.56,8.9.83,22-2.18,30.41-.4,1.12-1.76,1.56-1.89,2.88-.15,1.48,1.26,3.91.69,5.76l4.74-1.36.34,2.04c.95-.56.71-1.74,1.24-2.5ZM299.53,109.86c-.36-6.74,1.32-13.36,2.03-20.02.17-1.57-.15-3.17,0-4.74,1.07-10.38,3.48-21.32,1.7-31.56l-6.44-2.71-.68,2.71,1.36-.34-1.36,5.77,4.34-.05c1.61,1.22-.32,2.84-1.99,2.73-1.31-.09-1.65-1.58-3.03-1.31v5.42s3.39-.67,3.39-.67c-1.46,2.04,2.38,2.09,2.03,3.72-1.67,2.01-3.72,1-5.41-.33-.02,2.86-1.62,3.68.73,5.72l-1.26,7.44,2.57,2.11-1.99.38-.09,5.02,2.08,1.72h-2.72s0,2.04,0,2.04l4.07.67-4.14.41-.6,2.99,3.38.34-3.06.99-.33,2.07,4.07,1.35h-4.07c-.76,3.12,1.82,1.33,2.72,3.39l-3.39,1.36c1.44.41,5.3-1.17,4.74,1.36h-4.75s0,2.04,0,2.04h6.11ZM148.97,63.71c.34-6.36-8.04-9.35-11.56-3.71l8.86,49.85,2.03-.68c-2.48-4.74.22-4.97,2.57-8.33l-1.22-5.91c-1.99,1.08-3.52.93-4.7-1.1-.33-1.98,3.21-2.08,3.39-2.72l-.72-13.83c-2.59.37-4.52-.26-4.75-3.13-.16-2.03,1.13-2.8,1.39-4.63.43-3.06-.94-6.14-.04-9.19l-4.06-.34c4.2-2.25,6.28,1.21,8.81,3.73ZM241.88,71.18c-5.19-5.5-3.4-7.13-11.89-6.81-3.78.14-8.37,1.13-12.18,1.38-13.12.85-27.22.39-38.97,7.13,3.05,2.63,3.99,5.02,7.98,6.93,2.98,1.43,18.1,5.64,20.71,4.94.66-.18,0-2.24,3.16-.68-.26-3.91-6.66-2.36-9.06-2.75-4.29-.7-13.93-2.46-17.42-4.37-.94-.51-1.67.06-1.32-1.7l16.28,4.06.32-1.34c3.64,2.61,8.22,1.83,12.14,2.2.8.08,1.52.68,2.12,1.18l.66-1.36c3.49,3.22,6.59,1.58,1.4-1.34l-.72-4.77c1.81,1.98,6.01,8.36,8.99,7.01,1.07-.49.44-1.73,1.52-1.59-1.46,5.03,8.35,7.02,12.19,7.82,6.03,1.25,6.18.28,11.44,2.95,1.91.97,3.86,2.06,5.87,2.8l-3.55-12.73-2.88-2.54,2.03.34c.93-2.1-.93-4.65-1.01-5.76-.12-1.78,1.11-5.57.04-7.16-1.03-1.52-3.02.03-4.18-.03-2.47-.13-5.06-1.11-7.72-.61l4.06,6.78ZM270.37,111.89c.44.73,3.93,5.66,4.74,4.75-.88-7.05,1.4-14.53,1.41-21.36,0-3.83-1.05-7.41-.75-11.57.36-5.13,2.66-9.19.02-14.56l-1.01,4.73-1.7-2.35,1.36.34-.31-4.12-8.5-1.99,3.72,2.72c-5.9-3.21-11.87-4.66-18.64-4.09-.68,6.58.66,9.77,7.46,10.87.14,1.27-1.38.57-2.04.35-.87-.29-4.31-2.19-4.73-1.71-1.33,8.1,8.65,8.9,14.23,10.86.15,1.28-1.37.52-2.06.37-3.57-.79-6.73-2.6-10.14-3.76-.94,1.04,2.25,11.31,3.41,12.53,1.96,2.07,8.66,2.25,11.5,3.08-.12,1.1-2.9,1.26-3.74,1.34-1.76.16-2.14.23-3.72-.67,1.02-.06,3.9.61,4.07-.67l-6.77-.68,2.71,1.35c-.9.05-2.43-.54-2.02,1,.73,1.57,1.5,2.6,3.39,2.4l-.7,2.02,5.43.69-2.71,1.36c1.33,2.25,2.93,2.38,4.74.67-.91,2.74-.06,3.77,1.36,6.11-.34-.6-3.1-2.91-4.06-2.41-2.99,1.55-5.22,7.42-6.11,10.55,2.93-1.43,12.59-3.87,10.17-8.14ZM181.53,86.1l-3.4-9.49c-2.81.76-.13,4.68-.68,5.43l-1.35-.69c.33,2.94-2.07,6.42.34,8.82l1.02-1.01c-5.32,12.53,8.11,23.3,17.28,29.51,11.28,7.63,29.72,11.12,43.32,9.41,4.93-.62,12.27-2.13,16.63-4.4,2.82-1.47,6.99-3.78,3.79-7.05-8.68,4.67-18.77,5.93-28.42,4.02-.66.1-.28,3.77-3.09,2.76l2.03-1.72-1.35-3.7c8.95,5.74,22.11,2.1,31.07-2.15l.11-2.6-3.38.67,3.39-1.36-.69-8.13c-1.82-.11-2.7,1.67-4.44,2-1.39.27-2.97-.12-4.53.22-6.89,1.47-19.14,5.54-25.46,5.75-9.32.31-26.53-7.23-33.06-14.07-2.46-2.57-6.53-9.7-8.47-11.17-.72-.55-2.49.48-3.39.3l2.72-1.36ZM193.73,90.17c-.63-4.14-3.97-6.46-7.45-8.14-.62.75,4.56,9.88,7.45,8.14ZM289.35,88.82c.16-1.93-.96-3.92-2.7-4.75-.26,2.12.06,4.7,2.7,4.75ZM226.72,100.11c4.66-4.59-3.97-6.67-7.44-8.7-1.75-1.02-5.46-4.86-7.26-4.38-3.89,4.26-6.12.88-10.67-.76-.92-.33-5.14-1.97-5.59-1.53.12,2.99,1.95,6.43,4.04,8.51,1.14,1.13,7.85,5.33,9.21,5.72,1.12.32,1.03-.09,1.02-1.01-.04-2.63-1.53-5.16-1.04-7.79,2.03,4.42,4.02,10.66,9.56,11.47,2.65.39,6.16.45,8.18-1.53ZM159.82,98.99c.16-2.71,2.07-6.24-2.02-6.78l2.02,6.78ZM285.29,103.07c3-.46,3.5-8.97,1.68-10.85-1.64-.32-.97,1.32-1.01,2.36-.11,2.88-.12,5.66-.67,8.49ZM194.41,99.67c-.95-1.98-.45-4.58-2.37-6.09-1.23.88-1.37,2.34-.91,3.63.07.19,2.71,3.07,3.29,2.46ZM250.02,98.99c-1.75-3.42-5.9-2.28-8.86-3.01-4.55-1.11-7.16-4.08-11.47-.04,1.95,1.69,2.14,4.8,5.02,5.12,1.09-.13,1.5-5.05.39-6.13,4.53,1.72,6.42,5.22,11.91,5.34.19,0,.69-2.26,3.01-1.28ZM207.3,105.1c1.6-1.5-6.19-7.07-7.68-7.59-2.47-.86-1.95,1.71-1.05,3.1.81,1.26,7.86,5.3,8.73,4.49ZM217.47,108.49c.54-.51-2.43-5.3-4.06-4.06-1.98,1.49,2.04,4.75,4.06,4.06ZM259.52,111.89c2.46-.22,4.6-1.39,5.32-3.85-.92-2.63-3.28-4.13-6-3.61l.68,7.46ZM158.5,108.36l-.48,2.69,4.34.77.48-2.69-4.34-.77ZM182.89,117.32c-.07-.13-.7-.25-.97-.73-1.21-2.11-1.4-6.04-4.45-7.41l1.36,17.97,1.34,2.05-2.03,1.69,14.24-.68-12.2-2.04,2.17-.47,7.32,1.15c-.89-1.26-1.37-2.73-2.03-4.06,3.46,3.06,7.05,3.86,11.52,4.43.72.09,2.19.95,2.04-.35-7.55-2.22-12.73-7.34-17.97-12.9-.56-.04-.43.96-.34,1.35ZM148.98,110.54l-2.72.35c1.2,3.35.87,7.33,1.53,10.69.69,3.53,2.09,7.58,3.91,1.53-.47-1.25-1.97-.26-2.03-.35-.91-1.52,1.37-1.32,1.39-1.74.07-1.53-.91-3.75-2.75-3.02l1.39-1.06c.22-1.76-.2-2.9-2.07-3.01l1.36-1.1v-2.28ZM163.73,118.83c-.67-.46-2.9-.43-3.9-.83-.5,1.29,3.21,3.21,3.74,3.38,1.81.58.74-2.15.16-2.55ZM260.87,130.2l10.18-1,2.02-7.14-11.47,4.12-.73,4.02ZM247.99,130.89h12.21v-3.39c-1.95-.8-1.98,1.23-2.49,1.34-1.33.29-3.05-.27-4.47.18l-5.25,1.87ZM273.76,133.6c-2.06.19-4.46-.26-6.46,0-.94.12-1.17-.37-1,1.01l1.77,3.11,5.69-.04v-4.08ZM182.21,146.49h-9.83c-3.98,0-1.73,7.02-1.67,9.13.11,3.37-.1,6.78-.07,10.15,9.09,2.98,2.66-1.28,2.87-3.22.1-.95,1.19-1.53,1.1-3.32-.11-2.2-4.38-9.5,1.18-10.05,7.06-.7,1.85,7.1,1.82,8.62-.02,1.2,1.66,2.45,1.61,3.96-.04,1.41-2.27,3.19-1.77,5.08l86.8-2.04-.68-4.06-1.01,2.03-2.04-3.39h-10.51l.68-9.5h11.53c-.52,4.71,3.48-.32,6.1,1.35l-2.03-2.02,2.39.66.03,5.48c-.89,1.29-3.25.56-4.44-.04v4.07c2.01-2.17,3.69-.57,6.05-1.31l.74,2.67c1.87-.61.58-3.25.61-5.1.02-1.26.92-3.19.68-3.99s-1.6-.86-1.83-1.24c-1.61-2.68,1.87-3.73-5.33-4.52-8.47-.93-16.15.45-24.3.62-16.11.34-32.12.93-48.15,1.36-5.31.14-10.66-.16-15.96-.03l5.42-1.35ZM304.27,157.34c1.23-5.21-6.65-10.88-11.72-9.36-1.92.58-5.55,6.15-2.87,5.28.8-.26,1.4-1.2,2.78-1.35s3.16.74,4.85.16l5.53,5.07-1.82,3.25,1.22,2.39c3.6-4.48,10.05.02,4.28,3.33-1.69.97-2.05.13-3.61-.62v2.71s5.09.66,5.09.66l.69-1.34-1.04-1.35,2.74.4c.43-2.39,3.44-3.37,2.61-6.06-.5-1.61-6.86-3.21-8.75-3.17ZM168.64,152.6c-1.56-.18-1.81,1.54-3.57,1.27-1.55-.23-4.47-3.5-7.25-4.35-10.46-3.2-15.15,5.5-20.08,12.53-.77,1.1-3,1.04-2.32,3.44,2.9-1.08,3.77-.73,5.09,2.05,2.99-1.73,6.06-2.86,6.43-6.79l-3.39-.68c-.72.77,1.58,4.29-.67,4.74-.64-1.92-.96-3.47.08-5.34l4.66.59,1.02-4.07-.34,2.71c5.05-.83,6.16-3.63,7.47-8.13l.13,1.83-1.49,4.27c4.27-.66,8.82,2.13,8.14,6.79,2.47-.32,4.27-2.26,6.77-.68v-4.75c-1.99-.31-2.78,3.66-4.74,1.01,3.5-.91,4.57-2.82,4.06-6.44ZM174.13,154.57c2.07,2.91,5.9-3.19,2.98-4.01-2.05-.57-3.9,2.71-2.98,4.01ZM175.44,160.08c-.19,1.23-.03,1.98,1,2.69,1.28-.83,1.09-1.96,1.01-3.38l-2.02.69ZM264.94,164.81c3.66.52,7.49-1.54,4.41-5.42l-.64,3.42-3.76-.03v2.03ZM307.66,162.1l-2.77.31-.62,3.08c2.17.27,3.69-1.22,3.39-3.38ZM134.65,164.9c-6.72-.84-11.24.02-5.67,6.69l.68-1.4,5.08,2.09c.33,3.22-3.94-.3-5.42,0,2.07,3.36,5.27,1.74,8.14.66l-2.8-8.04ZM281.22,166.84c-.35-1.39-1-1.09-2.02-1.07-3.18.08-7.8.46-8.15,4.46l10.17-3.4ZM137.8,166.17c-2.13.43.59,6.02,1.35,6.09,1.47.13.65-6.49-1.35-6.09ZM172.71,168.21c-1.82-.62-11.3,1.24-10.84,3.72.3,1.62,1.6.43,2.23.22,2.34-.78,4.65-1.72,7.02-2.51,1.05-.35,1.94.6,1.59-1.43ZM281.73,170.77c.77-.65.95-2.07-.19-2.55-3.06,1.11-8.79.25-7.78,4.74,1.87-.76,6.68-1.09,7.97-2.18ZM161.18,173.63l-.32-2.05-.74-.59-4.36.61v2.03s5.43,0,5.43,0ZM268.91,183.71c.9-.55,2.14-11.71-1.64-11.45l-16.24,1.44c-23.64-1.94-47.49-.07-71.15-.1-1.19.21-.37,10.83.29,12.25l1.76-1.02-.42-1.69h2.04s.37,2.08.37,2.08l13.2-.72-.34,1.35h26.11s.34-2.72.34-2.72l1.11,2.63,6.68.09-.67-2.7,1.74,2.72c2.9-.15,5.85.17,8.75-.03,3.49-.24,6-2.3,9.47-.07l18.58-2.05ZM171.35,174.32c-2.06-1.45-10.97-.54-10.16,3.04.13.56,1.16,1.34,1.79.47l8.37-3.5ZM284.6,174.32c-4.49-1.01-10.3-2.25-11.52,3.38l11.52-3.38ZM172.71,180.41c-1.07-3-3.12-3.97-6.1-2.7-.17,1.81-.03,1.1,1.02,1.33,1.78.39,3.38.74,5.08,1.37ZM279.86,181.09v-1.35c-2.17.91-5,.86-6.1,3.39l6.1-2.04ZM170.68,185.18c-3.16-1.03-7.06-2.63-9.49.66,2.95-.4,5.67.28,8.54.64,1.34.17.98-.15.96-1.3ZM280.53,185.84l-4.77,1.8.04,7.01,2.02-6.78c.78,3.36-2.09,8.08,1.41,9.93l-.72,2.28c1.77.02,3.79.53,4.1-1.71.13-.94-1.61-12.11-2.08-12.54ZM261.55,188.56c-2.4-.7-4.35,1.36-6.42,1.38-1.24.01-2.6-.72-4.07-.73-22.29-.14-44.56.17-66.83,1.38l.68,12.9c3.08.61,6.29-.66,9.13-.71,4.82-.08,9.51.05,14.24,0,8.57-.09,17.24.38,25.8.03.83-.03,2.52.52,2.37-.68h-10.51c-2.7,0-2.32-7.03-2.7-8.84l-2.39-.66v9.5c-2.69-1.84-.83-6.67-1.36-9.5-2.43-.38-1.62,4.2-1.66,5.45-1.43,1.93-12.52-.27-15.3-.02l.69-7.46,1.32,2.44c.49.41.9-.41,1.04-.41h10.51c.09-1.59.23-1.2-1-1.36-3.27-.42-5.91.5-8.84.68-1.35.08-1.06-.15-1.01-1.36,3.53.35,7.82-.48,11.23-.06.93.11,3.13,3.99,3.01-.63,1.83,1.47,5.2,1.31,7.76,1.39,9.77.33,19.44-.81,29.19-.71l1.4.63c.81,1.16.34,5.06-1.74,4.81l1.37,1.1v4.31s4.05-1.69,4.05-1.69v-11.2ZM225.95,195.34h29.84c3.63-5.74-3-3.48-6.11-3.4-7.69.2-15.37.02-23.05.69l-1.7,1.02,1.01,1.69ZM216.75,197.34l-.27-2.7c-1.72-2.08-12-1.57-12.57.37-.41,1.4.42,2.15,1.69,2.37,1.52.26,10.46.8,11.15-.04ZM315.12,206.87c1.7-2.19-10.62-6.24-12.22-7.1-3.31-1.79-6.03-4.93-9.48-5.77,2.49,3.18,5.6,6.1,9.01,8.28,1.48.94,3.56,1.13,4.81,1.97,2.64,1.79,3.37,5.3,7.87,2.63ZM172.71,206.21l-2.68-9.91-3.43.75,4.07,7.79c-2.91-1.65-4.03-5.1-4.75-8.15-4.76-.22-1.4,4.36.39,6.74s4.73,4.49,6.74,6.83l-1.69-3.74,1.34-.32ZM256.12,200.09c.2-1.63-.02-2.41-1.69-2.71l-27.46.68c-.19,1.63.02,2.41,1.69,2.71l27.46-.68ZM153.05,202.12l-2.98-1.3-1.77,3.34,4.75-2.04ZM245.27,201.46h-3.38v.66h3.38v-.66ZM152.36,205.52c1.17,6.42,6.49,2.65,2.38-1.37-1.36-1.33-4.42,1-5.76,1.89l.7,4.9c1.09.23,2.63-.35,3.07-1.34.6-1.37-3.91-4.31-.39-4.08ZM288,207.56c.36.52,1.81.57,1.36,2.03l-2.03,1.36,4.3-.1,1.04-.97-.64-3.63c-3.71,1.11-5.11-4.92-8.77-1.73-.03,1.87,1.68-.33,3.68,1.07,1.07.75.77,1.55,1.06,1.97-.57-1.08-3.5-1.65-4.74-1.35-.48,3.17,2.09,2.84,4.4,2.71.56.07.44-1.17.34-1.36ZM259.52,208.23c-.99-2.42-6.99-4.65-8.13-1.68.32,1.71,2.31,1.39,3.7,3.07,3.79,4.59,3.68,11.51.37,16.25,4.19-.04,2.73-1.6,3.44-2.83.47-.81,1.15-.54,1.56-1.98,1.06-3.76-.23-7.02.36-10.68-1.37-.86-2.94-1.38-4.38-2.08-1.11-.54-1.71-1.3-.97-2.1l4.07,2.03ZM147.61,207.56l-10.15,5.09c3.91,2.01,8.77,3.07,11.57-.79l-1.42-4.3ZM193.73,221.12c-.35-2.06-2.41-3.72-2.59-5.94-.05-.6,2.03-7.72.22-7.62-1.11.06-1.11,3.6-1.63,4.34s-1.91.24-2.07.42c-.97,1.04,3.41,11.1,6.06,8.79ZM212.72,211.62c.57-.45.77-3.1-1-2.71-2.1.46-.23,3.68,1,2.71ZM235.11,212.3l2.7-1.68-3.38-1.7.68,3.39ZM168.48,210.44c-2.79-2.83-7.31,2.77-9.98,3.58-2.17.66-14.35,1.78-16.46,1.5-8.95-1.19-15.26-6.86-24.95-2.22-1.42.68-9.11,6.16-7.43,7.82l8.81-1.36-.67-2.7c2.12-.48.95,1.74,3.05,2.07,1.53.24,2.97-.43,4.41-.74-.9-2.23-.26-5.85,2.71-6.08.18.18-3.27,3.24-2.03,4.74s1.17-1.75,2.02-1.35c.11,1.38.7,3.26,1.91,4.04s13.69,5.89,14.91,6c2.3.19,3.02-.83,4.7-1.08,1.05-.15,2.15.65,3.1.43,2.08-.46,3.73-4.65,3.19-6.68l.67,3.39,3.38-.33-2.7,2.37c2.14-.36,7.31-1.79,8.79-3.07,1.87-1.61,4.73-8.13,2.56-10.33ZM264.79,211.09c-.12-.21-2.92-1.84-3.24-1.5-.45,2.61,1.64,4.36,2.04,6.78,1.74,1.71,1.7-4.43,1.19-5.28ZM205.75,211.15c-2.46-2.06-8.84.33-10.59,2.94.58,11.81,19.02,4.1,10.59-2.94ZM232.39,212.99c-.39-.51.07-1.47-1.5-2.21-3.64-1.72-12.65,1.51-15.34,4.72-.04,4.56-.9,8.28,3.77,10.96l9.61-1.33-.6-6.04.68,2.04,1.35-.69v3.39s3.39-.67,3.39-.67c-.12,1.14-1.52.84-2.34,2.05-.6.88-.82,2.32-1.05,3.38l-10.84-1.37-.67,2.72-3.39-2.72,2.7-1.34c-3.88-1.12-3.48-6.14-3.39-9.51-3.28,1.68-2.91,5.52-2.61,8.72l2.61.78-1.35,1.68c10.21,12.8,29.13-1.14,18.98-14.58v1.36s-2.03-.69-2.03-.69v-.66s2.03,0,2.03,0ZM243.24,212.31c-7.65,2.63-5.41,11.25,2.01,11.92,2.85.26,6.68-2.03,7.34-4.94,1.62-7.06-2.67-8-8.67-7.66v2.03s3.39.67,3.39.67h-4.07s.05,3.36.05,3.36l1.98.71h-3.39s.71-3.63.71-3.63l-1.38-1.1,2.03-1.36ZM262.89,215.71l-1.33.33c1.62,1.86-1.78,10.16-1.37,10.52,2.98-.67,1.89,2.33,3.38,4.43.52.74,2.35,2.19,3.19,2.26l4.73-3.22,1.61,2.64c2.14-.69,4.76-3.5,4.79-5.76.03-2.05-4.02-8.34-4.13-6.11,4.61,10.38-9.81,11.72-9.81,2.7,0-3.79,2.27-4.09,4.39-6.43l-2.69-1.37-1.7,2.03-1.04-2.03ZM184.92,221.82l-6.1-2.72c2.23,2.2,2.63,4.45,1.74,7.53-.37,1.3-1.51,1.28-1.56,1.41-.14.33.51,1.14.18,1.88-.45.99-6.55,7.27-5.78,8.17,2.16,2.52,6.71-5,5.5-7.39l4.56-1.53.11-2.18-1.37-.78c-.41-2.68,2.86-2.01,2.73-4.4ZM336.82,219.09l-4.74,3.06c-.31,1.3,1.7,1.83,2.53,2.21,2.43,1.12,19.08,6.23,20.41,5.46.52-.3.42-2.43,2.15-1.91l-.68,2.7c5.31.35,10.12,3.5,15.59,1.35l-8.13-3.73-26.7-7.08-.43-2.07ZM125.92,223.84c-2.04.41-2.41-2.45-3.39-3.07-2.04-1.28-13.7,4.64-17.27,3.75l-.35,1.34c2.09-.19,1.68,2.1,2.21,2.59.42.4,1.64,0,1.81.17.77.76-1.98,4.76.72,5.4,1.09-3.67,1.28-5.18.01-8.82l1.7,2.72c5.01-1.8,13.16-.92,16.31-5.49l3.69,1.4c-.59-1.56-6.52-4.13-7.46-3.38l2.03,3.39ZM179.33,227.07c1.74-1.78,1.01-7.37-2.07-6.54l-1.82,1.62,2.69,3.73-4.06-2.71,2.03,3.06-1.35,1.01c1.38.43,3.36,1.08,4.58-.16ZM269.69,220.46c-2.27-.09-3,2.28-2.71,4.06,1.62-.73,1.88-2.73,2.71-4.06ZM271.71,220.45c-1.3-1.25-1.34,1.1-1.52,1.49-.63,1.3-1.1,2.69-1.86,3.93,2.45.21,5.25-3.63,3.38-5.42ZM210.01,227.9c.15-6.14-9.27-7.75-10.15-1.63-1.46,10.21,11.78,5.33,9.46,2.32h-2.02s2.71-.69,2.71-.69ZM100.15,232.67c-1.46-.18-3.25-1.59-3.4-3.09-.24-2.35,2.32-3.13,1.72-5.06l-26.79,11.19c5.57,3.52,10.4,5.54,16.94,3.03l-2.02-5.4c2.49-.58,2.57,4.65,3.72,4.73.94-1.66,11.21-3.45,9.83-5.4ZM178.14,228.6c-3.15.46-4.58-1.78-6.77-3.4-.28,1.66-1.8,3.52-3.4,3.39l1.35-1.69c-2.83-1.14-.6,4.5-4.77,4.67l-.65,2.45,8.06,4.03,6.17-9.44ZM243.93,225.88c-11.76-3.49-6.2,13.75.68,3.68l.02-1.24-1.3-.73.6-1.71ZM104.9,226.56c-2.6-.54-.38,3.04-2.38,4.06l-1.34-3.38c-2.92,2.88,1.39,4.72,3.72,4.07v-4.75ZM148.3,234.69c-3.15-10.26-10.63-6.08-17.17-1.9-3.86,2.46-11.98,10.34-14.88,11.57-1.93.82-3.93.48-5.93.51.49,2.78-.37,4.39-1.35,6.79.25.25,4.42-2.44,5.76,2.08.3,1.02-1.13,4.11.67,3.35,2.22-.93,3.75-5.22,4.59-5.93.62-.52,5.21-2.04,6.81-3.02,4.01-2.45,7.68-5.45,11.39-8.32l-.74-9.19,4.75,8.14,1.71-.67-.37-2.02,4.75-1.39ZM383.62,237.41c2.12-2.06,4.61-3.01,3.4-6.78l1.36,3.39c2.28-2.32,4.31-.41,6.77.68-.43-6.45-8.68-7.67-13.74-6.63-3.36.69-6.95,4.78-10.66,5.28.5,1.97,2.26.66,3.41.97,4.16,1.11,1.61,7.39,2.02,7.84,3.11-.24,5.35-2.71,7.46-4.75l-1.34-.33c.81-1.12.94-2.66.55-3.95s-3.78-2.19-2.59-3.18c1.61-1.35,5.48,5.26,3.39,7.46ZM158.47,229.27l-6.67,2.13c-.51,2,3.65,8.28,5.36,9.07,1.17.54,3.92-.17,5.37.32.08-1.15-1.37-.53-1.92-1.8s-1.64-9.26-2.15-9.73ZM291.39,229.95l-3.07-.04.28,9.79-2.63,1.11c.37,2.87,3.31,2.93,4.41,4.07.97,1.01.71,3.14,2.05,4.06,3.81.89-1.03-6.7-1.03-7.12v-11.87ZM279.18,229.95c-3.02-.17-1.13,2.47-1.66,3.38-.61,1.05-5.65,3.08-6.47,5.1,3.61,2.21,1.54,4.94,2.71,8.48,2.17-.09,1.93-2.54,4.25-3.56,1.03-.45,2.1-.58,3.21-.52.75-2.79-2.64-5.61-2.73-7.87-.06-1.51,1.8-2.94.69-5.02ZM294.78,229.95v10.52c0,.36,1.88,5.85,2.23,6.25,1.41,1.64,6.29,2.12,7.6,4.94l1.01-10.85c-2.72,1.24-2.65,1.33-5.12-.67l-.22-.9c3.31-2.78-2.26-4.57-4.81-5.24-.66-.71,2.27-4.7-.7-4.05ZM319.87,236.06l-11.87-5.42-1.01,1.33,3.1.63v2.81s-3.16.35-3.16.35l-.96-3.1-3.03,3.1c-.25.96.61,1.09,1.09,1.55,6.12,5.72,16.83,10.56,24.34,14.37,1.6,0,2.64-4.15,5.56-4.67,2.54-.45,6.09,1.48,8.31,2.61v-6.78c-.13-.18-3.03,1.78-3.9,1.92-3.8.63-12.52-6.74-16.26-7.26-2.2-.3-2.15,1.74-3.55,2.96-.01.68,7.81,3.06,8.8,1.02v2.71c-4.64-2.01-9.96-3.35-14.91-2.04l3.73-4.74-1.02,3.39c1.98.97,5.41-3.81,4.74-4.74ZM352.93,234.21l-9.99-2.57c7.92,6.35,17.15,15.33,28.18,12.6,1.09-1.56-.86-8.47-2.42-9.25-4.36.37-8.66.04-12.2,3.09l1.35-2.71-3.79.48c-.65-.11-.69-1.37-1.13-1.65ZM92.69,238.77c-7.6,2.38-11.68,3.55-19.01-.31-5.67-2.99-7.53-8.47-15.26-5.83-3.69,1.26-6.6,5.59-8.44,8.85l5.34-1.44.42-4.66c3.73,2.53,5.8,8.17,11.19,7.46-.57-2.02-1.09-5.81,2.04-6.1-1.45,1.69-1.59,3.23-1.35,5.42l1.69-1.35c1.5,4.15,3.08,5.9,7.62,6.62,2.8.44,11.5-.65,13.73-2.22s2.23-4.05,2.04-6.43ZM258.15,246.91c1.25-4.74,1.67-9.33,1.36-14.24-1.43-.15-.19,2.07-.75,2.66-.22.23-1.48-.25-2.01.45-1.81,2.41-1.44,9.36,1.41,11.13ZM199.5,233.5c-4.2,3.03,3.66,7.62,6.43,3.58l-6.43-3.58ZM197.12,234.02l-2.06.3-.53.82c-1.16,3.74,1.3,8.44,3.95,11.09.25-4.38.08-8.08-1.36-12.21ZM214.76,240.13c-2.24-1.11-3.97-4.07-6.99-3.43-.36.08-2.52,3.98-5.22,2.76-1.03,3.24,5.87,3.26,8.45,3.42,4.36.26,8.3-.69,12.21-.73,8.31-.1,19.31,2.36,25.22-4.66l3.29,1.28,1.02-3.38c-1.49.22-3.63-.37-4.95-.01-.54.14-.89,1.55-2.01,2.2-2.56,1.49-6.69,2.94-9.63,2.54-.85-.12-1.61-1.05-2.08-1.08-1.06-.06-2.43,1.78-3.77,1.48-3.83-3.94-2.05-1.82-4.66-.77-.63.26-1.54-.27-2.22-.11-3.31.78-5.23,2.2-8.66.49,1.42.04,2.83.07,4.24-.16.84-.14,3.67-.84,3.89-1.87-3.46.37-6.28-.3-9.49-1.36l1.35,3.39ZM412.09,241.49c-6.09-.02-19.22-6.85-24.38-5.06-.47.16-4.63,3.08-4.77,3.37-.58,1.17,1.22,1.28,1.91,1.49,3.7,1.17,8.78,1.26,12.63,2.94l1.73-3.42-.67,4.06,4.32.72,1.78-1.39-.68,2.02,3.38-.35,4.76-4.39ZM233.07,237.42c-.83-.35-4.09-1.16-4.05.33.08,2.74,3.47,1.8,4.05-.33ZM143.56,255.73c1.11,1.07,8.92-6.85,9.91-8.12.05-1.73-2.69-14.19-5.71-9.05-.92,1.56-4.83,16.55-4.2,17.17ZM225.61,237.42h-2.03v.66h2.03v-.66ZM181.52,239.44v-1.35h-.66v1.35h.66ZM252.75,244.88l1.01-1.34-2.37-4.09,1.36,5.42ZM258.17,250.3c-.36,1.57.77,9.35,3.04,8.82,2.45-.57,4.25-17.21,1.36-19.67l-3.1,11.5-1.3-.65ZM271.04,260.48c.49-3.82,1.11-8.02.68-11.88-.26-2.36-1.8-3.99-1.92-4.88-.15-1.1,2.95-3.08-.11-4.28-.4,2.92-2.08,19.89-.67,21.03h2.02ZM435.84,242.85c-6.09-1.08-12.03-3.73-18.31-3.39.07,1.38,2.19.23,3.39,1s.58,3.06,3.37,1.69c-.17,2.06,2.25,4.23,1.06,6.12-.69,1.1-5.81,1.94-4.43,3.38,4.14.22,5.57,4.13,10.09,3.33l4.83-12.13ZM188.85,247.73c-.28-.48-3.39-1.45-3.92-2.52l-3.39-5.08c.47,4.64,3.84,9.42,7.45,12.21-.2-1.27.44-3.63-.13-4.61ZM414.68,251.52c.37-.21,3.85-6.03,4.89-6.97-.22-.95-4.65-2.51-5.75-2.4-.42.04-5.56,4.01-5.83,4.37-3.24,4.41,4.16,6.47,6.69,5ZM165.94,251.66c3.57-2.53,3.06-6.77-.68-8.82l.68,8.82ZM178.83,260.48c2.51-1.77,1.03-6.26,1.38-9.12.12-1.01,1.2-1.77,1.31-2.77.19-1.69-1.25-3.97-1.35-5.74-1.18.2-1.19,1.36-1.45,2.27-1.3,4.51-.61,10.76.11,15.37ZM163.9,243.52l-2.09.4c-.82,2.46-2.05,4.39.4,6.37l1.69-6.77ZM25.56,244.2l-18.31,4.07c4,4.43,3.9,9.58,6.07,14.61,5.28-.69,10.23-3.44,15.63-2.41l-5.77-4.06-.34,2.04c-2.02.69-1.2-2.16-3.04-2.05l-.35,2.04h-2.03s0-4.06,0-4.06l4.07,1.34-1.35-6.78c2.29.87.79,3.77,1.68,5.44,2.35,1.54.88-2.39,1.17-4.25.31-2.01,1.75-4.09,2.57-5.93ZM41.84,251.67l6.07-1.75-1.98-5.44-10.87,2.44,2.03,3.38-3.38-2.71c-.02,2.86,3.9,4.73,5.39,7.09l8.85-1.67c.46-3.5-5.22.78-6.1-1.35ZM283.75,250.13c1.61-1.37.44-4.5-1.14-5.59-10.07.02-3.99,9.96,1.14,5.59ZM158.47,259.8c.84-.83,1.54-2.45,2.76-3.04.35-.17,8.27-1.37,6.05-3.75-1.8-.04-2.43,1.89-4.37,1.95-.93.03-7.09-1.96-6.47-2.62l1.36-.33c-2.07-2.26-1.59-4.75,0-7.13h-1.34c-2.65,5.38-7.89,8.6-12.19,12.6-.66.62-.54,1.7-1.19,2.35-2.81,2.82-9.57,1.78-9,6.75,2.85-1.93,6.15-2.26,9.48-2.71-.2,4.32,1.57,10.47-4.42,10.9-.68.05-6.31-1.41-4.39.62.58.62,4.61.82,5.72.65,7.38-1.13,5.86-13.52,8.86-13.52l2.03,2.7,5.76-5.09c-.05-.41-5.1-.96-3.38-2.37.27-.22,3.58,1.68,4.74,2.03-2.04,2.02-4.16,4-6.1,6.1l7.46-5.76c.02-.67-.94-.21-1.35-.34ZM420.24,248.94c1.66.14,4.56-.8,4.06-3.04-.63-2.86-4.4,2.77-4.06,3.04ZM31.66,247.58c-3.25-3.74-7.78.58-6.77,4.75l2.73-3.7,4.04-1.05ZM340.35,252.25c-1.36-.79-1.1-4.58-5.84-3.96-3.64.47-3.07,3.5-5.21,5.72.16,5.76,7.8,8.5,10.22,2.72l1-.29c2.17,2.13,4.54,4.75,7.84,3.38l-.07,1.69c2.39,1.55,7.94,3.42,9.56,0,.54-1.14-.77-1.07-1.32-1.35-4.33-2.22-8.83-3.79-13.09-6.43-1.91-1.18-2.64-1.21-3.08-1.46ZM32.86,249.84c-3.54-4.14-10.27,4.31-4.6,5.9.42-2.59.77-5.64,4.07-4.74.12,1.27-1.61.35-2.39,1.33-.35.44-1.17,4.58-.99,4.77l3.38-2.03c-.95,11.26,13.42,14.89,14.24,1.36-1.96-.58-1.18,1.55-2.45,1.96-4.23,1.37-6.48-3.87-8.72-6.08-.55-.54-1.81-.4-2.23-.84-.32-.33-.06-1.33-.31-1.63ZM302.05,250.51c-3.87-3.15-12.12,1.34-14.04,5.55,2.51,3.06,5.77,2.55,8.88.68,0-3.14.62-.81,2-1.37.74-.3,1.16-1.87,2.34-1.69,1.3,1.63,2.65,4.05,5.09,4.08.7-.57-3.4-6.55-4.26-7.25ZM202.55,256.41v15.61c1.02-.27,2.72,1.36,3.05,1.36h14.58c-.12,1.06-2.5,1.47-3.38,1.7-4.28,1.16-9.55,2.33-12.56-1.7h-1c.59,2.35-2.11,2.58-2.6,3.85-.25.65-1.28,6.32-1.41,7.41-.24,2.11,0,4.26-.07,6.37,5.85-2.07,11.35-3.31,17.62-3.4l-4.74-1.34c9.73.35,19.22-1.83,28.82-2.71,2.25-.21,4.57.2,6.81.03,1.48-.11,2.16-1.16,2.81-1.26.88-.15,3.07,1.8,4.26,1.9,2.11-3.49-.86-4.37-1.25-5.9-.23-.92.65-2.86.54-4.52-.32-4.81-3.48-11.48-3.36-16.72-4.26,2.02,1.36,5.4-3.38,7.81-8.32,4.23-30.92,2.92-38.61-2.77-3.52-2.6-.66-3.32-1.72-5.7-.45-1.02-4.62-5.06-5.78-6.12-1.64,7.31-2.97,14.71-3.98,22.15-.7,5.15-.8,10.85-2.12,15.5l2.36,3.74,1.68-15.13c4.61-2.01,1.44-6.37,2.01-10.33l1.4-9.82ZM104.22,251.66c-2.49.01-2.49,2.02,0,2.03v-2.03ZM182.21,251.66v11.87c0,.15.7,3.65,1.36,2.72l3.38-7.49c-1.84-2.25-2.22-5.69-4.74-7.1ZM264.94,265.91c-3.21,1.57-5.56-1.54-7.05-4.14-.69-1.21-.34-3.61-1.76-4,.63,3.71,1.1,7.49,2.08,11.14.16.61,2.61,9.54,4.01,6.81l2.71-9.81ZM299.7,265.4c-.33.41-1.57,5.56-1.43,6.15.37,1.48,7.08,4.39,8.71,4.89.89.27,1.85-.27,2.74-.04,3.47.9,9.79,4.48,11.67.18,1.69-3.86-1.05-3.4-2.87-5.59-3.01-3.61-4.04-12.11-10.16-8.14,4.88,1.5,8.86,11.05,2.2,12.43-3.22.67-2.87-.83-4.59-1.92-2.36-1.48-4.63-1.72-4.27-5.6.34-3.62,2.71-3.14,4.6-5.24-1.15-.25-6.18,2.35-6.61,2.88ZM360.56,262.52c-1.78-.66-10.78,4.05-10.84,5.08.97,1.47,1.28.63,2.44.44,3.1-.51,6.57-2.94,8.39-5.52ZM192.38,269.97c-2.38-1.97-3.66-3.7-4.4-6.77l-4.41,11.86c.27,1.09.83.93,1.69.35,2.17-1.44,4.39-4.75,7.12-5.44ZM366.66,266.58l-1.69-2.7-6.45,5.42,8.14-2.71ZM308.35,270.65c4.36-.95,2.5-5.99-1.36-6.1l1.36,6.1ZM96.08,269.31c-4.74-.61-8.64-4.14-13.55-3.39l8.09,5.11,5.47-1.71ZM136.15,266.63c-2.83,12.22,12.98,5.14,3.34-.72l-.68,6.1-.69-5.43-1.98.05ZM85.91,269.31l-6.1-2.04c.83,1.61,5.06,4.87,6.1,2.04ZM370.85,269.18l-.45-1.23-3.73,2.04h3.38s-1.35,4.06-1.35,4.06c1.02-.43,8.48-6.18,3.89-5.24-.51.1-1.3.79-1.74.37ZM83.87,271.35c-7.37-6.25-14.95,2.46-3.39,3.38l-4.74-4.74,3.09,1.32,5.04.05ZM134.75,278.8c.24-1.13-4.97-9.81-5.42-9.5l-8.67,11.19c1.48,3.01,3.53,5.97,6.96,6.89,1.79-.61,10.32-8.53,9.15-9.94l-2.02,1.36ZM73.91,273.83c-.33-.24-1.67-3.16-2.91-1.82-1.58,1.7,4.29,5.34,6.1,4.74.24-2.01-1.99-2.08-3.18-2.93ZM310.38,291.69c-.63,5.73,7.19,4.32,10.51,2.04,2.18-1.49,8.46-8.53,9.43-10.91,2.47-6.07-.33-12.98-7.74-10.12,1.39,2.34,3.12-.99,3.36,3.13.14,2.35-1.06,3.7-2.01,5.67l4.07,2.72c-1.35.21-1.78-1.12-3.09-1.35-4.82-.86-7.94,7.52-13.87,5.43-.35,1.53.53,4.13,2.38,4.09.22,0,.98-3.76,1.69,1.33l-4.74-2.03ZM122.53,275.41c-9.96,1.83-12.37,4.67-7.13,13.58,3.56,6.05,11.92,11.51,19.15,8.96,3-1.06,5-3.71,3.52-6.87-5.04.87-11.69-1.45-15.29-5.06-2.38-2.38-2.73-5.99-5.65-7.56,1.04-1.82,2.26-1.35,3.7-1.74,1.05-.28,2.07.84,1.71-1.31ZM68.4,281.67c.54-.45,4.47-.69,5.29-2.53-3.36-3.77-7.55.56-11.51,2.04-1.72.65-4.38,1.66-5.95,2.19-4.53,1.52-9.7,2.67-14.41,3.57.02,3.76,2.72,5.92,6.35,4.77l.83-2.11c2.13.44,12.04-2.06,12.37-3.76l-.55-1.62c2.4.02.5,2.2,4.09,1.04,3.26-1.05,3.1-3.28,3.49-3.6ZM313.14,286.89c1.37.57,4.25-.68,3.98-2.24-.36-1.08-4.86-3.64-5.38-3.13l1.4,5.37ZM326.65,290.32l7.04,2.68c2.7-4.32,2.58-7.82-2.28-10.14l-4.76,7.45ZM258.84,283.56c-2.6-.54-.69,2.59-1.51,3.92-.21.33-1.47.35-1.79,1.24-.67,1.86.64,3.84.58,5.68l-2.72-1.7c-2.21-.77-.39,5.15-.61,6.83-.2,1.51-1.89,5.6-2.08,8.79-.34,5.5.23,11.11,0,16.61.81,1.07,1.24.02,1.36-1,.75-6.34.7-15,2.08-21,.73-3.18,3.33-6.94,3.86-10.39.46-3.01-.46-6.1.84-8.99ZM136.1,289.66l-1.02-5.42-4.4,4.41c1.3,1.69,3.58.89,5.41,1.02ZM331.4,299.84c9.02,11.09,16.01-3.37,12.26-12.61-.81-2.01-3.55-4.24-5.47-1.98l3.39,1.69-3.11.63c-.17,3.33-2.11,8.68.08,11.55.96,1.25,2.79.77,3.02,2.06l-10.17-1.34ZM246.63,286.27c-1.34.37-4.82-.87-5.42.66,1.34-.37,4.82.87,5.42-.66ZM109.68,303.89c-1.52-5.11-4.22-9.73-2.17-15.27-.3-2.31-5.64.71-6.38,3.05-1.35,4.27,2.27,12.59,5.13,16.02,1.8.91,6.28-2.65,7.45-4.11l-4.03.32ZM250.7,287.62c-18.54-.31-36.87,2.45-54.94,6.11-.89.9,7.25,20,7.83,23.04.09.49.35,5.44.27,5.71-.33,1.07-2.19.92-1.99,1.43l2.03,2.05,1.36-.7-5.44-28.48c1.11-.95,4.31-1.35,5.88-1.61,10.99-1.82,25.58-4.08,36.53-4.83,2.44-.17,5.12-.22,7.48.5l.99-3.22ZM119.14,295.76c-1.09-1.89-5.41-3.14-6.45-4.77-.46-.71.64-2.02-.68-2.68l-3.58,3.74c.01,1.01,7.18,6.7,3.27,6.43l-3.4-4.74c.02,2.74.39,6.11,2.38,8.14,1.53.35,5.78-6.67,8.46-6.12ZM344.98,301.89c-.08.06-.58,1.71-.4,2.02,5.21,4.95,7.58,1.57,9.84-3.65-1.72-.54-7.67-7-8.78-5.85l-.68,4.75h6.1c.42,2.27-.79,3.42-2.37,4.75-.28-1.4-2.52-2.94-3.71-2.01ZM192.87,297.31c-.65-.63-4.57-2.26-5.58-2.26-3.26,0-5.01,2.16-5.97,4.93-3.71,10.79,3.34,8.64,8.68,14.78,1.95,2.24,2.49,4.77,4.39,6.79-.51-2.25,2.17-3.15,2.6-4.55.6-1.97-2.71-18.29-4.13-19.69ZM229.68,297.12c-2.14-.49-10.9.62-11.27,3.02l.41,3.76-1.36-3.39c-1.66-.38-3.92,1.44-4.08,3.08.28,3.38,2.86,5.62,5.11,7.77l.62-1.28c4.57,1.26,6.71.35,6.65-4.67l3.81-1.92.11-6.38ZM235.64,299.29c-6.57-4.27-5.26-.41-5.28,5.29,2.31.49,3.03-1.89,4.74-2.71l-2.02,6.78c2.98-2.1,3.07-6.14,2.56-9.36ZM263.59,318.15c3.01-2.17,7.31-9.89,7.29-13.37,0-.42-2.48-5.09-2.91-5.61-2.85-3.49-11.81-1.2-9.82,4.73,1.37.15,3.18-.8,2.72,1.35-2.91.09-5.26,1.59-4.74,4.76l2.71-.33c-.26,1.54-1.51,3.12-1.35,4.71.12,1.19,3.25,6.33,4.73,5.12l.7-4.07.68,2.71ZM98.72,301.25c-1.16-.8-5.42,3.68-6.69,4.35l2.7,2.76c1.82-.87,5.78-2.25,5.31-4.62-.03-.14-1.2-2.41-1.32-2.49ZM205.27,310.01l3.39-1.71-1.7-2.34-1.69,4.05ZM243.24,311.37c1.62-6.35-6.48-6.71-3.9-.85l3.9.85ZM242.56,313.4l3.08-1.37-.38-3.37c-1.2-.08-.5,1.65-1.02,2.7-.39.79-1.53,1.15-1.68,2.04ZM211.24,310.17c-2.11-1.71-6.21,6.28,1.15,3.23l1.01-2.71-1.01,1.35c-.67-.38-.74-1.54-1.15-1.87ZM241.88,314.08c1.27-1.15-5.6-5.22-2.72-.32l2.72.32ZM225.21,323.83c-3.25,6.03-4.48,11.54.11,17.28,9.31,1.27,7.82-16.56,4-20.28-.57-.55-3.96-.11-5.08-.63l2.06,1.72c.5,1.8-.94,1.61-1.1,1.91ZM220.18,322.9c-8.05,1.31-4.7,12.72,0,16.28v-16.28ZM233.75,339.87c1.5-1.16,3.66-1.07,5.11-2,3.85-2.49,3.03-11.57-.71-14.28-.78,5.65-2.31,10.98-4.4,16.28ZM215.44,339.18l-4.06-10.85c.1,1.62-.38,2.48-1.95,2.81v.78c.25,1.11,4.82,8.41,6.02,7.25ZM204.58,329.01c-7.01-.6-9.13,5.54-7.46,11.53l-1.7-7.47c-5.71,3.62-9.16,11.79-3.75,17.33,6.05,6.2,8.57-.61,13.63-4.05,2.36-1.6,5.13-2.4,7.4-4.12-4.31-3.47-8.49-7.12-8.13-13.23ZM271.05,341.9c-.67-1.32-2.6-4.62-3.81-5.35-2.09-1.25-5.22-1.09-7.53-1.97-3.04-1.15-6.78-4.29-10.03-5.57l-1.35,2.02-2.37-1.35c-.55,4.08-2.68,8.19-5.38,11.29,3.95,6.11,10.68,10.24,17.59,12.17,1.39.39,2.78-.39,4.39.97l.28-1.7c1.35-.97,3.58-1.04,4.82-2.04,1.32-1.07,1.11-2.54,1.54-2.91.4-.34,1.54,0,1.75-.2.23-.23.21-4.49.1-5.37.89,1.76,2.06,3.18,1.02,5.41-.11.23-3.04,3.73-3.24,3.89-1.17.92-3.32.52-3.88,2.23,5.2,2.39,11.13-4.59,9.86-9.5-.36-1.39-4.34-7.61-5.46-8.12-.29-.13-1.11-.17-1,.33,1.73,1.67,2.43,3.44,2.71,5.77ZM177.27,339.4c.35.29.49,1.09.85,1.49l1.02.33c2.85-3.26,11.79-7.56,3.45-10.2-7.17-2.28-12.34.78-15.22,7.24-3.2,7.15-2.77,13.53,3.36,18.88,4.57,3.99,13.63,5.61,18.27,1.74-3.64-.51-7.78-6.74-8.67-10-.36-1.31.2-3.28-.29-4.13-.18-.32-1.47-.5-1.91-1.11-1.72-2.42-1.69-5.16-5.72-4.45-1.31.23-1.73,1.56-3.09,1.35,1.17-2.53,6.09-2.67,7.95-1.14ZM275.79,339.87c.45-.85-1.08-2.36-1.34-2.04-.45.85,1.08,2.36,1.34,2.04ZM234.42,345.3l-3.99.08c-2.39,3.91,1.88,7.01,5.06,4.72,2.84-2.05,1.07-6.24-.06-4.13l-1.68,4.08.67-4.75ZM222.9,349.36l1.38-.34-1.12-2.32-2.98.96c-.07.19,1.02.82,1.35,1.01-3.94-.42,2.01,5.43,2.05,3.04l-.69-2.36ZM199.16,364.97c-3.14-.75-4.39.75-7.46,1.37l4.75,6.77c-1.28,1.17-5.62-5.24-5.53-6.67l-6-.45c2.66,10.67,12.88,10.18,18.97,2.7.45-1.99-4.45-1.71-4.74-3.71,1.52.36,5.08,2.36,6.1,1.74l8.14-11.23c-3.49-.68-4.65,2.19-6.84,3.67-1.7,1.15-7.64,4.16-7.4,5.82ZM257.48,358.87l-4.77-1.07-2.01,5.13c2.81.43,6.33-1.05,6.78-4.06ZM240.52,379.22c-3.09-5.45-1.04-12.19-2.02-17.31-.18-.96-3.09-3.44-3.83-3.59-.48-.09-4.77,1.26-5.05,1.65-2.59,3.58-2.01,19.24-1.3,24-2.08-1.12-2.07-4.39-2.07-6.45.01-5.27,1.31-11.38,2.07-16.62-1.82,1.76-4.55,6-4.63,8.46l1.25,22.07c.95.62,1.91-6.11,2.69-3.07l-4.05,15.28,6.77-20.35-6.09,24.42c.22.3,4.23-3.89,4.06-1.03l-3.73,4.42c-2.05.43-1.8-3.54-1.69-4.75-1.65-2.4-4.04,14.74-4.09,15.91-.17,4.7,1.38,5.88,1.69,9.08.25,2.6-.61,5.03,0,8.28,1.26,6.61,8.4,10.94,8.94,16.02.23,2.14-.57,4.47.93,7.01.9.72,2.46-1.66,2.69-2.39.67-2.12-2.08.37-2.03-.67l2.11-7.05,1.98.29-2.04,4.4c1.47-.9,2.86-2.02,4.53-2.59,1.09-.38,1.09-1.38,2.23.22-8.51,6.07-11.85,18.28-13.9,28.15-2.81,13.56-4.78,36.02-2.96,49.8.81,6.17,3.02,12.05,4.37,18.03.35,1.53-1.32,3.6,1.29,4.51l5.11-.4-2.03,2.03c3.61.67,5.61-1.05,7.04-4.14,2.09-4.48-.05-7.97-.26-12.49-.4-8.76-.67-19.82-.03-28.51.07-.91.37-1.55.7-2.35-.8-.58-4.71,1.27-4.07-1.36l3.71.03,1.69-6.49c-.04-1.19-2.83.32-2.01-1.34.66-1.33,3.37-2.11,2.71-4.42l-1.92-.08c-.3-.84-.06-1.81-.45-2.63-.7-1.45-2.87-.69-2.37-2.72l4.73,2.71c2.76-11.73,11.66-19.95,7.96-32.72-.41-1.41-1.59-4.75-3.2-4.61l1.02-1.34,2.35,1.03-7.16-14.55c-2.82-3.22-6.56-5.82-7.83-10.14l-1.94-.09,1.35,2.7-6.1.68,4.75-4.73-6.1-2.05c-.78-2.54,5.39-1.14,6.26-.66s.81,1.85,1.87,2.03l1.52-11.04c3.99-9.68,3.75-20.32,5.23-30.05.41-2.68.21-5.41-1.46-7.62-1.62-.92-6.44,1.3-5.96-1.5l6.77.67ZM262.91,358.87c-3.71,0-5.79,2.98-8.14,5.41,3.61-.19,6.86-1.91,8.14-5.41ZM203.23,394.15c5.68,1.73,6-5.73,6.6-10.03s2.01-9.33-2.19-12.36l-4.41,22.39ZM245.95,425.36c.23-5.58,2.83-11.3,3.31-16.71.72-8.13-3.17-19.47-4.59-27.81-.55-3.22,1.29-7.56-3.46-8.41-.78,4.17,1.38,8.63,1.41,12.55.05,7.49-.93,10.36.57,18.37.24,1.3-.24,2.97,0,3.95.21.83,2.66.26,2.76,1.76-.88.1-2.18-.43-2.79.41-1.18,1.6-3.68,14.19-2.64,15.21l5.42.68ZM275.93,480.86l4.28,2.16c.99-.02,1.96-.91,2.24-1.83.51-1.69-1-11.48-1.57-13.77-4.86-19.55-28.34-44.22-28.87-64.11-.19-7.19,4.59-18.51-2.93-23.38l-1.74,2.91c.66,7.02,2.86,14.97,3.36,21.83,1.31,18.05,1.29,25.04,8.7,42.17,1.54,3.57,12.1,25.72,14.03,26.68,2.95-.5-1.5-4.82-1.7-6.1,2.81-2.77,4.6,12.39,4.21,13.43ZM195.78,530.52c1.41-5.93-.59-12.63-.71-18.62-.55-28,3.82-64.77,13.57-90.97,3.11-8.36,8.43-16.41,10.57-25.39.39-1.66,1.87-10.08,1.69-11.21-.4-2.38-4.98-3.32-6.48-1.75-.37.39-.23,6.28-.49,7.67-2.89,15.42-13.59,29.52-17.96,43.1-7.77,24.12-13.98,53.09-11.33,78.27,1.47,13.95,5.85,26.94,9.75,40.31,1.21,3.86,7.27,3.07,6.81-1.05-1.34-.03-2.42.54-2.03-1.36l3.38-.34-5.43-20.02-1.34,1.35ZM207.3,394.83c-4.62-.46-6.56,3.55-7.45,7.46,5.31-.27,7.53-1.9,7.45-7.46ZM204.59,402.97c-7.05-1.44-8.06,6.75-10.73,11.31-1.57,2.68-3.79,4.9-5.24,7.65-1.29,2.45-7.36,20.81-6.41,21.73l4.4.03c4.39-14.19,10.2-28.07,17.98-40.72ZM182.89,491.85v-9.84c0-6.55,8.91-38.88,11.34-47.01.73-2.44,1.88-5.61,2.98-7.87.3-.6,7.51-11.37,5.01-10.59-1.6.97-2.54,1.57-3.56,3.22-1.86,3-4.74,11.19-6.12,14.91-6.22,16.86-10.64,34.75-11.06,52.76-.02.87.25,4.14,1.41,4.41ZM251.39,451.82c2.63-1.81,3.02-6.13,2.65-9.1-.53-4.27-3.59-14.85-4.9-19.53-.19-.7-.17-2.05-1.14-1.89.2,2.71-.34,5.76.05,8.42.32,2.18,1.82,3.55,2.02,5.47.34,3.23-1.29,6.92-.68,10.83.3,1.91,1.89,3.76,2,5.81ZM219.51,471.5c5.17-.83,10.19.63,10.19-6.45,0-1.95-1.4-4.29-1.89-6.26-.36-1.44.06-2.98-.32-4.43-.52-1.98-5.17-6.42-6.5-9.1-2.36-4.77-2.35-8.85-2.19-14.09l-1.99-6.48c-2.67,7.51-3.49,16.11-2.72,24.08.72,7.41,5.6,14.96,5.42,22.74ZM272.4,489.13c-2.36-15.62-16.95-23.5-22.5-37.53-.76-1.92-1.69-4.18-1.91-6.22-.34-3.17,1.2-9.29.33-11.19-.67-1.45-5.61-5.32-7.07-4.05-1.57,6.3,3.59,12.6,5.97,18.04,4.69,10.73,3.08,12.93,4.18,23.64.79,7.69,5.93,13.15,8.92,20.25,5.17,12.28,4.02,14.71,2,27.34-.31,1.93.22,4.01-.21,5.89-.41,1.78-2.55,2.47-1.22,4.54l-1.69-1.35c-3.98,4.31-8.79,23.19,2.2,18.48,3.7-1.58,3.25-8.64,4.59-12.36,5.31-14.74,9.51-22.82,7.77-39.7-.42-4.04-.96-6.07-5.41-5.43l4.06-.34ZM185.58,445.05l-3.75-.11-2.34,6.87,4.72.67,1.37-7.43ZM197.81,486.42c2.68-1.51,4.08-4.34,6.07-6.47,1.62-1.74,4.64-2.55,5.31-5.54,2.1-9.32-2.91-17.75-3.93-26.65-.99.37-1.41,3.02-1.7,4.06-3.07,11.09-4.16,23.2-5.75,34.61ZM183.5,453.24c-4.06-1.06-4-1.33-5.16,2.52-2.87,9.52-3.34,21.12-3.6,31-.06,2.35-1.43,4.46.01,7.13,1.72-1.22,3.13-2.33,5.42-2.04-2.57-13.12,1.17-25.8,3.32-38.61ZM273.07,485.06c-.29-11.39-9.33-19.65-13.21-29.85-1.46,1.54-2.85,4.94-2.26,6.97.24.82,6.66,7.39,7.91,9.09,1.64,2.22,3.01,4.69,4.55,6.98l3.02,6.81ZM216.12,474.21c-3.69,1.11-8.72,2.96-10.69,6.6-2.75,5.06-6.44,17.98-6.34,23.61.04,1.96,1.09,2.61,1.22,3.49.21,1.37-1.02,3.91-.46,5.65,4.98-4.33,9.8-8.64,15.94-11.53,1.04-1.12-3.25-.96-.68-2.71,1.43-.36,1.37,2.01,2.08,2.05.83.05,2.96-1.03,4.25-.8l5.52-28.39c-3.66.13-7.63,1.07-10.85,2.03.16-.09,1.44-.22,1.35.34l-2.02,1.7c-.19-.51.44-1.9.67-2.04ZM281.9,483.71l-4.74-.68c-1.11,3.77-1.92,8.28,3.36,8.13l1.38-7.45ZM258.16,507.45c-1.66-6.46-3.38-13-5.4-19.35-.28-.89-.02-2.11-1.37-2.35-1.49,5.17-3.12,10.41-3.34,15.85l10.11,5.86ZM281.22,491.85c-1.41,0-4.41-.11-5.44-1.01-1.23-1.08.07-3.02-1.34-3.06-1.13,2.79.53,5.7.66,8.49.19,4.14-.19,8.33.09,12.46l3.99.76,2.04-17.64ZM180.82,499.96c1.86-12.39-8.02-5.47-6.06,2.29.13.53,1.35.43,1.36.84.02.76-.75,1.64-.55,3.14.94,7.33,4.81,17.66,10.71,22.26-1.93-8.48-2.85-17.11-3.39-25.79l-1.34.69-1.02-2.7-3.74,1.33c.66-1.81,2.31-2.12,4.03-2.06ZM260.87,518.32c-1.54-.06-4.86,3.93-4.62,4.98l1.57,1.8c.84-2.35,3.2-4.1,3.04-6.78ZM256.12,527.81c.18-.2-1.04-4.06-2.02-4.06-.39.8.68,5.56,2.02,4.06ZM201.86,533.91c1.76-2.65,1.41-5.38-2.02-6.1-.36.78.12,7.74,2.02,6.1ZM250.71,544.78c-4.13,6.64,8.08,15.07,11.18,8.14,1.81-4.06-2.35-1.57-3.38-1.65-1.11-.09-5.71-2.43-6.39-3.51s-.26-2.91-1.42-2.98ZM112.36,573.27c.83-2.38,2.05-2.96,2.08-3.16.47-2.63-2.96-7.2-2.15-9.67-3.02-.68-5.04-2.62-7.06-4.81-1.64-.29-1.14,1.23-.67,2.03.73,1.25,5.91,5.67,5.75,6.41-3.85,3.2-3.97,6.99-9.47,4.78-4.05-1.63-3.88-3.69-5.48-7.41.02-.38,4.81-2.37,4.84-5.45l-2.07-5.79c1.99,4.53-6.38,10.61-6.67,12.68-.15,1.05,1.35,1.9,1.63,2.9.33,1.19-.69,3.23.29,4.78l2.02-.68c-2.58,6.28,12.05,10.42,15.63,7.83.71-1.46.76-2.82,1.33-4.44-.24,1.96-.03,3.96,2.02,4.75l2.71-3.73-3.15-2.31c-.5-.46-1.57,1.19-1.59,1.29ZM199.31,559.17c3.98,1.63,6.07-4.13,3.58-6.93,1.19,5.37-3.95,7.18-8.47,5.43-.48,2.16,2.74,1.72,3.87,2.65l1.02-1.15ZM104.4,553.58c0-.46-.37-.84-.84-.84s-.84.38-.84.84.37.84.84.84.84-.38.84-.84ZM339.54,560.72v11.2c5.37-.5,10.68-1.69,15.76-3.57,1.56-.58,2.69-2.32,5.27-1.87-.54-.82.09-2.53-.04-2.95-.17-.55-1.33-.37-1.34-.77-.04-1.52,3.8-4.58-.12-8.33l-3.93-.14c-.08,1.27,1.68.4,2.71,1,6.28,3.66-10.78,11.52-13.45,7.35-2.31-3.61,1.82-4.19,3.97-5.97.72-.6,1.3-1.43,2.01-2.06-2.35-.99-10.29,4.14-10.85,6.11ZM345.75,562.31l5.35-.21.47-.67c-.6-1.12-.92-4.15.53-4.44s5.04,4.18,5.74.35c-6.13-5.58-7.18,1.18-12.87,2.4l.78,2.57ZM101.51,568.52c3.59.71,4.55-1.38,5.41-4.43l-4.74-7.78-4.73,5.77,1.1,1.64,4.99-.63c-.03.96.19,2.06-.09,2.97-.4,1.28-2.52.48-1.94,2.45ZM259.52,558.36c-2.45-.19-4.34-2.46-6.77-1.35l.67,4.73c2.48-.84,3.37.16,5.41,1.35l.69-4.74ZM193.74,559.7c.95,6.99,11.96,5.56,10.84-2.03-1.1.12-.93,1.54-2.03,2.37-3.48,2.63-8.36-.82-8.81-.33ZM237.82,557.67c-1.64-.32-3.15,1.07-4.57,1.21-1.75.18-4.61-2.12-4.26-.2,1.09,5.97,7.78,3.83,8.82-1.01ZM239.86,561.74c.35,5.58-8.11,8.21-10.9,3.77-1.02-1.61-.26-4.29-1.98-5.13-4.17,10.45,12.09,14.27,13.57,3.74.09-.66.43-2.58-.69-2.38ZM258.1,563.83l-4-.73,2.04,5.42,1.52-.84.44-3.85ZM202.55,569.88c-1.73-.7-2.98,3.7-2.71,4.05l2.71.69v-4.74ZM238.49,573.28l-9.49-.68,3.81,6.03c1.76.46,4.44-4.13,5.68-5.35ZM344.28,574.61c.46-.86-3.14-2.38-4.35-2.07l-1.06,3.44c2.65.48,3.43-.17,5.42-1.37ZM231.72,580.05l4.36,2.04c1.23-.26,2.7-5.4,2.41-6.78-1.78.59-2.6,3.81-4.07,4.44-1.21.52-2.73-1.15-2.69.3ZM120.78,578.42c-1.18-1.21-1.87-3.63-4.36-2.12-4.69,2.86,2.44,16.83,6.79,18.68.57-3.37,2.71-5.36,5.42-7.12-3.33-2.58-4.98-6.5-7.85-9.44ZM334.11,588.2c1.5,1.05,3.32,1.03,3.4,4.07,1.18.92,5.41-13.56,4.1-15.28-4.21-2.47-8.42,7.03-10.21,9.85,1.68-.41,2.06.9,2.72,1.37-2.56-1.6-5.12.67-5.42,3.39,3.95-.75,4.94,3.23,8.13,4.07,1.68-1.31-1.38-6.63-2.71-7.46ZM132.7,592.26c-2.68-7.07-8-1.13-8.81,3.72l1.69,1.04c1.8-2.79,3.5-4.77,7.13-4.76ZM324.7,597.62l7.03,5.5c5.51-4.82,4.05-9.04-2.67-10.87-1.57.44-5.26,3.82-4.35,5.37ZM136.77,605.84c.69-3.33,4.02-6.26,1.97-9.76-3.95-6.73-14.16-.71-11.82,2.97l9.85,6.79ZM290.71,597.7c-5.74-3.33-9.7,1.03-13.23,5.41-1.68,2.09-5.09,7.02-2.37,8.83.67-6.02,7.74-8.73,9.51-14.24h1.34s-.67,2.03-.67,2.03l5.42-2.03ZM334.78,641.12c.37-2.23,1.46-3.22,1.39-5.73-.17-6.09-2.14-20.98-3.89-26.7-1.48-4.85-5.21-9.88-10.38-10.98,7.73,9.6,11,21.2,10.94,33.49l1.94,9.92ZM283.25,606.52c.99-1.68,1.66-3.95,4.39-4,3.08-.06,3.93,2.5,5.77,3.58.45.26,2.47-.21,3.4,1.1-1.09-9.91-11.73-9.69-16.13-1.56-1.02,1.89-1.87,3.32-1.49,5.63.08.12,1.04-.48,1.35-.68-2.61,5.77-2.31,8.79-1.05,14.96.15.75,2.66,10.71,4.44,8.78l3.4-10.85c1.16-.03.77,3.05.7,3.75-.33,3.16-1.93,5.23-.7,8.45l5.41-8.82c-1.18,5.07-6.29,8.84-3.38,14.24l2.02-2.7c2.57,4.82,4.64,12.05,11.54,10.85-1.21,6.37,1.38,13.47,1.41,19.34.01,2.32-.98,4.43-.78,6.78.11,1.27,1.7,4.04,1.39,4.41-.97,1.15-1.49-.84-1.76-1.27-1.75-2.78-2.14-6.33-2.31-9.59-3.57-.75-6.93,16.8-9.48,14.24v-3.38c.22,1.4-1.62,1.56-1.92,2.47-1,2.98,1.39,7.43,1.92,10.42-1.04-.53-1.93-2.98-2.36-4.08-.53-1.36-.64-2.51-1.01-3.75-.23-.75.47-1.21-1.02-.99-1.78,2.5-10.04,7.81-10.23,10.49-.23,3.19,3.15,7.41,3.77,10.53l-4.4-9.49c-3.07,3.71-2.39,11.05,1.35,14.23l4.05-3.88c5.52,4.24,10.2-1.09,14.57-2.58,7.49-2.55,6.5-.71,12.58-7.09,5.27-5.53,14.13-15.63,17.24-22.24,2.73-5.8,2.46-18.15-.02-24.17-2.84-6.88-11.63-14.91-16.09-21.22-.99-1.39-3.32-6.54-3.68-6.83-1.44-1.19-6.04-.76-7.96-.86,0-1.17,3.01-.77,3.77-.71,1.36.1,2.4.6,3.69.71-.96-1.33-3.47-8.92-4.21-9.38-.55-.34-1.68.12-2.4-.28-1.36-.78-3.25-1.98-4.88-2.93-4.46-2.62-4.17-7.95-10.9-1.65ZM199.16,607.2c-1.68-4.9-9.73-8.74-14.23-5.76,5.61-.1,9.81,2.66,14.23,5.76ZM178.82,603.12l-1.35-1.35v1.35s1.35,0,1.35,0ZM185.6,605.16c-.48.15-1.38-.34-1.36.34-.05.54,1.04.42,1.36.34-1.01.19-6.21,5.02-7.17,6.07-.89.98-.75,2.21-1.08,2.63-.07.08-.99-.47-1.93.39-2.65,2.42-4.51,5.95-7.46,8.22l1.35,1.01-2.4-.07c-4.28,6.14-12.96,14.09-9.83,22.09l-2,1.07,1.38,1.65c-.16,1.49-1.6,2.82-1.91,4.26-.38,1.78-1.55,9.09-1.55,10.71,0,1.35,1.24,8.83,1.74,9.85.15.31.88.86,1.02.67.05-1.89-.12-3.79.09-5.68.09-.8.3-3.72,1.26-3.81.15,6.36,2.18,11.96,4.76,17.63l1.34-2.71c-.81,4.34,1.54,6.71,3.46,10.12l1.97-.62c.35,1.19-1.63.33-1.35,1.01.58,1.42,3.41,1.34,3.91,1.85.25.25,1.63,4.94,2.59,6.57,2.32,3.97,9.86,11.35,14.48,11.98,1.72.23,3.63-.76,5.46-.38l-3.38,1.34c2.74.31,6.51,2.27,9.16,2.1,3.9-.24,9.13-8.66,9.2-12.62.06-3.24-.38-9.15-4.12-9.83v2.71c-2.03-4.76-6.45-7.82-9.84-11.53l-1.01,1.35c-.51-4.71-4.78-7.6-6.91-11.75-1.69-3.3-2.77-7.92-4.37-11.24-1.05-2.18-3.75-4.77-3.32-6.86l3.06,2.37c-.5-2.82-1.46-5.02-3.4-7.11,1.07-.97,3.65,2.88,3.4,4.06l2.06-1.74c-2.09-3.14-2.26-6.13-2.75-9.79,5.18.21,9.6-4.25,13.55-7.13l-3.38-4.41c2.43-.78,5.76,4.84,7.34,2.57.15-.21,1.44-4.73,1.46-4.99.23-3.04-3.84-5.51,1.41-6.82,1.88-9.65-6.57-18.86-16.32-15.87ZM134.74,613.31c-1.76-.35-1.18.38-1.7,1.32-4.81,8.8-4.21,32.86-2.99,43.05.55,4.58,3.35,5.76,7.4,7.18-5.34-16.64-4.69-34.4-2.72-51.56ZM323.95,630.27c-.14,2.22-1.82,4.98.33,6.77,1.53-.98.75-1.54.69-2.7-.04-.77-.11-3.99-1.02-4.06ZM151.69,639.77c-.85-.45-2.36,1.09-2.03,1.34.85.45,2.36-1.09,2.03-1.34ZM206.62,649.94l-.66-6.78c-.51,2.05-1.81,5.52.66,6.78ZM204.46,658.66l-.89-1.92-1.7.66.69,4.07c1.55-.22-.38-2.93,1.9-2.81ZM205.95,666.22l-1.37-6.78c-1.23-.12-.7,2.27-.6,2.97.45,3.16,1.19,6.56,4.35,7.88l.66-1.36c3.61,5.06,8.69,8.19,14.58,10.17l-8.79-8.5-7.82-11.17c-.93,1.54,2.25,7.05-1,6.78ZM278.99,669.43c.38-.48,2.51-6.71,2.75-7.77.15-.67.67-2.39-.52-2.21l-7.12,9.5-11.87,11.52c2.1-.53,4.47-1.72,6.32-2.83,2.08-1.25,9.11-6.54,10.44-8.21ZM207.29,675.05c.99-1.06-5.72-5.72-6.77-6.11-1.15,1.23,5.63,5.88,6.77,6.11ZM277.82,673.01c-1.03-.93-6.75,4.18-8.19,5.03-2.03,1.2-4.19,2.14-6.27,3.23l-8.6,2.58,7.45.69-2.71,2.7c7.61-.56,13.38-5.09,18.3-10.52l-1.35-1.34,1.35-2.37ZM279.18,675.04v-1.35h-.66v1.35h.66ZM255.44,686.59c-2.18.1-4.92-2.37-6.58-2.59-1.29-.17-2.98.64-4.59.61-3.06-.07-6.15-.26-9.16-.73.19,1.17,1.35,1.18,2.19,1.54,3.58,1.51,10.49,2.5,14.39,2.55.63,0,3.72-.35,3.76-1.37ZM219.97,706.47c-1.23-2.29-4.75-5.14-6.2-7.01-1.32-1.71-1.61-5.35-4.43-5.4-.2,1.58,1.93,2.82,1.93,3.01.03,2.75-1.4,8.25-2.73,10.77s-3.64,4.27-5.3,6.56c2.63.28,11.65,1.46,13.43-.12.81-.71.06-5,4.2-3.95-.34-1.16-.37-2.87-.9-3.86ZM274.43,694.73c-5.19,2.46-10.58,3.8-9.5,10.85-1.99-.66.5-5.46,0-6.1-2.88,1.12-4.87,1-4.75,4.75l-.68-2.71c-2.04.9-4.26,1-6.43,1.38-.66.11-2.32-.46-1.7.99.14.32,2.67,3.24,3.15,3.64,6.07,5.1,13.9,4.73,21.26,3.49-.7-2.74-2.35-4.02-2.71-7.12-.39-3.4.1-6.07,1.35-9.16ZM231.52,708.37l-5.9,5.69c7.13,3.86,15.48,7.94,20.31-1.36-.06-.98-6.53-1.05-8-1.48-1.77-.52-5.36-3.12-6.42-2.85ZM285.93,733.37l1.39-3.68-3.39-1.04c.24,2.43-1.88,5.15,2,4.72ZM201.19,736.11c.65-.67-1.21-6.61-3.38-6.1-.17,2.83-.5,6.37,3.38,6.1ZM249.35,734.75c1.56-.77,2.83-2.98,1.01-4.06-1.39.96-1.04,2.51-1.01,4.06ZM233.74,740.86c.11-3.46,2.14-7.09-2.71-8.14.28,2.43.96,4.67,1.37,7.11.19,1.14-.42,1.16,1.33,1.03ZM241.2,738.82c-1.76-1.91-2.01,5.54-.33,6.1,1.28-1.92.72-4.04.33-6.1ZM249.19,746.44l-4.58-3.54c-1.94,1.62,1.21,8.85,2.1,9.43.39.25,1.36-.02,1.96.07l.53-5.96Z"/>
  <path d="M184.92,120.71c-.53-.78-.78-1.05-1.36-2.04.18.33.92,1.32,1.36,2.04Z"/>
  <path d="M186.28,122.75c-.84-1.03-.84-1.27-1.36-2.04.34.57.8,1.07,1.36,2.04Z"/>
  <path d="M187.63,124.78c-1.33-1.18-1.01-1.62-1.36-2.04.28.49.73.79,1.36,2.04Z"/>
  <path d="M374.8,279.48c-1.42-.5-1.44-.4-2.71-1.36,1.71.66,1.42.62,2.71,1.36Z"/>
  <path d="M377.51,278.8l7.79,3.4,1.7-2.72-.68,4.07c-2.84-.88-5.33-2.37-8.13-3.39-.27-.27-.39-1.09-.68-1.36Z"/>
  <path d="M376.16,280.16c-.63-.21-1.04-.57-1.36-.68.4.23.86.37,1.36.68Z"/>
  <path d="M176.78,542.06c.52-.36,1.66-1.26,2.03-.34-.73,1.45-3.51,4.02-4.07,5.09.34-.77.33-1.94.68-2.71.71-.9.72-.37,1.36-2.04Z"/>
  <path d="M222.9,349.36h-1.01c-.2-.09-.18-.58-.34-.68.65.07,1.39-.25,1.36.68Z"/>
  <path d="M185.6,605.16c1.75-.13,3.98-.13,5.43,1.02-1.7.63-3.53-.7-5.43-.34.04-.01-.03-.68,0-.68Z"/>
  <path d="M280.54,610.59c1.12-2.47.57-2.06,2.71-4.07-.92,1.56-.72,2.74-2.71,4.07Z"/>
  <path d="M222.7,593.14c.82.8.95,2.95,2.93,3.68-.46,2.14.46,4.15.6,6.04.93,12.37,1.51,17.92-.54,30.53-.41,2.55.83,5.73-1.09,7.73l-3.81-13.48-2.3-.77c-.69.94.12,1.72-1.68,1.36-1.7-7.93-1.88-17.31-1.39-25.47.29-4.75.59-16.18,7.29-9.62ZM224.93,602.45c-1.36-.31-1.8,1.3-3.04,1.34s-3.85-2.81-3.73-.34c1.86,2.74,5.99,2.26,6.77-1ZM224.93,605.16l-5.41,1.68c.58,1.89,2.15,2.13,3.73,2.96,1.47-1.05,1.81-2.95,1.68-4.64ZM223.58,611.95h-4.08s.05,1.98.05,1.98l4.02.73v-2.71ZM224.25,621.44v-6.1s-3.39.68-3.39.68c.53,1.4,1.37,5.63,3.39,5.42Z"/>
  <path d="M240.52,656.05l-2.69,2.71c-.36-2.19-1.89-3.88-2.54-5.95-1.64-5.23-2.83-16.79-2.22-22.14.77-6.69,11.41-3.44,12.18.63-.87,5.42,1.47,11.84.73,16.98-.22,1.52-1.19,2.32-1.36,3.39-.41,2.66.51,6.28-.13,8.69-.82,3.14-4.26-3.25-3.99-4.32ZM243.91,632.3v-1.35h-.66v1.35h.66ZM236.47,638.41c-2.01,1.89,8.21,4.04,6.77-.68-2.25,1.58-4.38,2.49-6.77.68ZM237.82,648.58c.98.69,4-3.03,4.69-3.82-2.37-5.75-7.11-.78-4.69,3.82ZM242.56,646.55l-2.02,1.71,1.02,1.68,1.62-1-.62-2.39Z"/>
  <path d="M257.47,632.98c-2.22-.48-.94-4.12-1.35-4.75l-2.36,1.36-1.02-1.36c-.75,1.66-.12,4.57-2.04,5.42.31-2.21-.58-4.27-.71-6.42-.46-7.53-.92-23.45.09-30.5.53-3.67,2.01-5.63,5.75-5.64,2.41.45,1.49,13.83,1.66,16.44.24,3.57,1.38,7.99,1.39,11.52,0,4.15-.95,9.7-1.4,13.93ZM254.77,599.05c-.01-2.49-2.02-2.49-2.03,0h2.03ZM255.44,600.41h-2.03c.01,2.49,2.02,2.49,2.03,0ZM254.09,603.8c.33-.26-1.18-1.8-2.03-1.34-.33.26,1.18,1.8,2.03,1.34ZM255.44,608.55l1.36-4.75-3.34,1.41c-.29.86.6,4.47,1.99,3.34ZM253.42,619.41c2.69-1.93,3.49-9.89-.68-10.17l.68,10.17Z"/>
  <path d="M152.36,605.83c-1.04.11-.96-1.8-1.13-2.59-1.18-5.42-1.13-9.68.1-15.07l2.39-5.4c-2.28,7.72-3.52,15.13-1.36,23.06Z"/>
  <path d="M178.81,644.51l-5.17-6.02-5.67-1.44c5.22-.76,9.87,2.18,10.84,7.46Z"/>
  <path d="M180.85,660.8l-7.45-4.75c1.22-.29,8.93,3.2,7.45,4.75Z"/>
  <path d="M200.51,700.82c-1.27.08-.07-2.26,0-3.05.11-1.02-.61-3.65.67-3.73l.04,3.08-.72,3.7Z"/>
  <rect x="167.85" y="666.07" width="4.3" height=".98" transform="translate(-419.37 311.81) rotate(-44.65)"/>
  <path d="M167.29,637.74l-4.74,4.06c-.89-1,3.51-4.27,4.74-4.06Z"/>
  <path d="M197.8,618.05l-2.02-6.78c.77.07,1.54,2.78,1.68,3.39.27,1.15.53,2.19.34,3.39Z"/>
  <polygon points="165.93 630.26 164.58 629.24 165.6 627.55 165.93 630.26"/>
  <path d="M201.87,706.26c-1.63,2.05-4.99,3.27-7.45,4.06l7.45-4.06Z"/>
  <rect x="163.23" y="677.08" width=".66" height="2.03"/>
  <polygon points="178.14 647.23 177.8 648.58 176.78 647.23 178.14 647.23"/>
  <rect x="164.58" y="630.95" width=".66" height="1.35"/>
  <rect x="159.84" y="644.52" width=".66" height="1.35"/>
  <path d="M178.14,660.8c-1.02,1.38-3.8,2.26-5.42,2.7,1.01-1.37,3.8-2.26,5.42-2.7Z"/>
  <rect x="167.3" y="668.94" width=".66" height="1.35"/>
  <rect x="162.45" y="673.18" width="5.66" height=".89" transform="translate(-518.54 557.57) rotate(-66.58)"/>
  <rect x="199.85" y="692.01" width=".66" height="1.35"/>
  <path d="M207.29,701.5c-.09.09-.44-.03-.66,0,.18-1.03.36-2.89,1.34-2.71.1.23-.59,2.6-.68,2.7Z"/>
  <path d="M245.74,458.82c3.11,2.85,1.48,10.91.89,14.71-1.13-.03-1.47.44-1.22-.88.77-4.16,2.64-10.14-1.15-13.37l-.62,1.3-3.78-.63,2.7-1.34h-4.06c-.28-1.83.32-1.36,1.71-1.39,1.75-.05,4.22.39,5.53,1.6Z"/>
  <path d="M229,449.1c-.91.92-4.53-4.16-4.89-4.94-.72-1.57-2.21-6.47-.87-7.94.49,1.53.3,2.97.85,4.57.49,1.42,5.25,7.97,4.9,8.32Z"/>
  <rect x="220.53" y="527.47" width="8.14" height=".68" transform="translate(-303.28 752.27) rotate(-89.99)"/>
  <polygon points="236.46 403.65 235.51 404.94 231.04 402.97 236.46 403.65"/>
  <path d="M233.07,436.22l-3.06,1.34-1.68,5.44c-.9-3.56.44-7.81,4.74-6.77Z"/>
  <polygon points="233.75 551.57 232.05 552.95 230.36 551.89 233.75 551.57"/>
  <path d="M223.57,420.6h-1.35c-.16-1.25-.03-1.98,1.02-2.71l.33,2.71Z"/>
  <polygon points="223.57 415.18 223.57 416.53 221.54 416.53 222.57 415.19 223.57 415.18"/>
  <polygon points="237.13 367.01 237.13 368.36 236.13 368.36 235.11 367.34 237.13 367.01"/>
  <rect x="232.39" y="548.17" width="2.03" height=".66"/>
  <rect x="235.11" y="362.26" width="2.03" height=".66"/>
  <rect x="230.36" y="450.47" width="1.35" height=".66"/>
  <rect x="234.43" y="514.24" width=".66" height="1.35"/>
  <rect x="226.29" y="540.71" width="1.35" height=".66"/>
  <rect x="301.56" y="692.02" width="2.71" height=".66"/>
  <rect x="293.43" y="624.84" width=".66" height="1.35"/>
  <path d="M293.42,686.58c-.35.77-1.5-1.88-1.34-2.71.35-.77,1.5,1.88,1.34,2.71Z"/>
  <path d="M300.2,691.34c.09.09-.03.45,0,.66-1.03-.18-2.89-.36-2.7-1.35.23-.1,2.6.59,2.7.68Z"/>
  <path d="M192.38,54.22c1.1.83-.01,1.23-1,1.35-5.94.76-13.27-.39-19.33,1.35l2.43-1.29,17.91-1.41Z"/>
  <polygon points="170.68 134.96 170.67 138.35 170.01 138.35 169.33 134.96 170.68 134.96"/>
  <polygon points="199.84 56.26 199.84 56.92 197.81 56.93 197.81 55.57 199.84 56.26"/>
  <rect x="172.72" y="135.64" width=".66" height="1.35"/>
  <path d="M195.09,474.88c.23-.19-.52-1.64.68-1.35-.02,1.46.11,2.94,0,4.4-.07.9-.33,4.1-1.34,4.41-.83-2.23.76-4.85-.63-7.01-.86-1.33-3.23-.37-3.44-1.8,1.47-.89,4.11,1.85,4.74,1.34Z"/>
  <path d="M224.25,122.74c-2.19.12-2.81-2.74-4.55-3.25-3.36-.98-10,.43-13.92-1l-5.26-1.85c6.23,1.34,12.58,2.37,18.98,2.02.28-.2-2.56-3.15-.69-3.38l5.43,7.45Z"/>
  <path d="M187.15,108.99c.45.57,2.05.94,2.51,1.89-1.15.87-3.82-2.27-4.75-3.39-3.26-3.98-7.01-9.98-6.77-15.26.95-.16.99,1.2,1.16,1.88.49,2.03.28,3.34,1.28,5.51,1.19,2.57,3.64,4.08,5.31,6.23.65.84.55,2.25,1.26,3.15Z"/>
  <rect x="223.88" y="116.82" width="1.22" height="4.83" transform="translate(-29.48 108.69) rotate(-25.6)"/>
  <rect x="194.57" y="109.14" width=".92" height="10.19" transform="translate(9.05 242.67) rotate(-64.99)"/>
  <path d="M217.47,281.51l-6.1,1.37c-.7,2.76,3.08.22,3.39,2.02-4.56-.09-9.19-.13-13.55,1.36-.34-2.05.49-1.09,1.64-1.37,1.93-.47,4.49-.34,6-.81s4.19-2.69,6.83-3.37c1.05-.27,1.25-.83,1.8.79Z"/>
  <polygon points="239.84 279.48 241.21 282.86 239.19 282.38 238.49 279.49 239.84 279.48"/>
  <polygon points="247.31 275.41 247.31 276.76 245.28 276.76 246.3 275.41 247.31 275.41"/>
  <rect x="218.15" y="278.13" width="2.71" height=".66"/>
  <rect x="235.79" y="280.16" width="2.03" height=".66"/>
  <rect x="241.89" y="279.49" width="1.35" height=".66"/>
  <path d="M203.9,74.57l-.33,2.71-3.05-4.07c1.28.56,1.79,2.37,3.38,1.36Z"/>
  <path d="M212.05,71.86l-.67,6.09c-.29-1.66-2.78-6.04.67-6.09Z"/>
  <rect x="245.8" y="73.1" width=".98" height="4.3" transform="translate(18.19 194.79) rotate(-44.65)"/>
  <path d="M205.94,75.25c-.26.33-1.79-1.19-1.34-2.04.26-.33,1.79,1.19,1.34,2.04Z"/>
  <path d="M223.57,76.6h-.66c-.32-.92.95-4.26,1.34-3.38l-.68,3.38Z"/>
  <rect x="224.94" y="70.5" width=".66" height="1.35"/>
  <rect x="222.23" y="77.29" width=".66" height="1.35"/>
  <path d="M262.9,541.39l-2.02,1.69,2.02,1.03c-1.39,3.7-7.73,1.82-7.12-1.37l5.09,2.71-2.71-4.06h4.74Z"/>
  <path d="M260.87,469.47l-4.74,3.39c.53-2.86,1.81-4,4.74-3.39Z"/>
  <path d="M265.61,496.6c-1.86-1.14.62-5.45,2.04-6.1l-2.04,6.1Z"/>
  <path d="M269.01,514.91l-3.39-.68v-.66c1.27-.1,2.98-.19,3.39,1.34Z"/>
  <polygon points="262.91 539.34 261.55 539.34 261.56 537.99 262.91 539.34"/>
  <path d="M247.31,149.88c-.3,4.67,2.59,8.66,1.35,13.58-1.03.16-2.11-.6-3.05-.55-16.69.97-39.08,2.24-55.57.51-1.05-.11-2-.61-2.76-1.33-.65,1,.09,1.71-1.68,1.36v-5.42s-2.72.67-2.72.67l.68-7.45c1.94.59-.92,5.44,2.02,4.74l.1-4.31,1.6-1.11,60.02-.68ZM195.09,160.74h37.3l.34-3.4.34,3.4h12.88l-.68-6.11c-1.79,1.01-2.82-.56-5.04-.72-12.57-.94-28.09.02-40.71.76-2.29.13-10.48-.89-11.12,1.08l-.1,5.68,6.01-.78.1-3.3c2.82-.7,0,2.76.67,3.39Z"/>
  <path d="M272.4,91.52l-6.1.7,1.35,2.71-4.06-3.06c1.25-.89,8.15.47,8.12-1.35l-5.41-4.4c1.74.02,7.23,3.69,6.1,5.41Z"/>
  <rect x="266.98" y="98.33" width="2.71" height=".66"/>
  <path d="M272.4,70.49c-.85.45-2.36-1.09-2.03-1.34.85-.45,2.36,1.09,2.03,1.34Z"/>
  <rect x="258.84" y="75.94" width="2.03" height=".66"/>
  <path d="M277.16,467.42c-1.54-7.03-6.92-12.43-10.3-18.54-2.98-5.39-7.28-13.4-9.5-18.99-1.72-4.33-3.22-9.38-3.26-14.03l5.76,17.63c3.96,8.1,9.01,15.37,13.67,22.97,1.6,2.6,2.39,6.42,4.69,8.9l-1.07,2.06Z"/>
  <rect x="277.83" y="470.14" width=".66" height="1.35"/>
  <path d="M236.43,181.07l-49.8,1.42c-2.94-.53-1.26-4.4-3.07-6.13l52.23-1.04c1.78,1.56.56,3.69.64,5.76ZM235.1,177.7c-7.45,1.26-15.17.46-22.74.65-6.82.17-15.76.11-22.34.71-1.06.1-4.33.21-3.73,2.03l48.43-1.29.39-2.1Z"/>
  <path d="M266.98,174.31c.35,2.06-1.16,5.1,1.35,5.77l-1.83,1.56-25.96.81-.69-7.46,27.13-.68ZM264.94,174.99l-8.14.68v2.03s2.28,0,2.28,0l1.45-1.37c1.05,2.75,4.64,1.79,4.41-1.34ZM243.92,175.67h-2.71s.68,5.43.68,5.43h2.03s0-5.43,0-5.43ZM247.31,175.67c-.07-.08-2.13-.34-2.04.46-.2.9-.98,5.5.34,5.58l2.38-.64-2.02-2.02c-.29-1.1.96-.44,1.17-.8.29-.51.29-2.46.18-2.58ZM248.67,175.67v2.04h2.71v-2.04h-2.71ZM255.45,175.67h-3.39c-.2,2.01,1.62,2.22,3.38,2.03v-2.03ZM249.34,181.09c1.2-.07,6.7.52,6.77-1.01s-5.77-.14-6.76-1.01v2.03ZM256.8,179.06v1.36s3.4,0,3.4,0v-1.36s-3.4,0-3.4,0Z"/>
  <polygon points="238.49 185.16 237.14 185.16 237.15 183.14 237.81 183.14 238.49 185.16"/>
  <polygon points="241.88 185.16 240.53 185.16 240.54 183.81 241.88 185.16"/>
  <path d="M277.82,136.31h-.66c-.4-1.58-1.32-2.89.33-4.06l.33,4.06Z"/>
  <path d="M293.42,221.13c-.87-.19-3.18-3.58-2.7-4.07,2.04-.15,2.78,2.43,2.7,4.07Z"/>
  <rect x="301.95" y="219.66" width="3.44" height="1.15" transform="translate(6.99 449.8) rotate(-73.68)"/>
  <polygon points="285.29 219.76 283.93 219.77 283.94 217.74 284.6 217.74 285.29 219.76"/>
  <rect x="330.73" y="213.67" width=".66" height="2.03"/>
  <path d="M254.76,342.58l-.12-4.9-1.9-5.27c1.16.72,2.42,4.08,2.58,5.27.25,1.85-.33,3.16-.56,4.9Z"/>
  <rect x="166.62" y="212.31" width="1.35" height="2.03"/>
  <polygon points="145.59 223.16 144.24 223.16 144.24 221.13 144.9 221.13 145.59 223.16"/>
  <rect x="162.55" y="218.42" width=".66" height="1.35"/>
  <polygon points="281.21 622.8 280.88 624.83 279.87 623.81 279.86 622.8 281.21 622.8"/>
  <path d="M283.25,626.87c-.85.45-2.36-1.09-2.03-1.34.85-.45,2.36,1.09,2.03,1.34Z"/>
  <path d="M200.84,193.68c2.2,2.66.31,3.88-.35,7.06-4.28.21-5.86-3.92-5.31-7.68,2.43-2.55,3.79-1.65,5.66.62Z"/>
  <path d="M190.96,200.03c-2.14,1.45-7.89-3.62-5.02-4.68.74,2.54,1.47,3.78,4.4,3.39v-2.01s-4.99-2-4.99-2l-.42-1.42c1.91,1.22,3.57-2.9,5.43-1.75s1.57,6.56.6,8.47Z"/>
  <rect x="258.85" y="196.71" width=".66" height="1.35"/>
  <path d="M228.31,217.05c-1.72-.09-.5-3.3-.66-3.38-.65-.35-2.84.74-2.72-.68l3.38-.69v4.75Z"/>
  <rect x="221.54" y="213.67" width="2.03" height=".66"/>
  <rect x="219.51" y="215.71" width="2.03" height=".66"/>
  <rect x="223.58" y="215.03" width="1.35" height=".66"/>
  <rect x="216.8" y="215.03" width="1.35" height=".66"/>
  <rect x="218.83" y="214.35" width="1.35" height=".66"/>
  <polygon points="327.33 248.94 325.98 248.94 325.98 247.59 327.33 248.94"/>
  <rect x="328.01" y="243.53" width="1.35" height=".66"/>
  <path d="M75.06,245.55c-1.35-.36-1.52-1.45-1.34-2.71,1.35.36,1.52,1.45,1.34,2.71Z"/>
  <rect x="77.1" y="244.2" width="1.35" height=".66"/>
  <rect x="191.03" y="307.98" width="2.03" height=".66"/>
  <path d="M120.49,289.65c-.1.09-.44-.03-.66,0-.18-1.21.04-2.38,1.34-2.71.07.53-.52,2.56-.68,2.71Z"/>
  <rect x="259.52" y="302.56" width="2.03" height=".66"/>
  <rect x="91.63" y="230.11" width="1.22" height="5.28" transform="translate(-120.06 100.05) rotate(-36.37)"/>
  <path d="M358.52,563.1c.97.91-1.24,2.48-2.71,1.35.01-1.15,2.22-1.8,2.71-1.35Z"/>
  <rect x="13.36" y="255.06" width="1.35" height=".66"/>
  <polygon points="328.01 280.83 326.66 280.83 326.66 279.48 328.01 280.83"/>
  <rect x="328.69" y="277.45" width=".66" height="1.35"/>
  <path d="M360.16,238.44c1.37,1.42,2.07,1.94,1.75,4.39-2.69-.26-3.83-3.17-2.7-5.42.97-.23.5.56.95,1.03Z"/>
  <rect x="219.34" y="304.31" width="1.02" height="3.95" transform="translate(-125.95 156.06) rotate(-30.85)"/>
  <polygon points="218.83 309.33 217.48 309.33 217.48 307.98 218.83 309.33"/>
  <polygon points="66.24 282.2 66.24 283.55 64.22 282.86 64.22 282.2 66.24 282.2"/>
  <rect x="406" y="244.2" width="1.35" height=".66"/>
  <rect x="395.83" y="242.17" width="1.35" height=".66"/>
  <rect x="35.06" y="259.81" width=".66" height="1.35"/>
  <path d="M132.7,278.13l-4.06,6.1c0-2.03,1.68-5.78,4.06-6.1Z"/>
  <path d="M338,256.23c-2.32,2.28-7.85-1.65-6.3-4.57,3.98-4.74,10.58.35,6.3,4.57ZM334.79,255.73c4.63.21,3.94-5.02,0-4.74v4.74Z"/>
  <rect x="389.04" y="280.16" width="1.35" height=".66"/>
  <polygon points="250.01 219.77 248.67 219.44 250.69 214.35 250.01 219.77"/>
  <rect x="239.18" y="217.06" width="2.03" height=".66"/>
  <rect x="245.96" y="218.42" width="2.03" height=".66"/>
  <polygon points="243.24 221.12 241.89 221.12 241.89 219.77 243.24 221.12"/>
  <path d="M432.44,243.52l-.31,2.05-3.75,6.76c-1.14-2.68,2.45-4.51,2.71-7.45l-4.07-1.36h5.41Z"/>
  <rect x="341.58" y="288.31" width="1.35" height=".66"/>
  <circle cx="119.16" cy="224.51" r=".84"/>
  <polygon points="248.66 70.51 246.82 70.65 242.57 67.79 248.66 70.51"/>
  <path d="M197.92,214.86c.98.61,2.71-.52,2.59.84h-4.06s.69-2.02.69-2.02c1.11-.3.41.95.79,1.19Z"/>
  <path d="M205.26,225.21c-.81,1.25-2.01.59-1.29,2.98l2.65,1.75h-3.39c.61-1.64.37-3.16-1.36-3.71l.69-1.71,2.7.69Z"/>
  <rect x="206.63" y="225.88" width=".66" height="1.35"/>
  <polygon points="130.67 168.88 129.66 168.88 128.64 167.53 130.66 166.85 130.67 168.88"/>
  <rect x="238.5" y="227.92" width=".66" height="2.71"/>
  <path d="M283.93,247.6c-.26,1.39-5.81,1.56-6.1,1.35-.49-2.67,4.55-.86,6.1-1.35Z"/>
  <rect x="242.57" y="158.71" width="1.35" height=".66"/>
</svg>