<?xml version="1.0" encoding="UTF-8"?>
<svg id="Layer_1" xmlns="http://www.w3.org/2000/svg" version="1.1" viewBox="0 0 1366 768">
  <!-- Generator: Adobe Illustrator 29.7.1, SVG Export Plug-In . SVG Version: 2.1.1 Build 8)  -->
  <defs>
    <style>
      .st0 {
        fill: none;
      }
    </style>
  </defs>
  <g>
    <path class="st0" d="M900.74,631.64c-4.13.54-5.15-1.63-4.37,4.41l7.75,13.63,24.94-.17v-17.89c-9.04.83-19.56-1.15-28.33.01Z"/>
    <path class="st0" d="M420.43,450.12l8.88,29.73c.69-11.91,9.08-27.39-8.88-29.73Z"/>
    <path class="st0" d="M601.38,628.7c-5.57-1.75-11.09-2.93-16.6-3.74l-67.89.52c-3.08.72-6.08,1.71-8.92,3.16-3.05,1.57-6.4,3.68-9.64,2.56-2.47-.85-3.6-2.98-4.12-5.55l-2.41.02c.84-.77,1.52-1.53,2.1-2.28-.17-2.25-.06-4.64,0-6.77.07-2.9-.45-5.27-1.23-7.44-3.57-4.91-8.75-9.67-9.73-14.79-3.65-19.1-2.6-50.3-2.38-79.22-1.39-26.05-2.77-52.09-4.16-78.14-3.92-46.32-10.17-114.61-14.54-124.57-1-2.28-5.86-2.7-5.77-3.67l.94-1.88c-.76-1.99.26-3.55,2.4-4.82l.16-.33h.41c7.52-3.95,26.01-5.03,33.08-7.79,5.52-2.16,11.02-4.77,16.94-5.09,6.83-.37,13.38,2.35,19.91,4.36,14.47,4.46,29.97,5.58,44.93,3.25,3.73-.58,7.43-1.37,11.13-2.17l-2-7.94-8.88,3,7.42-11.89c3.55,6.5,3.94,12.2,7.1,16.07,2.82-.59,5.65-1.15,8.5-1.56,10.82-1.57,21.82-1.2,32.75-.83,20.42.69,40.73,1.46,61.01,2.09,5.22-.47,10.38-.84,15.43-1.02,24.99-.88,52.54.45,80.63,2.1,1.94-.03,3.88-.04,5.83-.08,46.73-.99,93.45-1.98,140.18-2.97,3.58-.08,9.2-.96,14.67-1.23,4.18-1.85,8.44-3.57,12.76-4.04l2.58-19.1c-.72-4.23-6.03-4.15-9.49-4.47-46.71-4.38-96.38,2.39-142.8,3.25-117.65,2.18-239.74-.4-357.17,8.7-4.53.35-35.33,3.74-28.13,12l5.9,2.94c-14.34.47-2.38,19.68-1.23,26.68,4.76,28.93,16.23,87.85,12.9,114.5-7.11,56.98,2.95,104.73,15.22,161.11l-4.65,63.82c10,12.98,20.03,1.18,32.6-.22,72.76-8.08,162.91,4.99,238.3,3.32,17.03-.38,31.86-2.65,50.32-2.97,40.18-.69,80.59,1.45,120.62-1.63-12.17-3.38-4.27-18.77-3.01-28.25l-22.34-2.96-160.54,1.23c-13.6,2.34-26.98,5.75-41.16,8.99-21,4.79-47.5,2.14-67.94-4.28Z"/>
    <path class="st0" d="M674.75,119.78l.06,53.86-7.49-.3,2.75,19.53,56.73-1.68c2.9-12.25-4.44-16-8.97-25.26l9.16-3.14c-2.98-13.07,7.07-47.09-9.09-50.58-8.41-1.81-3.85,7.98-4.26,11.43-1.17,10.05-2.37,20.18-4.91,30.01l12.09,7.76-11.85-2.97c.23,12.1-11.77,34.44-14.61,10.21-1.03-8.76.44-17.57-.53-26.32-1.31-11.72-10.1-20.49-2.75-34.44l-26.76,7.42v52.08c18.4-10.23-3.22-33.54,10.43-47.6Z"/>
    <rect class="st0" x="425.99" y="518.86" width="12" height="19.33" transform="translate(-163.75 861.77) rotate(-79.96)"/>
    <path class="st0" d="M922.87,710.84c-1.09-3.59-7.01-3.76-8.01-5.42-7.06-11.76,8.2-16.35-23.37-19.82-37.14-4.08-70.84,1.95-106.58,2.72-70.65,1.51-140.91,4.08-211.19,5.95-23.29.62-46.74-.68-70.01-.15l23.78-5.92h-43.13c-12.02,0-11.08,14.63-9.25,26.76l447.79-1.21c.15-1.13.18-2.15-.05-2.91Z"/>
    <path class="st0" d="M674.7,209.02c-4.51,4.16,5.41,2.56,7.1,7.79,2.08,6.48-1.09,24.93,4.15,30.14.89.89,20.91,11.79,22.14,12.08,8.79,2.02,16.34.06,24.59-2.47-5.69-17.25-6.69-31.83-6.38-50.04-18.19-9.68-33.91-7.26-51.6,2.5Z"/>
    <path class="st0" d="M378.78,524.5c-10.87-20.8.95-21.79,11.26-36.55l-5.35-25.93c-8.74,4.75-15.42,4.08-20.61-4.81-1.47-8.68,14.09-9.12,14.87-11.91l-3.14-60.66c-11.38,1.62-19.83-1.13-20.85-13.73-.72-8.9,4.98-12.29,6.11-20.32,1.89-13.43-4.12-26.92-.15-40.33l-17.82-1.49c18.4-9.88,27.55,5.29,38.63,16.35,1.48-27.92-35.28-41.01-50.69-16.27l38.85,218.65,8.91-2.99Z"/>
    <path class="st0" d="M384.75,584.04c-4.01-6.66,6-5.78,6.08-7.64.31-6.7-4.01-16.46-12.04-13.23l6.08-4.66c.97-7.73-.9-12.74-9.06-13.21l5.98-4.83-.05-9.98-11.93,1.51c5.28,14.7,3.82,32.14,6.69,46.88,3.01,15.48,9.17,33.26,17.14,6.7-2.07-5.47-8.66-1.14-8.89-1.53Z"/>
    <path class="st0" d="M446.46,566.87c-2.95-2.01-12.73-1.9-17.1-3.66-2.18,5.67,14.08,14.09,16.39,14.83,7.95,2.53,3.24-9.45.7-11.17Z"/>
    <path class="st0" d="M985.6,414.4c-1.13,9.29.28,20.62,11.85,20.82.69-8.47-4.22-17.18-11.85-20.82Z"/>
    <path class="st0" d="M1058.49,280.43l-28.25-11.87-3,11.89,5.95-1.5-5.95,25.32,19.02-.23c7.07,5.35-1.4,12.45-8.72,11.96-5.76-.38-7.25-6.93-13.28-5.76v23.78s14.86-2.94,14.86-2.94c-6.39,8.96,10.44,9.18,8.9,16.3-7.34,8.8-16.32,4.39-23.75-1.44-.07,12.55-7.13,16.13,3.19,25.08l-5.54,32.64,11.28,9.24-8.74,1.65-.41,22.03,9.12,7.55-11.92.03v8.9s17.86,2.96,17.86,2.96l-18.15,1.78-2.64,13.12,14.85,1.49-13.41,4.32-1.46,9.07,17.86,5.93-17.86.04c-3.34,13.63,7.98,5.79,11.91,14.84l-14.87,5.95c6.3,1.8,23.26-5.12,20.81,5.97l-20.82.03v8.9l26.8.03c-1.6-29.55,5.81-58.62,8.89-87.83.73-6.88-.68-13.92.03-20.8,4.71-45.51,15.28-93.52,7.46-138.45Z"/>
    <path class="st0" d="M982.58,460.49c-.5,12.63-.53,24.81-2.95,37.22,13.15-2.01,15.35-39.35,7.38-47.57-7.19-1.42-4.25,5.78-4.43,10.35Z"/>
    <path class="st0" d="M969.25,265.55c-1.67,14.78,4.27,26.3-5.91,27.99,4.08,4.8,4.82,17.87,5.7,23.35,3.3,20.47,2.33,41.64-2.93,61.71-2.45,9.33-5.81,18.43-7.59,27.91-4.84,25.67-3.84,52.31-7.46,78.08-2.28,16.18,1.67,27.42,2.41,43.46.28,6.13-.09,12.28-.69,18.39-.93,9.43-2.57,18.55-4.63,27.56-1.11,15.89-3.35,30.95-7.87,43.57-1.76,4.91-7.7,6.84-8.28,12.62-.66,6.49,5.53,17.14,3.03,25.27l20.8-5.98,1.48,8.94c4.19-2.47,3.11-7.63,5.44-10.95,1.78-2.53,7.55-1.93,8.14-8.31.57-6.05-4.5-12-4.67-17.82-1.32-46.04,7.62-99.63,10.4-145.97,3.94-65.55,3.61-131.46,13.52-196.5-.95-10.27-12.4-12.52-20.88-13.32Z"/>
    <path d="M793.79,294.27c-1.95.04-3.88.05-5.83.08,50.68,2.97,103.14,7,145.69,1.14,4.83-.67,9.85-3.14,14.98-5.41-5.47.27-11.09,1.15-14.67,1.23-46.73.99-93.45,1.98-140.18,2.97Z"/>
    <path d="M479.6,475.71c-.59-6.93-1.73-21.26-3.21-38.67,1.39,26.05,2.77,52.09,4.16,78.14.11-14.29.02-28.03-.96-39.47Z"/>
    <path d="M1063.92,278.16c-14.36-9.48-34.88-25.89-41.92-1.42-4.6,15.99-5.92,17.01-11.21,30.45-2.88,7.31-3.33,18.85-4.4,26.88-11.21-6.86-7.91,2.42-14.83,5.91-5.28-20.96,10.54-49.2,3.13-67.29-9.03-22.06-47.59-15.17-66.49-15.98l-8.48-14.69c-14.92,8.82-20.59-3.09-24.72-3.51-20.61-2.07-81.05,2.03-104.41,3.55-4.73.31-7.81,5.73-11.76,5.72-3.96-.01-7.18-5.26-8.97-5.33-3.53-.14-9.28,13.33-16.27,11.23l-11.9-71.41,4.47,5.99c17.52-16.26,23.81,6.18,35.15,5.22,15.18-1.29,12.02-10.28,16.58-18.17,5.91-10.2,23.56,9.08,32.97-4.96l1.5,14.87c13.59-30.98,24.78-13.41,44.97-11.97,20.3,1.44,57.63-2.67,77.15-5.72,18.76-2.93,40.64,1.03,57.85,8.76l-2.96-8.88,22.53-2.86-1.78-15.04c-22.49,5.45-48.15,7.64-60.92-14.85l4.48,20.8-38.79,1.63c-5.68-10.34-2.74-16.57-16.28-19.43-5.27,7.24,6.85,19.66-5.96,20.94-4.11.41-40.51-2.26-43.98-3.05-3.44-.79-3.46-7.58-6.56-8.99h-4.38c-.18,3.73-1.56,6.54-4.92,8.42-1.12.63-22.78,8.76-24.04,8.96-4.99.78-7.48-7.63-14.37-8.57-1.52-.21-26.6,2.42-29.08,2.97-5.47,1.2-1.2,13.38-9.45,12.11-7.35-1.14-14.94-10.44-13.38-17.91,25.92-5.19,44.6-23.25,73.08-23.98,13.99-.36,15.11,10.98,28.05,12.01-1.07-4.63-9.63-15.2-1.16-17.57l27.92,8.67.13-11.8c7.81,1.25,16.95-4.5,23.44-4.67,9.31-.24,16.29,15.95,26.99,13.48l-5.88-16.36,47.34-18.09c6.96-.63,18.04,20.93,29.93,16.6.32-8.71-.08-16.21-8.9-19.31,3.26-7.39,37.65-6.05,38.64-20.8-3.36-15.71-40.84,18.1-47.41,13.29-2.19-7.67-12.16-37.2-22.08-35.44-18.3,9.98,9.82,25.64,6.94,41.33l-48.58,15.25c-4.82-1.03-15.58-46.98-22.69-38.91l5.95,44.62c-8.75-.9-22.41,6.65-29.89,1.62-6.44-4.33-3.78-29.04-17.7-28.38-2.49,16.85,14.6,37.6-12.74,35.28l-22.95-20.4,5.92,23.78c-15.6.8-36.9.19-51.91,3.12-9.66,1.88-24.8,16-38.76,14.79.02-19.25-14.92-26.63-30.79-33.25-7.71-17.31,16.87-57.55-7.89-62.08-6.14-.62-3.93.29-4.51,4.45-1.24,8.99.99,44.38-1.33,49.14-5.06,10.39-24.34,2.7-35.54,9.26-5.41,3.16-6.5,9.58-8.52,10.81-7.45,4.53-17.96-.63-17.08,18.67l-25.39-2.86-1.37-29.88c-7.77-.67-4.93-.41-5.84,4.46-.81,4.39-1.62,24.91-4.79,25.46-22.3-2.59-49.74,2.86-71.28-.05-11.72-1.58-23.22-12.99-38.1-9.51l-4.13-3.88c3.33-15.66,11.75-35.78-12.22-24.98l-.46,23.35-43.31-8.73c-9.19-12.83,16.91-44.2-16.15-38.89l-3.02,35.71c-16.36-10.25-29.21,4.67-13.07,14.6,6.33,3.89,15.15,1.95,19.12,4.68,4.39,3.02,3.81,21.75,16.13,10.33l4.5-10.53,38.77,4.76-5.92,20.78c9.16,3.6,14.56-10.39,19.25-10.9,8.81-.94,28.07,13.76,32.76,13.81,4.58.05,8.32-4.58,12.31-5.04,5-.58,13.21,2.79,20.5,2.39,11.48-.64,22.47-4.64,34.14-3.21l-14.84,5.94c-2.06,10.21,5.13,12.24,13.45,13.83l18.08-19.16,30.91,8.33c-5.61,12.67-73.65,24.73-77.35,20.83-.66-6,3.51-13.95-5.9-11.93.24,10.73-6.26,23.19-17.88,16l-2.77-14.71-11.95-1.14-4.58,20.65c-21.96-13.57-48.09-16-72.92-20.82,6.06-12.14,1.55-29.96-11.41-15.82l-.47,12.87-24.77.1c-7.11-15.48-10.14-21.86-28.75-23.91-1.69,8.38,6.07,5.57,9.7,12.54,1.84,3.53,2.59,7.28,2.18,11.24-8.8-1.49-32.43-.14-29.74,13.33,1.14,5.7,22.07.82,30.58,5.23,6.9,3.58,6.76,13.2,15.49,14.29,8.98,2.14,2.6-13.97,8.87-14.47,30.85,2.09,7.2,33.33,21.01,50.07l12.48-7.39c-5.62-10.79-9.57-21.82-8.12-34.27,6.27-6.39,78.04,11.12,87.91,17.72,6.84,4.57,8.95,20.35,19.22,13.51l-5.98-22.26,14.45.42c3.33,21.67,23.39,10.56,9.34-6.36,26.37-5.24,50.3-13.08,77.43-10.68,8.98,18.81,1.17,38.53,2.85,58.26-4.34-1.14-15.08-3.84-18.73-2.95-2.56.62-.8,5.42-6.32,6.17-31.33,4.25-75.17-1.54-107.14,2.99-16.07,2.28-13.11,17.2-21.47,20.07-12.46,4.28-64.24-1.66-74.15,6.16-10.65,12.6-1.13,28.21.73,40.91,1.72,11.78-.7,23.76,7,36.73-5.68-.19-10.93,2.88-16.53,3.16-6.21.31-17.83-7.21-16.24,1.36,2.98,16,23.96,8.75,35.42,10.71l6.25,47.28c-28.28-.73-35.28-8.66-41.29-34.63-4.61-19.93-3.67-60.32-16.51-75.66-15.59-18.64-37.78-15.48-54.9-.84-.02,28.15,8.94,53.62,13.62,80.84,13.06,75.92,26.33,151.8,40.27,227.55,10.51,8.32,28.78,40.92,41.97,38.05,16.87-14.25,5.06-29.58,12.38-47.79,9.68,11.99,17.11,13.78,16.48,31.1-.37,10.11-8.76,20.55,4.17,28.6,8.1,5.04,39.81,5.34,50.79,5.75,4.56.17,11.77-2.76,10.34,4.43l-20.81,4.53,3.01,5.91-29.44,3.31-.35,20.51-8.87-2.97-.04,11.91,16.05-.04c-1.84-12.13-2.78-26.76,9.25-26.76h43.13l-23.78,5.92c23.27-.53,46.72.77,70.01.15,70.28-1.88,140.54-4.44,211.19-5.95,35.74-.77,69.44-6.8,106.58-2.72,31.57,3.47,16.31,8.06,23.37,19.82,1,1.66,6.92,1.83,8.01,5.42.23.75.2,1.77.05,2.91l15.43-.04c1.4-5.86,13.37-4.94,16.81-8.32,8.23-8.09,3.75-27.53,3.46-37.86l-20.62-6.09,26.69,2.89c-3.46-15.93,18.19-17.92,8.99-32.66,9.2.26,18.34,5.55,27.85,2.45,2.32-.76,9.46-11.86,17.59-15.02,5.62-2.18,15.54-1.32,17.2-4.23,11.41-38.71,7.99-78.85,11.76-118.61,5.39-56.97,20.96-133.02,20.9-187.66-.01-9.47-4.02-20.74-5.05-30.45ZM331.03,308.84c15.42-24.74,52.17-11.64,50.69,16.27-11.08-11.06-20.22-26.23-38.63-16.35l17.82,1.49c-3.97,13.41,2.04,26.9.15,40.33-1.13,8.03-6.83,11.42-6.11,20.32,1.02,12.61,9.47,15.36,20.85,13.73l3.14,60.66c-.78,2.79-16.34,3.23-14.87,11.91,5.19,8.89,11.88,9.56,20.61,4.81l5.35,25.93c-10.3,14.76-22.13,15.75-11.26,36.55l-8.91,2.99-38.85-218.65ZM376.49,578.87c-2.87-14.74-1.41-32.18-6.69-46.88l11.93-1.51.05,9.98-5.98,4.83c8.17.47,10.03,5.48,9.06,13.21l-6.08,4.66c8.03-3.23,12.35,6.53,12.04,13.23-.09,1.85-10.09.97-6.08,7.64.23.39,6.82-3.94,8.89,1.53-7.97,26.56-14.13,8.78-17.14-6.7ZM732.67,256.57c-8.25,2.52-15.8,4.49-24.59,2.47-1.23-.28-21.24-11.19-22.14-12.08-5.24-5.21-2.06-23.66-4.15-30.14-1.69-5.24-11.61-3.63-7.1-7.79,17.68-9.76,33.41-12.18,51.6-2.5-.32,18.21.69,32.79,6.38,50.04ZM664.32,115.3l26.76-7.42c-7.35,13.95,1.44,22.72,2.75,34.44.98,8.75-.49,17.56.53,26.32,2.84,24.24,14.83,1.89,14.61-10.21l11.85,2.97-12.09-7.76c2.55-9.83,3.74-19.96,4.91-30.01.4-3.45-4.16-13.24,4.26-11.43,16.17,3.48,6.12,37.51,9.09,50.58l-9.16,3.14c4.53,9.26,11.87,13.02,8.97,25.26l-56.73,1.68-2.75-19.53,7.49.3-.06-53.86c-13.64,14.06,7.98,37.37-10.43,47.6v-52.08ZM420.43,450.12c17.96,2.34,9.56,17.82,8.88,29.73l-8.88-29.73ZM421.42,532.75l2.09-11.81,19.04,3.37-2.09,11.81-19.04-3.37ZM445.75,578.04c-2.32-.74-18.57-9.16-16.39-14.83,4.37,1.76,14.15,1.65,17.1,3.66,2.53,1.72,7.24,13.7-.7,11.17ZM929.07,649.52l-24.94.17-7.75-13.63c-.78-6.04.24-3.87,4.37-4.41,8.76-1.16,19.28.82,28.33-.01v17.89ZM966.21,621.35c.17,5.82,5.24,11.77,4.67,17.82-.6,6.38-6.37,5.78-8.14,8.31-2.33,3.32-1.26,8.48-5.44,10.95l-1.48-8.94-20.8,5.98c2.5-8.13-3.69-18.78-3.03-25.27.58-5.78,6.52-7.72,8.28-12.62,4.52-12.62,6.75-27.68,7.87-43.57-2.72,11.84-6.2,23.47-9.97,35.26-5.71,17.86-11.98,22.67-32.14,16.89-11.95-3.43-24.39-5.65-36.99-5.59-20.54.09-41.08.19-61.62.28-22.35.1-44.71.21-67.06.31-10.33.05-20.16,1.18-29.87,2.85l160.54-1.23,22.34,2.96c-1.26,9.48-9.16,24.87,3.01,28.25-40.03,3.08-80.43.94-120.62,1.63-18.46.32-33.29,2.59-50.32,2.97-75.4,1.67-165.55-11.4-238.3-3.32-12.57,1.4-22.6,13.2-32.6.22l4.65-63.82c-12.27-56.38-22.33-104.13-15.22-161.11,3.33-26.65-8.14-85.58-12.9-114.5-1.15-7-13.11-26.21,1.23-26.68l-5.9-2.94c-7.2-8.27,23.6-11.65,28.13-12,117.43-9.09,239.52-6.52,357.17-8.7,46.42-.86,96.09-7.63,142.8-3.25,3.46.32,8.77.24,9.49,4.47l-2.58,19.1c-4.32.47-8.57,2.19-12.76,4.04,5.73-.28,11.29.1,14.2,2.81.18.17.33.45.5.65,10.19-1.69,4.25-13.22,5.91-27.99,8.49.8,19.94,3.06,20.88,13.32-9.91,65.04-9.58,130.95-13.52,196.5-2.79,46.34-11.73,99.94-10.4,145.97ZM979.64,497.71c2.42-12.42,2.45-24.6,2.95-37.22.18-4.57-2.76-11.77,4.43-10.35,7.97,8.22,5.78,45.56-7.38,47.57ZM997.45,435.21c-11.57-.2-12.99-11.53-11.85-20.82,7.63,3.64,12.54,12.35,11.85,20.82ZM1050.99,439.67c-3.08,29.21-10.49,58.28-8.89,87.83l-26.8-.03v-8.9l20.82-.03c2.46-11.09-14.51-4.17-20.81-5.97l14.87-5.95c-3.94-9.04-15.26-1.21-11.91-14.84l17.86-.04-17.86-5.93,1.46-9.07,13.41-4.32-14.85-1.49,2.64-13.12,18.15-1.78-17.85-2.96v-8.9s11.91-.03,11.91-.03l-9.12-7.55.41-22.03,8.74-1.65-11.28-9.24,5.54-32.64c-10.31-8.95-3.26-12.53-3.19-25.08,7.43,5.83,16.41,10.24,23.75,1.44,1.54-7.12-15.29-7.34-8.9-16.3l-14.86,2.94v-23.78c6.03-1.16,7.52,5.38,13.27,5.76,7.31.48,15.78-6.61,8.72-11.96l-19.02.23,5.95-25.32-5.95,1.5,3-11.89,28.25,11.87c7.82,44.92-2.76,92.94-7.46,138.45-.71,6.88.69,13.92-.03,20.8Z"/>
    <path d="M601.38,628.7c20.43,6.42,46.93,9.07,67.94,4.28,14.18-3.23,27.56-6.65,41.16-8.99l-125.7.97c5.52.81,11.04,1.99,16.6,3.74Z"/>
    <path d="M461.11,717.45l-8.77,3.13c4.23.64,6.48-1.34,8.77-3.13Z"/>
    <path d="M477.05,728.25l442.83.08c.07-4.35,2.5-10.45,3.03-14.58l-447.79,1.21c.83,5.46,1.84,10.42,1.93,13.3Z"/>
    <path d="M461.11,717.45l6.88-2.46c-3.09-.35-5,.99-6.88,2.46Z"/>
    <path d="M953.45,528.04c-.74-16.04-4.68-27.28-2.41-43.46,3.62-25.77,2.62-52.4,7.46-78.08,1.79-9.48,5.14-18.58,7.59-27.91,5.27-20.06,6.23-41.23,2.93-61.71-.88-5.47-1.62-18.54-5.7-23.35-2.95.49-7.19.2-13.45-1.14l12.01,7.89c.01,61.41-8.26,122.7-12.08,183.89-1.6,25.66.45,59.28-1.69,89.8,2.07-9.01,3.71-18.14,4.63-27.56.6-6.11.97-12.26.69-18.39Z"/>
    <path d="M529.93,293.25c-6.53-2.01-13.09-4.73-19.91-4.36-5.92.32-11.42,2.93-16.94,5.09-7.07,2.77-25.56,3.84-33.08,7.78l126.99-3.46-1-3.96c-3.7.79-7.39,1.59-11.13,2.17-14.97,2.33-30.46,1.21-44.93-3.25Z"/>
    <path d="M457.02,306.92l2.4-4.82c-2.14,1.27-3.16,2.84-2.4,4.82Z"/>
    <path d="M459.42,302.1c.19-.11.37-.23.58-.34h-.41s-.16.34-.16.34Z"/>
    <path d="M575.11,289.4l8.88-3,2,7.94c1.22-.26,2.43-.51,3.65-.76-3.16-3.87-3.55-9.57-7.1-16.07l-7.42,11.89Z"/>
    <path d="M598.14,292.02c-2.85.41-5.68.97-8.5,1.56,1.97,2.42,5.01,4.13,10.59,4.89,28.97,3.91,61.53-2.47,91.67-5.19-20.28-.63-40.59-1.4-61.01-2.09-10.93-.37-21.93-.74-32.75.83Z"/>
    <path d="M707.33,292.25c-5.05.18-10.2.55-15.43,1.02,31.97.99,63.89,1.61,96.06,1.07-28.09-1.65-55.65-2.97-80.63-2.1Z"/>
    <path d="M498.33,631.2c3.24,1.12,6.59-.99,9.64-2.56,2.84-1.46,5.84-2.44,8.92-3.16l-22.68.17c.52,2.57,1.65,4.69,4.12,5.55Z"/>
    <path d="M537.29,623.64c-6.82.1-13.81.29-20.4,1.83l67.89-.52c-15.52-2.29-31.02-1.54-47.49-1.31Z"/>
    <path d="M494.21,625.65c-.15-.73-.25-1.48-.31-2.26-.58.75-1.26,1.51-2.1,2.28l2.41-.02Z"/>
    <path d="M493.9,623.39c3.93-5.11,2.03-9.72-1.23-14.21.78,2.17,1.3,4.54,1.23,7.44-.05,2.13-.17,4.52,0,6.77Z"/>
    <path d="M461.85,312.47c4.37,9.96,10.62,78.25,14.54,124.57-1.84-34.59-3.68-69.17-5.53-103.76-.4-7.52-1.42-16.17-7.71-20.32-3.61-2.37-5.5-4.36-6.14-6.04l-.94,1.88c-.08.97,4.77,1.39,5.77,3.67Z"/>
    <path d="M482.94,594.39c.98,5.12,6.17,9.88,9.73,14.79-1.68-4.68-4.72-8.32-6.58-13.59-2.79-7.89-2.19-17.64-2.63-25.91-.97-18.17-1.94-36.34-2.9-54.5-.22,28.92-1.27,60.11,2.38,79.22Z"/>
  </g>
  <path d="M319.43,166.5h-1.04c-.62-2.48-2.08-4.54.52-6.37l.52,6.37Z"/>
</svg>