<?xml version="1.0" encoding="UTF-8" standalone="no"?>
<svg
   xmlns:dc="http://purl.org/dc/elements/1.1/"
   xmlns:cc="http://creativecommons.org/ns#"
   xmlns:rdf="http://www.w3.org/1999/02/22-rdf-syntax-ns#"
   xmlns:svg="http://www.w3.org/2000/svg"
   xmlns="http://www.w3.org/2000/svg"
   viewBox="0 0 401.33334 268"
   height="268"
   width="401.33334"
   xml:space="preserve"
   version="1.1"
   id="svg2"><metadata
     id="metadata8"><rdf:RDF><cc:Work
         rdf:about=""><dc:format>image/svg+xml</dc:format><dc:type
           rdf:resource="http://purl.org/dc/dcmitype/StillImage" /></cc:Work></rdf:RDF></metadata><defs
     id="defs6"><clipPath
       id="clipPath340"
       clipPathUnits="userSpaceOnUse"><path
         id="path342"
         d="m 864.523,1396.34 c 59.938,55.93 345.387,605.06 646.927,605.06 301.51,0 586.95,-549.13 646.9,-605.06 73.58,-68.68 -208.56,-136.96 -646.9,-136.96 -438.35,0 -720.52,68.28 -646.927,136.96 z" /></clipPath></defs><g
     transform="matrix(1.3333333,0,0,-1.3333333,0,268)"
     id="g10"><g
       transform="scale(0.1)"
       id="g12"><path
         id="path14"
         style="fill:#231f20;fill-opacity:1;fill-rule:nonzero;stroke:none"
         d="m 1336.34,1.22656 31.7852,0 0,106.82 -31.7852,0 0,-106.82 z" /><path
         id="path16"
         style="fill:#231f20;fill-opacity:1;fill-rule:nonzero;stroke:none"
         d="m 1534.77,18.7461 -0.88,0 -70.86,89.3009 -52.54,0 0,-106.82044 31.79,0 -2.66,89.30464 1.11,0 70.42,-89.30464 52.76,0 0,106.82044 -31.79,0 2.65,-89.3009" /><path
         id="path18"
         style="fill:#231f20;fill-opacity:1;fill-rule:nonzero;stroke:none"
         d="m 1734.11,72.3008 0,5.8398 c -2.22,30.6174 -25.83,30.7574 -67.11,30.7574 -48.79,0 -69.33,-7.691 -69.33,-41.8707 l 0,-24.4961 c 0.67,-31.1914 11.04,-43.58198 69.33,-42.160106 41.05,1.136716 69.54,0 68.87,32.187506 l 0,6.9805 -31.79,0 0,-5.8399 c 0,-15.2383 -11.48,-15.8086 -37.08,-15.8086 -33.34,0 -37.32,4.1289 -37.54,25.4961 l 0,23.6406 c 0,20.9336 5.52,24.3555 37.54,24.3555 27.81,0 35.32,-0.8516 35.32,-13.2422 l 0,-5.8398 31.79,0" /><path
         id="path20"
         style="fill:#231f20;fill-opacity:1;fill-rule:nonzero;stroke:none"
         d="m 1776.05,1.22656 27.8164,0 0,19.5156 -27.8164,0 0,-19.5156 z" /><path
         id="path22"
         style="fill:#231f20;fill-opacity:1;fill-rule:nonzero;stroke:none"
         d="m 130.762,384.746 c 60.484,-3.137 88.738,3.699 88.738,-37.035 0,-41.871 -19.422,-41.871 -90.07,-41.871 -70.1956,0 -84.3284,0 -83.4456,47.004 l -37.53128,0 C 1.39453,291.027 45.1016,284.473 129.43,284.473 c 83.449,0 127.597,1.996 127.597,62.386 0,57.821 -39.73,56.399 -118.32,59.25 -61.8164,1.137 -91.8398,-2.285 -91.8398,38.453 0,29.626 10.1562,35.606 83.4488,35.606 70.204,0 81.243,-1.426 83.004,-38.738 l 37.528,0 c 3.976,58.105 -47.684,60.101 -119.207,60.101 -81.6801,0 -122.29725,-5.129 -122.29725,-62.093 0,-56.403 56.07035,-51.278 121.41825,-54.692" /><path
         id="path24"
         style="fill:#231f20;fill-opacity:1;fill-rule:evenodd;stroke:none"
         d="m 427.988,501.531 c -82.566,-0.566 -107.73,-18.23 -107.73,-71.781 l 0,-76.055 c 0,-50.418 28.258,-69.222 107.73,-69.222 l 44.59,0 c 79.477,0 107.734,18.804 107.734,69.222 l 0,76.055 c 0,53.551 -25.167,71.215 -107.734,71.781 l -44.59,0 z m 44.59,-21.363 c 55.633,0 70.207,-8.828 70.207,-50.418 l 0,-76.055 c 0,-42.445 -21.637,-47.574 -70.207,-47.855 l -44.59,0 c -48.566,0.281 -70.199,5.41 -70.199,47.855 l 0,76.055 c 0,41.59 14.566,50.418 70.199,50.418 l 44.59,0" /><path
         id="path26"
         style="fill:#231f20;fill-opacity:1;fill-rule:nonzero;stroke:none"
         d="m 686.719,499.82 -37.528,0 0,-213.636 206.188,0 0,21.363 -168.66,0 0,192.273" /><path
         id="path28"
         style="fill:#231f20;fill-opacity:1;fill-rule:evenodd;stroke:none"
         d="m 1123.86,331.477 26.05,-45.293 38.85,0 -123.62,213.636 -52.98,0 -120.539,-213.636 39.297,0 25.609,45.293 167.333,0 z m -10.59,19.937 -146.59,0 72.85,128.469 73.74,-128.469" /><path
         id="path30"
         style="fill:#231f20;fill-opacity:1;fill-rule:evenodd;stroke:none"
         d="m 1272.69,371.641 120.53,0 c 45.48,0 55.63,-13.106 55.63,-40.164 l 0,-45.293 37.53,0 0,56.687 c 0,23.07 -16.34,36.746 -53.42,38.453 l 0,0.571 c 52.54,4.273 57.83,26.492 57.83,56.402 0,48.703 -31.34,61.523 -102.86,61.523 l -152.77,0 0,-213.636 37.53,0 0,85.457 z m 0,21.363 0,85.453 115.67,0 c 59.17,0 64.91,-10.254 64.91,-37.602 0,-35.32 -7.07,-46.714 -64.91,-47.851 l -115.67,0" /><path
         id="path32"
         style="fill:#231f20;fill-opacity:1;fill-rule:nonzero;stroke:none"
         d="m 1712.96,478.457 165.57,0 0,21.363 -203.09,0 0,-213.636 37.52,0 0,97.707 161.16,0 0,19.933 -161.16,0 0,74.633" /><path
         id="path34"
         style="fill:#231f20;fill-opacity:1;fill-rule:nonzero;stroke:none"
         d="m 1951.87,286.184 37.5234,0 0,213.637 -37.5234,0 0,-213.637 z" /><path
         id="path36"
         style="fill:#231f20;fill-opacity:1;fill-rule:nonzero;stroke:none"
         d="m 2108.98,499.82 -37.53,0 0,-213.636 206.19,0 0,21.363 -168.66,0 0,192.273" /><path
         id="path38"
         style="fill:#231f20;fill-opacity:1;fill-rule:nonzero;stroke:none"
         d="m 2650.31,481.594 0.89,0 0,-195.41 37.53,0 0,213.636 -64.91,0 -117.44,-182.871 -117,182.871 -64.91,0 0,-213.636 37.53,0 0,195.41 0.89,0 125.39,-195.41 37.09,0 124.94,195.41" /><path
         id="path40"
         style="fill:#231f20;fill-opacity:1;fill-rule:nonzero;stroke:none"
         d="m 2883.56,384.746 c 60.49,-3.137 88.75,3.699 88.75,-37.035 0,-41.871 -19.43,-41.871 -90.07,-41.871 -70.2,0 -84.33,0 -83.45,47.004 l -37.53,0 c -7.06,-61.817 36.65,-68.371 120.98,-68.371 83.44,0 127.6,1.996 127.6,62.386 0,57.821 -39.74,56.399 -118.33,59.25 -61.81,1.137 -91.84,-2.285 -91.84,38.453 0,29.626 10.16,35.606 83.45,35.606 70.2,0 81.24,-1.426 83,-38.738 l 37.54,0 c 3.97,58.105 -47.69,60.101 -119.22,60.101 -81.67,0 -122.3,-5.129 -122.3,-62.093 0,-56.403 56.08,-51.278 121.42,-54.692" /><path
         id="path42"
         style="fill:#006867;fill-opacity:1;fill-rule:nonzero;stroke:none"
         d="m 966.273,1272.81 c 0,302.92 245.597,548.47 548.547,548.47 302.94,0 548.53,-245.55 548.53,-548.47 0,-302.896 -245.59,-548.451 -548.53,-548.451 -302.95,0 -548.547,245.555 -548.547,548.451" /><path
         id="path44"
         style="fill:#006969;fill-opacity:1;fill-rule:nonzero;stroke:none"
         d="m 976.148,1277.44 c 0,298.68 242.152,540.79 540.872,540.79 298.74,0 540.88,-242.11 540.88,-540.79 0,-298.682 -242.14,-540.807 -540.88,-540.807 -298.72,0 -540.872,242.125 -540.872,540.807" /><path
         id="path46"
         style="fill:#006a6a;fill-opacity:1;fill-rule:nonzero;stroke:none"
         d="m 986.039,1282.06 c 0,294.45 238.721,533.14 533.201,533.14 294.49,0 533.21,-238.69 533.21,-533.14 0,-294.451 -238.72,-533.138 -533.21,-533.138 -294.48,0 -533.201,238.687 -533.201,533.138" /><path
         id="path48"
         style="fill:#006b6c;fill-opacity:1;fill-rule:nonzero;stroke:none"
         d="m 995.914,1286.68 c 0,290.21 235.296,525.47 525.536,525.47 290.26,0 525.56,-235.26 525.56,-525.47 0,-290.211 -235.3,-525.469 -525.56,-525.469 -290.24,0 -525.536,235.258 -525.536,525.469" /><path
         id="path50"
         style="fill:#006c6e;fill-opacity:1;fill-rule:nonzero;stroke:none"
         d="m 1005.79,1291.3 c 0,285.98 231.86,517.82 517.87,517.82 286.04,0 517.89,-231.84 517.89,-517.82 0,-285.98 -231.85,-517.808 -517.89,-517.808 -286.01,0 -517.87,231.828 -517.87,517.808" /><path
         id="path52"
         style="fill:#006d6f;fill-opacity:1;fill-rule:nonzero;stroke:none"
         d="m 1015.66,1295.92 c 0,281.75 228.44,510.15 510.22,510.15 281.78,0 510.22,-228.4 510.22,-510.15 0,-281.75 -228.44,-510.147 -510.22,-510.147 -281.78,0 -510.22,228.397 -510.22,510.147" /><path
         id="path54"
         style="fill:#006e71;fill-opacity:1;fill-rule:nonzero;stroke:none"
         d="m 1025.54,1300.55 c 0,277.51 225,502.48 502.56,502.48 277.56,0 502.55,-224.97 502.55,-502.48 0,-277.53 -224.99,-502.495 -502.55,-502.495 -277.56,0 -502.56,224.965 -502.56,502.495" /><path
         id="path56"
         style="fill:#007073;fill-opacity:1;fill-rule:nonzero;stroke:none"
         d="m 1035.41,1305.16 c 0,273.29 221.58,494.82 494.89,494.82 273.33,0 494.9,-221.53 494.9,-494.82 0,-273.28 -221.57,-494.816 -494.9,-494.816 -273.31,0 -494.89,221.536 -494.89,494.816" /><path
         id="path58"
         style="fill:#007175;fill-opacity:1;fill-rule:nonzero;stroke:none"
         d="m 1045.29,1309.78 c 0,269.06 218.14,487.17 487.23,487.17 269.1,0 487.24,-218.11 487.24,-487.17 0,-269.05 -218.14,-487.163 -487.24,-487.163 -269.09,0 -487.23,218.113 -487.23,487.163" /><path
         id="path60"
         style="fill:#007276;fill-opacity:1;fill-rule:nonzero;stroke:none"
         d="m 1055.18,1314.41 c 0,264.82 214.69,479.5 479.55,479.5 264.86,0 479.57,-214.68 479.57,-479.5 0,-264.83 -214.71,-479.504 -479.57,-479.504 -264.86,0 -479.55,214.674 -479.55,479.504" /><path
         id="path62"
         style="fill:#007378;fill-opacity:1;fill-rule:nonzero;stroke:none"
         d="m 1065.05,1319.02 c 0,260.6 211.27,471.85 471.9,471.85 260.64,0 471.9,-211.25 471.9,-471.85 0,-260.59 -211.26,-471.832 -471.9,-471.832 -260.63,0 -471.9,211.242 -471.9,471.832" /><path
         id="path64"
         style="fill:#00747a;fill-opacity:1;fill-rule:nonzero;stroke:none"
         d="m 1074.91,1323.64 c 0,256.37 207.86,464.18 464.25,464.18 256.39,0 464.25,-207.81 464.25,-464.18 0,-256.35 -207.86,-464.171 -464.25,-464.171 -256.39,0 -464.25,207.821 -464.25,464.171" /><path
         id="path66"
         style="fill:#00757c;fill-opacity:1;fill-rule:nonzero;stroke:none"
         d="m 1084.8,1328.27 c 0,252.13 204.41,456.51 456.58,456.51 252.16,0 456.58,-204.38 456.58,-456.51 0,-252.14 -204.42,-456.52 -456.58,-456.52 -252.17,0 -456.58,204.38 -456.58,456.52" /><path
         id="path68"
         style="fill:#00767e;fill-opacity:1;fill-rule:nonzero;stroke:none"
         d="m 1094.68,1332.89 c 0,247.89 200.98,448.84 448.91,448.84 247.93,0 448.92,-200.95 448.92,-448.84 0,-247.9 -200.99,-448.851 -448.92,-448.851 -247.93,0 -448.91,200.951 -448.91,448.851" /><path
         id="path70"
         style="fill:#007780;fill-opacity:1;fill-rule:nonzero;stroke:none"
         d="m 1104.55,1337.51 c 0,243.66 197.55,441.19 441.25,441.19 243.69,0 441.25,-197.53 441.25,-441.19 0,-243.67 -197.56,-441.198 -441.25,-441.198 -243.7,0 -441.25,197.528 -441.25,441.198" /><path
         id="path72"
         style="fill:#007881;fill-opacity:1;fill-rule:nonzero;stroke:none"
         d="m 1114.43,1342.13 c 0,239.43 194.12,433.53 433.59,433.53 239.47,0 433.58,-194.1 433.58,-433.53 0,-239.43 -194.11,-433.528 -433.58,-433.528 -239.47,0 -433.59,194.098 -433.59,433.528" /><path
         id="path74"
         style="fill:#007983;fill-opacity:1;fill-rule:nonzero;stroke:none"
         d="m 1124.3,1346.75 c 0,235.2 190.71,425.87 425.93,425.87 235.23,0 425.92,-190.67 425.92,-425.87 0,-235.2 -190.69,-425.867 -425.92,-425.867 -235.22,0 -425.93,190.667 -425.93,425.867" /><path
         id="path76"
         style="fill:#007a85;fill-opacity:1;fill-rule:nonzero;stroke:none"
         d="m 1134.2,1351.38 c 0,230.96 187.25,418.19 418.26,418.19 230.99,0 418.24,-187.23 418.24,-418.19 0,-230.98 -187.25,-418.208 -418.24,-418.208 -231.01,0 -418.26,187.228 -418.26,418.208" /><path
         id="path78"
         style="fill:#007b87;fill-opacity:1;fill-rule:nonzero;stroke:none"
         d="m 1144.07,1355.99 c 0,226.74 183.81,410.54 410.59,410.54 226.77,0 410.58,-183.8 410.58,-410.54 0,-226.73 -183.81,-410.537 -410.58,-410.537 -226.78,0 -410.59,183.807 -410.59,410.537" /><path
         id="path80"
         style="fill:#007d89;fill-opacity:1;fill-rule:nonzero;stroke:none"
         d="m 1153.93,1360.61 c 0,222.51 180.41,402.87 402.94,402.87 222.53,0 402.92,-180.36 402.92,-402.87 0,-222.5 -180.39,-402.876 -402.92,-402.876 -222.53,0 -402.94,180.376 -402.94,402.876" /><path
         id="path82"
         style="fill:#007e8b;fill-opacity:1;fill-rule:nonzero;stroke:none"
         d="m 1163.82,1365.23 c 0,218.28 176.95,395.22 395.27,395.22 218.29,0 395.26,-176.94 395.26,-395.22 0,-218.27 -176.97,-395.207 -395.26,-395.207 -218.32,0 -395.27,176.937 -395.27,395.207" /><path
         id="path84"
         style="fill:#007f8d;fill-opacity:1;fill-rule:nonzero;stroke:none"
         d="m 1173.7,1369.85 c 0,214.05 173.53,387.56 387.59,387.56 214.08,0 387.61,-173.51 387.61,-387.56 0,-214.04 -173.53,-387.553 -387.61,-387.553 -214.06,0 -387.59,173.513 -387.59,387.553" /><path
         id="path86"
         style="fill:#00808f;fill-opacity:1;fill-rule:nonzero;stroke:none"
         d="m 1183.57,1374.48 c 0,209.8 170.11,379.89 379.94,379.89 209.84,0 379.94,-170.09 379.94,-379.89 0,-209.82 -170.1,-379.886 -379.94,-379.886 -209.83,0 -379.94,170.066 -379.94,379.886" /><path
         id="path88"
         style="fill:#008190;fill-opacity:1;fill-rule:nonzero;stroke:none"
         d="m 1193.45,1379.09 c 0,205.58 166.67,372.23 372.28,372.23 205.61,0 372.26,-166.65 372.26,-372.23 0,-205.57 -166.65,-372.22 -372.26,-372.22 -205.61,0 -372.28,166.65 -372.28,372.22" /><path
         id="path90"
         style="fill:#008292;fill-opacity:1;fill-rule:nonzero;stroke:none"
         d="m 1203.32,1383.72 c 0,201.34 163.25,364.56 364.63,364.56 201.37,0 364.6,-163.22 364.6,-364.56 0,-201.34 -163.23,-364.57 -364.6,-364.57 -201.38,0 -364.63,163.23 -364.63,364.57" /><path
         id="path92"
         style="fill:#008394;fill-opacity:1;fill-rule:nonzero;stroke:none"
         d="m 1213.21,1388.34 c 0,197.11 159.8,356.9 356.94,356.9 197.14,0 356.95,-159.79 356.95,-356.9 0,-197.12 -159.81,-356.9 -356.95,-356.9 -197.14,0 -356.94,159.78 -356.94,356.9" /><path
         id="path94"
         style="fill:#008496;fill-opacity:1;fill-rule:nonzero;stroke:none"
         d="m 1223.09,1392.96 c 0,192.88 156.37,349.24 349.28,349.24 192.92,0 349.28,-156.36 349.28,-349.24 0,-192.88 -156.36,-349.24 -349.28,-349.24 -192.91,0 -349.28,156.36 -349.28,349.24" /><path
         id="path96"
         style="fill:#008598;fill-opacity:1;fill-rule:nonzero;stroke:none"
         d="m 1232.95,1397.58 c 0,188.65 152.96,341.58 341.62,341.58 188.69,0 341.64,-152.93 341.64,-341.58 0,-188.65 -152.95,-341.58 -341.64,-341.58 -188.66,0 -341.62,152.93 -341.62,341.58" /><path
         id="path98"
         style="fill:#00869a;fill-opacity:1;fill-rule:nonzero;stroke:none"
         d="m 1242.84,1402.2 c 0,184.42 149.51,333.92 333.95,333.92 184.44,0 333.97,-149.5 333.97,-333.92 0,-184.42 -149.53,-333.91 -333.97,-333.91 -184.44,0 -333.95,149.49 -333.95,333.91" /><path
         id="path100"
         style="fill:#00889c;fill-opacity:1;fill-rule:nonzero;stroke:none"
         d="m 1252.71,1406.82 c 0,180.19 146.08,326.26 326.3,326.26 180.22,0 326.29,-146.07 326.29,-326.26 0,-180.19 -146.07,-326.26 -326.29,-326.26 -180.22,0 -326.3,146.07 -326.3,326.26" /><path
         id="path102"
         style="fill:#00899e;fill-opacity:1;fill-rule:nonzero;stroke:none"
         d="m 1262.59,1411.45 c 0,175.95 142.65,318.59 318.64,318.59 175.97,0 318.62,-142.64 318.62,-318.59 0,-175.97 -142.65,-318.6 -318.62,-318.6 -175.99,0 -318.64,142.63 -318.64,318.6" /><path
         id="path104"
         style="fill:#008aa0;fill-opacity:1;fill-rule:nonzero;stroke:none"
         d="m 1272.46,1416.05 c 0,171.73 139.22,310.94 310.97,310.94 171.75,0 310.98,-139.21 310.98,-310.94 0,-171.71 -139.23,-310.92 -310.98,-310.92 -171.75,0 -310.97,139.21 -310.97,310.92" /><path
         id="path106"
         style="fill:#008ba2;fill-opacity:1;fill-rule:nonzero;stroke:none"
         d="m 1282.34,1420.68 c 0,167.5 135.79,303.27 303.31,303.27 167.51,0 303.31,-135.77 303.31,-303.27 0,-167.48 -135.8,-303.27 -303.31,-303.27 -167.52,0 -303.31,135.79 -303.31,303.27" /><path
         id="path108"
         style="fill:#008ca4;fill-opacity:1;fill-rule:nonzero;stroke:none"
         d="m 1292.23,1425.3 c 0,163.26 132.34,295.61 295.62,295.61 163.3,0 295.66,-132.35 295.66,-295.61 0,-163.26 -132.36,-295.6 -295.66,-295.6 -163.28,0 -295.62,132.34 -295.62,295.6" /><path
         id="path110"
         style="fill:#008da6;fill-opacity:1;fill-rule:nonzero;stroke:none"
         d="m 1302.1,1429.92 c 0,159.03 128.92,287.95 287.97,287.95 159.05,0 287.98,-128.92 287.98,-287.95 0,-159.02 -128.93,-287.94 -287.98,-287.94 -159.05,0 -287.97,128.92 -287.97,287.94" /><path
         id="path112"
         style="fill:#008da6;fill-opacity:1;fill-rule:nonzero;stroke:none"
         d="m 1305.87,1429.92 c 0,159.03 128.93,287.95 287.98,287.95 159.05,0 287.99,-128.92 287.99,-287.95 0,-159.02 -128.94,-287.94 -287.99,-287.94 -159.05,0 -287.98,128.92 -287.98,287.94" /><path
         id="path114"
         style="fill:#0891a8;fill-opacity:1;fill-rule:nonzero;stroke:none"
         d="m 1318.63,1436.4 c 0,153.17 124.17,277.33 277.36,277.33 153.21,0 277.38,-124.16 277.38,-277.33 0,-153.17 -124.17,-277.34 -277.38,-277.34 -153.19,0 -277.36,124.17 -277.36,277.34" /><path
         id="path116"
         style="fill:#1194aa;fill-opacity:1;fill-rule:nonzero;stroke:none"
         d="m 1331.38,1442.88 c 0,147.3 119.42,266.71 266.77,266.71 147.31,0 266.75,-119.41 266.75,-266.71 0,-147.31 -119.44,-266.72 -266.75,-266.72 -147.35,0 -266.77,119.41 -266.77,266.72" /><path
         id="path118"
         style="fill:#1998ab;fill-opacity:1;fill-rule:nonzero;stroke:none"
         d="m 1344.13,1449.34 c 0,141.46 114.69,256.11 256.14,256.11 141.49,0 256.16,-114.65 256.16,-256.11 0,-141.45 -114.67,-256.11 -256.16,-256.11 -141.45,0 -256.14,114.66 -256.14,256.11" /><path
         id="path120"
         style="fill:#229cad;fill-opacity:1;fill-rule:nonzero;stroke:none"
         d="m 1356.88,1455.82 c 0,135.59 109.94,245.5 245.55,245.5 135.59,0 245.53,-109.91 245.53,-245.5 0,-135.59 -109.94,-245.51 -245.53,-245.51 -135.61,0 -245.55,109.92 -245.55,245.51" /><path
         id="path122"
         style="fill:#2ba0af;fill-opacity:1;fill-rule:nonzero;stroke:none"
         d="m 1369.65,1462.29 c 0,129.74 105.17,234.91 234.92,234.91 129.75,0 234.94,-105.17 234.94,-234.91 0,-129.73 -105.19,-234.9 -234.94,-234.9 -129.75,0 -234.92,105.17 -234.92,234.9" /><path
         id="path124"
         style="fill:#34a4b1;fill-opacity:1;fill-rule:nonzero;stroke:none"
         d="m 1382.4,1468.77 c 0,123.87 100.42,224.28 224.31,224.28 123.89,0 224.31,-100.41 224.31,-224.28 0,-123.88 -100.42,-224.29 -224.31,-224.29 -123.89,0 -224.31,100.41 -224.31,224.29" /><path
         id="path126"
         style="fill:#3da8b3;fill-opacity:1;fill-rule:nonzero;stroke:none"
         d="m 1395.15,1475.23 c 0,118.02 95.67,213.69 213.7,213.69 118.03,0 213.72,-95.67 213.72,-213.69 0,-118.01 -95.69,-213.68 -213.72,-213.68 -118.03,0 -213.7,95.67 -213.7,213.68" /><path
         id="path128"
         style="fill:#46acb5;fill-opacity:1;fill-rule:nonzero;stroke:none"
         d="m 1407.9,1481.71 c 0,112.16 90.94,203.07 203.11,203.07 112.17,0 203.09,-90.91 203.09,-203.07 0,-112.15 -90.92,-203.08 -203.09,-203.08 -112.17,0 -203.11,90.93 -203.11,203.08" /><path
         id="path130"
         style="fill:#4fb0b7;fill-opacity:1;fill-rule:nonzero;stroke:none"
         d="m 1420.65,1488.18 c 0,106.3 86.19,192.47 192.5,192.47 106.31,0 192.48,-86.17 192.48,-192.47 0,-106.3 -86.17,-192.46 -192.48,-192.46 -106.31,0 -192.5,86.16 -192.5,192.46" /><path
         id="path132"
         style="fill:#58b4b9;fill-opacity:1;fill-rule:nonzero;stroke:none"
         d="m 1433.41,1494.66 c 0,100.43 81.43,181.85 181.88,181.85 100.45,0 181.87,-81.42 181.87,-181.85 0,-100.44 -81.42,-181.86 -181.87,-181.86 -100.45,0 -181.88,81.42 -181.88,181.86" /><path
         id="path134"
         style="fill:#61b8bb;fill-opacity:1;fill-rule:nonzero;stroke:none"
         d="m 1446.16,1501.13 c 0,94.58 76.68,171.25 171.27,171.25 94.59,0 171.28,-76.67 171.28,-171.25 0,-94.58 -76.69,-171.25 -171.28,-171.25 -94.59,0 -171.27,76.67 -171.27,171.25" /><path
         id="path136"
         style="fill:#6bbcbd;fill-opacity:1;fill-rule:nonzero;stroke:none"
         d="m 1458.91,1507.6 c 0,88.72 71.93,160.65 160.66,160.65 88.73,0 160.67,-71.93 160.67,-160.65 0,-88.72 -71.94,-160.64 -160.67,-160.64 -88.73,0 -160.66,71.92 -160.66,160.64" /><path
         id="path138"
         style="fill:#75c0bf;fill-opacity:1;fill-rule:nonzero;stroke:none"
         d="m 1471.66,1514.08 c 0,82.85 67.19,150.03 150.05,150.03 82.89,0 150.06,-67.18 150.06,-150.03 0,-82.86 -67.17,-150.04 -150.06,-150.04 -82.86,0 -150.05,67.18 -150.05,150.04" /><path
         id="path140"
         style="fill:#7fc4c1;fill-opacity:1;fill-rule:nonzero;stroke:none"
         d="m 1484.41,1520.55 c 0,77 62.44,139.43 139.46,139.43 77.01,0 139.45,-62.43 139.45,-139.43 0,-77.01 -62.44,-139.43 -139.45,-139.43 -77.02,0 -139.46,62.42 -139.46,139.43" /><path
         id="path142"
         style="fill:#89c8c4;fill-opacity:1;fill-rule:nonzero;stroke:none"
         d="m 1497.18,1527.02 c 0,71.14 57.67,128.82 128.83,128.82 71.15,0 128.83,-57.68 128.83,-128.82 0,-71.14 -57.68,-128.82 -128.83,-128.82 -71.16,0 -128.83,57.68 -128.83,128.82" /><path
         id="path144"
         style="fill:#93cdc6;fill-opacity:1;fill-rule:nonzero;stroke:none"
         d="m 1509.93,1533.49 c 0,65.28 52.92,118.21 118.22,118.21 65.3,0 118.23,-52.93 118.23,-118.21 0,-65.28 -52.93,-118.2 -118.23,-118.2 -65.3,0 -118.22,52.92 -118.22,118.2" /><path
         id="path146"
         style="fill:#9dd1c8;fill-opacity:1;fill-rule:nonzero;stroke:none"
         d="m 1522.68,1539.96 c 0,59.43 48.19,107.6 107.62,107.6 59.44,0 107.61,-48.17 107.61,-107.6 0,-59.43 -48.17,-107.6 -107.61,-107.6 -59.43,0 -107.62,48.17 -107.62,107.6" /><path
         id="path148"
         style="fill:#a7d5cb;fill-opacity:1;fill-rule:nonzero;stroke:none"
         d="m 1535.43,1546.44 c 0,53.57 43.44,96.99 97.02,96.99 53.56,0 97,-43.42 97,-96.99 0,-53.57 -43.44,-96.99 -97,-96.99 -53.58,0 -97.02,43.42 -97.02,96.99" /><path
         id="path150"
         style="fill:#b1dacd;fill-opacity:1;fill-rule:nonzero;stroke:none"
         d="m 1548.2,1552.91 c 0,47.71 38.67,86.39 86.39,86.39 47.71,0 86.39,-38.68 86.39,-86.39 0,-47.71 -38.68,-86.38 -86.39,-86.38 -47.72,0 -86.39,38.67 -86.39,86.38" /><path
         id="path152"
         style="fill:#008093;fill-opacity:1;fill-rule:nonzero;stroke:none"
         d="m 1086.98,1105.02 c 29.28,56.76 119.11,62.17 198.11,5.07 79.87,-57.73 104.18,-146.957 58.73,-193.363 -40.52,-41.368 -122.84,-32.758 -187.19,14.953 -63.78,47.289 -95.81,122.62 -69.65,173.34" /><path
         id="path154"
         style="fill:#007d8d;fill-opacity:1;fill-rule:nonzero;stroke:none"
         d="m 1097.62,1104.53 c 27.45,53.21 111.67,58.28 185.73,4.75 74.88,-54.12 97.67,-137.772 55.06,-181.272 -37.98,-38.781 -115.17,-30.719 -175.5,14.008 -59.76,44.336 -89.81,114.964 -65.29,162.514" /><path
         id="path156"
         style="fill:#007a88;fill-opacity:1;fill-rule:nonzero;stroke:none"
         d="m 1108.27,1104.04 c 25.61,49.67 104.22,54.39 173.35,4.44 69.89,-50.52 91.15,-128.589 51.39,-169.191 -35.46,-36.211 -107.49,-28.672 -163.8,13.078 -55.8,41.383 -83.83,107.303 -60.94,151.673" /><path
         id="path158"
         style="fill:#007782;fill-opacity:1;fill-rule:nonzero;stroke:none"
         d="m 1118.91,1103.55 c 23.8,46.12 96.79,50.51 160.97,4.11 64.91,-46.89 84.64,-119.394 47.72,-157.098 -32.92,-33.617 -99.83,-26.624 -152.09,12.149 -51.81,38.419 -77.85,99.629 -56.6,140.839" /><path
         id="path160"
         style="fill:#00747c;fill-opacity:1;fill-rule:nonzero;stroke:none"
         d="m 1129.55,1103.05 c 21.97,42.57 89.35,46.63 148.6,3.81 59.9,-43.3 78.12,-110.219 44.05,-145.016 -30.4,-31.032 -92.15,-24.578 -140.41,11.211 -47.83,35.465 -71.84,91.965 -52.24,129.995" /><path
         id="path162"
         style="fill:#007177;fill-opacity:1;fill-rule:nonzero;stroke:none"
         d="m 1140.21,1102.56 c 20.13,39.03 81.88,42.74 136.2,3.49 54.91,-39.68 71.61,-101.03 40.38,-132.933 -27.86,-28.445 -84.47,-22.523 -128.7,10.281 -43.83,32.512 -65.86,84.302 -47.88,119.162" /><path
         id="path164"
         style="fill:#006e71;fill-opacity:1;fill-rule:nonzero;stroke:none"
         d="m 1150.85,1102.08 c 18.3,35.47 74.44,38.85 123.81,3.16 49.93,-36.08 65.11,-91.84 36.72,-120.849 -25.31,-25.852 -76.78,-20.477 -117,9.351 -39.86,29.558 -59.89,76.638 -43.53,108.338" /><path
         id="path166"
         style="fill:#006b6c;fill-opacity:1;fill-rule:nonzero;stroke:none"
         d="m 1161.49,1101.59 c 16.47,31.93 67,34.96 111.44,2.85 44.94,-32.48 58.59,-82.67 33.05,-108.768 -22.8,-23.274 -69.11,-18.43 -105.32,8.408 -35.86,26.6 -53.87,68.97 -39.17,97.51" /><path
         id="path168"
         style="fill:#006867;fill-opacity:1;fill-rule:nonzero;stroke:none"
         d="m 1172.13,1101.09 c 14.66,28.38 59.57,31.09 99.07,2.53 39.93,-28.85 52.07,-73.47 29.37,-96.67 -20.27,-20.684 -61.44,-16.388 -93.61,7.47 -31.87,23.65 -47.89,61.31 -34.83,86.67" /><path
         id="path170"
         style="fill:#231f20;fill-opacity:1;fill-rule:nonzero;stroke:none"
         d="m 338.32,1396.34 c 182.36,94.11 685.59,151.27 1169.75,151.27 484.14,0 987.39,-57.16 1169.73,-151.27 264.96,-136.75 -199.15,-303.28 -1169.73,-303.28 -970.593,0 -1434.7028,166.53 -1169.75,303.28" /><path
         id="path172"
         style="fill:none;stroke:#231f20;stroke-width:8.8970499;stroke-linecap:butt;stroke-linejoin:miter;stroke-miterlimit:3.86370993;stroke-dasharray:none;stroke-opacity:1"
         d="m 338.32,1396.34 c 182.36,94.11 685.59,151.27 1169.75,151.27 484.14,0 987.39,-57.16 1169.73,-151.27 264.96,-136.75 -199.15,-303.28 -1169.73,-303.28 -970.593,0 -1434.7028,166.53 -1169.75,303.28 z" /><path
         id="path174"
         style="fill:#ffffff;fill-opacity:1;fill-rule:nonzero;stroke:none"
         d="m 1492.74,1544.99 37.92,0 c 4.02,0 7.27,-0.43 7.3,-0.94 l 0.19,-3.08 c 0.03,-0.53 -3.22,-0.96 -7.27,-0.96 l -38.36,0 c -4.04,0 -7.29,0.43 -7.26,0.96 l 0.19,3.08 c 0.03,0.51 3.28,0.94 7.29,0.94" /><path
         id="path176"
         style="fill:#ffffff;fill-opacity:1;fill-rule:nonzero;stroke:none"
         d="m 1490.9,1500.36 41.65,0 c 4.4,0 7.99,-0.52 8.02,-1.15 l 0.22,-3.72 c 0.05,-0.64 -3.53,-1.15 -7.97,-1.15 l -42.17,0 c -4.45,0 -8.02,0.51 -7.97,1.15 l 0.2,3.72 c 0.03,0.63 3.63,1.15 8.02,1.15" /><path
         id="path178"
         style="fill:#ffffff;fill-opacity:1;fill-rule:nonzero;stroke:none"
         d="m 1480.65,1251.22 62.44,0 c 6.57,0 11.98,-1.15 12.06,-2.56 l 0.5,-8.4 c 0.08,-1.46 -5.3,-2.64 -12,-2.64 l -63.55,0 c -6.7,0 -12.08,1.18 -11.98,2.64 l 0.47,8.4 c 0.09,1.41 5.48,2.56 12.06,2.56" /><path
         id="path180"
         style="fill:#ffffff;fill-opacity:1;fill-rule:nonzero;stroke:none"
         d="m 1475.35,1122.16 73.19,0 c 7.72,0 14.06,-1.57 14.17,-3.53 l 0.67,-11.58 c 0.13,-2 -6.17,-3.64 -14.04,-3.64 l -74.77,0 c -7.87,0 -14.17,1.64 -14.06,3.64 l 0.67,11.58 c 0.11,1.96 6.45,3.53 14.17,3.53" /><path
         id="path182"
         style="fill:#ffffff;fill-opacity:1;fill-rule:nonzero;stroke:none"
         d="m 1357.46,1543.17 37.83,0.78 c 3.97,0.08 7.59,-0.27 8.11,-0.79 l 2.98,-3.05 c 0.5,-0.52 -2.33,-1.02 -6.34,-1.1 l -38.24,-0.8 c -4.03,-0.08 -7.67,0.27 -8.14,0.81 l -2.62,3.07 c -0.45,0.52 2.42,1 6.42,1.08" /><path
         id="path184"
         style="fill:#ffffff;fill-opacity:1;fill-rule:nonzero;stroke:none"
         d="m 1396.35,1498.77 41.42,0.93 c 4.36,0.1 8.38,-0.32 8.97,-0.94 l 3.61,-3.69 c 0.61,-0.63 -2.45,-1.23 -6.86,-1.33 l -41.9,-0.95 c -4.43,-0.1 -8.46,0.33 -9,0.97 l -3.19,3.7 c -0.55,0.62 2.58,1.21 6.95,1.31" /><path
         id="path186"
         style="fill:#ffffff;fill-opacity:1;fill-rule:nonzero;stroke:none"
         d="m 1612.23,1252.28 61.14,2.08 c 6.42,0.22 12.72,-0.72 14.06,-2.11 l 8.03,-8.21 c 1.39,-1.43 -2.78,-2.77 -9.33,-2.99 l -62.17,-2.16 c -6.58,-0.22 -12.92,0.76 -14.14,2.19 l -7.12,8.28 c -1.19,1.4 3.07,2.7 9.53,2.92" /><path
         id="path188"
         style="fill:#ffffff;fill-opacity:1;fill-rule:nonzero;stroke:none"
         d="m 1723.3,1125.48 71.08,2.84 c 7.49,0.3 15.03,-0.99 16.88,-2.88 l 11,-11.27 c 1.89,-1.95 -2.72,-3.79 -10.35,-4.1 l -72.51,-2.97 c -7.67,-0.3 -15.28,1.04 -16.99,3.01 l -9.76,11.37 c -1.64,1.9 3.14,3.7 10.65,4" /><path
         id="path190"
         style="fill:#ffffff;fill-opacity:1;fill-rule:nonzero;stroke:none"
         d="m 1223.15,1538.62 37.42,1.55 c 3.94,0.17 7.92,-0.11 8.89,-0.62 l 5.81,-2.98 c 1.02,-0.52 -1.4,-1.07 -5.37,-1.23 l -37.8,-1.61 c -4,-0.16 -8.01,0.12 -8.95,0.65 l -5.5,3 c -0.94,0.52 1.53,1.07 5.5,1.24" /><path
         id="path192"
         style="fill:#ffffff;fill-opacity:1;fill-rule:nonzero;stroke:none"
         d="m 1303.13,1495.12 40.66,1.86 c 4.25,0.2 8.67,-0.13 9.84,-0.74 l 6.97,-3.58 c 1.19,-0.61 -1.34,-1.28 -5.65,-1.47 l -41.08,-1.92 c -4.36,-0.2 -8.8,0.14 -9.94,0.76 l -6.59,3.62 c -1.11,0.61 1.46,1.26 5.79,1.47" /><path
         id="path194"
         style="fill:#ffffff;fill-opacity:1;fill-rule:nonzero;stroke:none"
         d="m 1739.48,1257.8 57.28,4.04 c 6,0.42 12.92,-0.3 15.47,-1.6 l 15.03,-7.74 c 2.61,-1.34 -0.22,-2.78 -6.31,-3.22 l -58.15,-4.17 c -6.17,-0.45 -13.18,0.3 -15.65,1.66 l -14.31,7.85 c -2.43,1.33 0.56,2.75 6.64,3.18" /><path
         id="path196"
         style="fill:#ffffff;fill-opacity:1;fill-rule:nonzero;stroke:none"
         d="m 1959.04,1138.38 65.08,5.44 c 6.81,0.57 15.08,-0.39 18.48,-2.15 l 20.28,-10.44 c 3.52,-1.81 0.78,-3.75 -6.15,-4.35 l -66.16,-5.65 c -7.02,-0.6 -15.44,0.41 -18.8,2.25 l -19.36,10.63 c -3.25,1.79 -0.28,3.69 6.63,4.27" /><path
         id="path198"
         style="fill:#ffffff;fill-opacity:1;fill-rule:nonzero;stroke:none"
         d="m 1090.76,1531.16 36.78,2.36 c 3.86,0.25 8.17,0.07 9.64,-0.43 l 8.67,-2.87 c 1.5,-0.49 -0.45,-1.11 -4.33,-1.36 l -37.07,-2.41 c -3.94,-0.26 -8.29,-0.06 -9.74,0.44 l -8.44,2.92 c -1.42,0.49 0.58,1.1 4.49,1.35" /><path
         id="path200"
         style="fill:#ffffff;fill-opacity:1;fill-rule:nonzero;stroke:none"
         d="m 1212.45,1489.27 39.37,2.81 c 4.14,0.3 8.89,0.06 10.63,-0.51 l 10.29,-3.42 c 1.77,-0.59 -0.15,-1.31 -4.31,-1.61 l -39.72,-2.87 c -4.22,-0.29 -9.03,-0.06 -10.75,0.53 l -10.01,3.46 c -1.69,0.6 0.32,1.32 4.5,1.61" /><path
         id="path202"
         style="fill:#ffffff;fill-opacity:1;fill-rule:nonzero;stroke:none"
         d="m 1857.46,1267.23 51.3,5.77 c 5.34,0.61 12.58,0.13 16.15,-1.05 l 21.18,-7.02 c 3.64,-1.21 2.23,-2.7 -3.18,-3.32 l -51.82,-5.95 c -5.52,-0.63 -12.89,-0.14 -16.46,1.11 l -20.72,7.17 c -3.5,1.21 -1.9,2.68 3.55,3.29" /><path
         id="path204"
         style="fill:#ffffff;fill-opacity:1;fill-rule:nonzero;stroke:none"
         d="m 2170.46,1159.5 55.94,7.57 c 5.83,0.79 14.34,0.17 19.05,-1.38 l 27.84,-9.24 c 4.8,-1.59 3.94,-3.55 -1.95,-4.36 l -56.54,-7.86 c -6.03,-0.84 -14.76,-0.18 -19.48,1.46 l -27.33,9.46 c -4.61,1.59 -3.48,3.54 2.47,4.35" /><path
         id="path206"
         style="fill:#ffffff;fill-opacity:1;fill-rule:nonzero;stroke:none"
         d="m 961.727,1520.8 35.765,3.21 c 3.748,0.33 8.378,0.22 10.348,-0.24 l 11.64,-2.71 c 2,-0.47 0.56,-1.12 -3.21,-1.46 l -35.981,-3.26 c -3.812,-0.35 -8.516,-0.24 -10.484,0.24 l -11.453,2.76 c -1.938,0.47 -0.422,1.13 3.375,1.46" /><path
         id="path208"
         style="fill:#ffffff;fill-opacity:1;fill-rule:nonzero;stroke:none"
         d="m 1125.85,1481.34 37.52,3.73 c 3.92,0.39 8.97,0.27 11.26,-0.27 l 13.63,-3.18 c 2.33,-0.54 1.04,-1.31 -2.91,-1.71 l -37.72,-3.82 c -4.01,-0.39 -9.15,-0.28 -11.47,0.28 l -13.42,3.24 c -2.26,0.56 -0.87,1.33 3.11,1.73" /><path
         id="path210"
         style="fill:#ffffff;fill-opacity:1;fill-rule:nonzero;stroke:none"
         d="m 1961.9,1280.23 43.58,7.18 c 4.53,0.75 11.78,0.53 16.2,-0.5 l 26.14,-6.11 c 4.5,-1.06 4.47,-2.53 -0.08,-3.31 l -43.76,-7.38 c -4.66,-0.79 -12.08,-0.55 -16.57,0.53 l -25.98,6.28 c -4.41,1.06 -4.17,2.54 0.47,3.31" /><path
         id="path212"
         style="fill:#ffffff;fill-opacity:1;fill-rule:nonzero;stroke:none"
         d="m 2348.15,1187.32 44.8,9.15 c 4.65,0.95 12.96,0.66 18.57,-0.65 l 33.28,-7.77 c 5.75,-1.35 6.65,-3.23 1.97,-4.22 l -44.86,-9.44 c -4.79,-1.01 -13.36,-0.69 -19.09,0.69 l -33.19,8.02 c -5.61,1.35 -6.26,3.24 -1.48,4.22" /><path
         id="path214"
         style="fill:#ffffff;fill-opacity:1;fill-rule:nonzero;stroke:none"
         d="m 837.07,1507.41 34.344,4.06 c 3.594,0.43 8.516,0.43 11,0 l 14.656,-2.49 c 2.516,-0.43 1.657,-1.13 -1.937,-1.56 l -34.438,-4.12 c -3.672,-0.44 -8.672,-0.44 -11.187,0 l -14.578,2.54 c -2.485,0.44 -1.516,1.14 2.14,1.57" /><path
         id="path216"
         style="fill:#ffffff;fill-opacity:1;fill-rule:nonzero;stroke:none"
         d="m 1044.38,1471.26 35.02,4.67 c 3.65,0.48 8.94,0.48 11.8,0 l 16.87,-2.88 c 2.92,-0.5 2.31,-1.29 -1.36,-1.78 l -35.09,-4.76 c -3.74,-0.51 -9.13,-0.51 -12,0 l -16.83,2.95 c -2.84,0.49 -2.13,1.3 1.59,1.8" /><path
         id="path218"
         style="fill:#ffffff;fill-opacity:1;fill-rule:nonzero;stroke:none"
         d="m 2049.23,1296.02 34.7,8.25 c 3.61,0.85 10.62,0.85 15.66,0 l 29.81,-5.07 c 5.12,-0.88 6.39,-2.29 2.81,-3.18 l -34.56,-8.45 c -3.69,-0.91 -10.89,-0.91 -16.05,0 l -29.94,5.24 c -5.06,0.89 -6.15,2.32 -2.43,3.21" /><path
         id="path220"
         style="fill:#ffffff;fill-opacity:1;fill-rule:nonzero;stroke:none"
         d="m 2486.43,1219.77 32.75,10.12 c 3.41,1.06 11.14,1.06 17.33,0 l 36.56,-6.22 c 6.3,-1.08 8.69,-2.82 5.33,-3.89 l -32.41,-10.4 c -3.47,-1.11 -11.44,-1.11 -17.78,0 l -36.86,6.45 c -6.23,1.1 -8.44,2.85 -4.92,3.94" /><path
         id="path222"
         style="fill:#ffffff;fill-opacity:1;fill-rule:nonzero;stroke:none"
         d="m 718.648,1490.89 32.422,4.95 c 3.36,0.52 8.547,0.63 11.578,0.26 l 17.813,-2.21 c 3.047,-0.37 2.797,-1.11 -0.578,-1.63 l -32.36,-5.03 c -3.453,-0.53 -8.734,-0.64 -11.796,-0.26 l -17.844,2.27 c -3.031,0.38 -2.688,1.13 0.765,1.65" /><path
         id="path224"
         style="fill:#ffffff;fill-opacity:1;fill-rule:nonzero;stroke:none"
         d="m 969.742,1459.12 31.828,5.58 c 3.31,0.58 8.75,0.71 12.17,0.29 l 20.06,-2.49 c 3.46,-0.43 3.58,-1.25 0.29,-1.84 l -31.74,-5.67 c -3.373,-0.61 -8.952,-0.74 -12.405,-0.29 l -20.156,2.55 c -3.422,0.44 -3.437,1.27 -0.047,1.87" /><path
         id="path226"
         style="fill:#ffffff;fill-opacity:1;fill-rule:nonzero;stroke:none"
         d="m 2117.35,1313.9 25.27,8.96 c 2.62,0.92 9.17,1.13 14.62,0.46 l 32.16,-3.98 c 5.51,-0.69 7.92,-2.01 5.34,-2.96 l -24.81,-9.13 c -2.66,-0.98 -9.36,-1.2 -14.95,-0.48 l -32.57,4.13 c -5.5,0.69 -7.76,2.04 -5.06,3" /><path
         id="path228"
         style="fill:#ffffff;fill-opacity:1;fill-rule:nonzero;stroke:none"
         d="m 2583.48,1254.91 20.81,10.55 c 2.17,1.1 9.09,1.34 15.51,0.55 l 37.86,-4.69 c 6.5,-0.81 10.11,-2.37 8.02,-3.48 l -20.14,-10.78 c -2.16,-1.15 -9.28,-1.41 -15.89,-0.57 l -38.42,4.88 c -6.52,0.82 -9.97,2.41 -7.75,3.54" /><path
         id="path230"
         style="fill:#ffffff;fill-opacity:1;fill-rule:nonzero;stroke:none"
         d="m 608.617,1471.09 29.828,5.88 c 3.102,0.61 8.516,0.85 12.086,0.55 l 21.039,-1.84 c 3.61,-0.32 4.047,-1.07 0.953,-1.69 l -29.593,-5.94 c -3.164,-0.63 -8.688,-0.89 -12.328,-0.57 l -21.219,1.9 c -3.617,0.32 -3.953,1.08 -0.766,1.71" /><path
         id="path232"
         style="fill:#ffffff;fill-opacity:1;fill-rule:nonzero;stroke:none"
         d="m 903.68,1444.93 27.843,6.47 c 2.891,0.67 8.438,0.94 12.375,0.59 l 23.141,-2.01 c 3.984,-0.35 4.875,-1.18 2.016,-1.86 l -27.578,-6.54 c -2.938,-0.7 -8.594,-0.98 -12.61,-0.63 l -23.39,2.09 c -3.954,0.35 -4.782,1.19 -1.797,1.89" /><path
         id="path234"
         style="fill:#ffffff;fill-opacity:1;fill-rule:nonzero;stroke:none"
         d="m 2165.52,1333.05 15.77,9.32 c 1.64,0.97 7.55,1.34 13.19,0.85 l 33.26,-2.89 c 5.72,-0.49 9.08,-1.7 7.52,-2.67 l -15.1,-9.46 c -1.62,-1 -7.65,-1.41 -13.45,-0.9 l -33.83,3.02 c -5.75,0.51 -9.04,1.73 -7.36,2.73" /><path
         id="path236"
         style="fill:#ffffff;fill-opacity:1;fill-rule:nonzero;stroke:none"
         d="m 2640.85,1290.91 9.69,10.51 c 1,1.1 6.98,1.53 13.34,0.97 l 37.57,-3.27 c 6.45,-0.55 10.93,-1.91 10.01,-3.01 l -8.83,-10.68 c -0.95,-1.15 -7.04,-1.6 -13.62,-1.02 l -38.28,3.41 c -6.5,0.57 -10.93,1.96 -9.88,3.09" /><path
         id="path238"
         style="fill:#ffffff;fill-opacity:1;fill-rule:nonzero;stroke:none"
         d="m 509.945,1447.94 26.422,6.81 c 2.75,0.71 8.336,1.09 12.461,0.87 l 24.344,-1.35 c 4.164,-0.23 5.359,-1 2.656,-1.72 l -26.039,-6.87 c -2.781,-0.74 -8.461,-1.14 -12.695,-0.9 l -24.664,1.4 c -4.203,0.23 -5.313,1.02 -2.485,1.76" /><path
         id="path240"
         style="fill:#ffffff;fill-opacity:1;fill-rule:nonzero;stroke:none"
         d="m 848.383,1428.8 23,7.31 c 2.39,0.76 7.906,1.17 12.344,0.92 l 26.031,-1.44 c 4.453,-0.25 6.172,-1.07 3.828,-1.83 l -22.547,-7.36 c -2.406,-0.79 -8.031,-1.22 -12.562,-0.97 l -26.422,1.5 c -4.5,0.25 -6.125,1.09 -3.672,1.87" /><path
         id="path242"
         style="fill:#ffffff;fill-opacity:1;fill-rule:nonzero;stroke:none"
         d="m 2194.01,1352.77 6.56,9.35 c 0.67,0.97 5.81,1.5 11.48,1.19 l 33.3,-1.85 c 5.72,-0.31 9.86,-1.36 9.25,-2.34 l -5.8,-9.45 c -0.62,-1.01 -5.84,-1.57 -11.65,-1.23 l -33.97,1.92 c -5.78,0.33 -9.88,1.41 -9.17,2.41" /><path
         id="path244"
         style="fill:#ffffff;fill-opacity:1;fill-rule:nonzero;stroke:none"
         d="m 2661.96,1326.33 -0.2,10.13 c -0.03,1.05 4.9,1.63 11.04,1.28 l 36.05,-2 c 6.17,-0.34 11.27,-1.48 11.38,-2.54 l 1.11,-10.23 c 0.12,-1.09 -4.91,-1.7 -11.19,-1.35 l -36.81,2.09 c -6.27,0.36 -11.35,1.52 -11.38,2.62" /><path
         id="path246"
         style="fill:#ffffff;fill-opacity:1;fill-rule:nonzero;stroke:none"
         d="m 425.266,1421.37 22.039,7.77 c 2.289,0.81 7.953,1.36 12.664,1.24 l 27.625,-0.76 c 4.726,-0.13 6.75,-0.89 4.515,-1.69 l -21.461,-7.81 c -2.304,-0.84 -8.07,-1.41 -12.875,-1.27 l -28.109,0.77 c -4.797,0.14 -6.758,0.91 -4.398,1.75" /><path
         id="path248"
         style="fill:#ffffff;fill-opacity:1;fill-rule:nonzero;stroke:none"
         d="m 805.273,1410.91 17.235,8.06 c 1.797,0.83 7.187,1.41 12.062,1.27 l 28.625,-0.77 c 4.907,-0.13 7.469,-0.92 5.75,-1.76 l -16.64,-8.09 c -1.782,-0.87 -7.266,-1.46 -12.25,-1.32 l -29.141,0.8 c -4.969,0.13 -7.484,0.95 -5.641,1.81" /><path
         id="path250"
         style="fill:#ffffff;fill-opacity:1;fill-rule:nonzero;stroke:none"
         d="m 2203.01,1372.45 -2,9.14 c -0.22,0.94 4.09,1.58 9.62,1.43 l 32.42,-0.87 c 5.54,-0.15 10.25,-1.05 10.55,-1.99 l 2.78,-9.18 c 0.32,-0.99 -4.04,-1.66 -9.68,-1.5 l -33.1,0.91 c -5.64,0.15 -10.37,1.07 -10.59,2.06" /><path
         id="path252"
         style="fill:#ffffff;fill-opacity:1;fill-rule:nonzero;stroke:none"
         d="m 2650.68,1360.12 -8.69,9.5 c -0.9,0.99 3.02,1.65 8.75,1.5 l 33.69,-0.91 c 5.77,-0.16 11.23,-1.09 12.22,-2.07 l 9.53,-9.55 c 1.03,-1.01 -2.91,-1.71 -8.8,-1.54 l -34.4,0.93 c -5.86,0.18 -11.38,1.13 -12.3,2.14" /><path
         id="path254"
         style="fill:#ffffff;fill-opacity:1;fill-rule:nonzero;stroke:none"
         d="m 359.234,1391.46 16.477,8.7 c 1.711,0.91 7.344,1.64 12.601,1.64 l 30.813,0 c 5.25,0 8.203,-0.73 6.578,-1.63 l -15.758,-8.7 c -1.687,-0.93 -7.406,-1.7 -12.765,-1.7 l -31.422,0 c -5.367,0 -8.281,0.77 -6.524,1.69" /><path
         id="path256"
         style="fill:#ffffff;fill-opacity:1;fill-rule:nonzero;stroke:none"
         d="m 777.227,1391.48 10.484,8.7 c 1.109,0.91 6.234,1.63 11.5,1.63 l 30.797,0 c 5.265,0 8.703,-0.72 7.687,-1.62 l -9.75,-8.71 c -1.062,-0.93 -6.265,-1.69 -11.625,-1.69 l -31.422,0 c -5.359,0 -8.796,0.76 -7.671,1.69" /><path
         id="path258"
         style="fill:#ffffff;fill-opacity:1;fill-rule:nonzero;stroke:none"
         d="m 2194.63,1391.52 -9.75,8.71 c -1.03,0.89 2.42,1.63 7.67,1.63 l 30.82,0 c 5.25,0 10.39,-0.74 11.48,-1.63 l 10.49,-8.7 c 1.12,-0.93 -2.32,-1.69 -7.68,-1.69 l -31.42,0 c -5.36,0 -10.54,0.76 -11.61,1.68" /><path
         id="path260"
         style="fill:#ffffff;fill-opacity:1;fill-rule:nonzero;stroke:none"
         d="m 2612.54,1391.54 -15.74,8.7 c -1.62,0.9 1.32,1.63 6.57,1.63 l 30.79,0.01 c 5.25,0 10.91,-0.74 12.61,-1.64 l 16.47,-8.7 c 1.75,-0.93 -1.15,-1.69 -6.51,-1.69 l -31.43,0 c -5.35,0 -11.07,0.76 -12.76,1.69" /><path
         id="path262"
         style="fill:#ffffff;fill-opacity:1;fill-rule:nonzero;stroke:none"
         d="m 316.133,1358.44 9.539,9.54 c 0.984,0.99 6.453,1.91 12.219,2.07 l 33.687,0.91 c 5.75,0.16 9.664,-0.51 8.766,-1.5 l -8.68,-9.49 c -0.93,-1.02 -6.437,-1.99 -12.312,-2.15 l -34.407,-0.94 c -5.89,-0.18 -9.843,0.53 -8.812,1.56" /><path
         id="path264"
         style="fill:#ffffff;fill-opacity:1;fill-rule:nonzero;stroke:none"
         d="m 766.055,1370.84 2.797,9.19 c 0.281,0.95 5.015,1.84 10.562,1.99 l 32.422,0.89 c 5.531,0.14 9.844,-0.5 9.641,-1.45 l -2.016,-9.14 c -0.203,-0.98 -4.953,-1.91 -10.594,-2.06 l -33.094,-0.91 c -5.671,-0.15 -10.015,0.51 -9.718,1.49" /><path
         id="path266"
         style="fill:#ffffff;fill-opacity:1;fill-rule:nonzero;stroke:none"
         d="m 2170.29,1409.59 -16.63,8.09 c -1.73,0.84 0.85,1.63 5.74,1.77 l 28.62,0.77 c 4.88,0.13 10.28,-0.44 12.07,-1.27 l 17.23,-8.06 c 1.86,-0.86 -0.67,-1.68 -5.64,-1.81 l -29.14,-0.81 c -4.99,-0.14 -10.49,0.46 -12.25,1.32" /><path
         id="path268"
         style="fill:#ffffff;fill-opacity:1;fill-rule:nonzero;stroke:none"
         d="m 2551.91,1420.12 -21.46,7.82 c -2.24,0.8 -0.21,1.56 4.51,1.68 l 27.63,0.76 c 4.7,0.13 10.37,-0.42 12.67,-1.23 l 22.03,-7.77 c 2.36,-0.84 0.39,-1.62 -4.39,-1.76 l -28.11,-0.77 c -4.81,-0.14 -10.58,0.44 -12.88,1.27" /><path
         id="path270"
         style="fill:#ffffff;fill-opacity:1;fill-rule:nonzero;stroke:none"
         d="m 301.164,1322.73 1.109,10.25 c 0.125,1.06 5.227,2.19 11.399,2.54 l 36.062,2 c 6.125,0.34 11.078,-0.24 11.063,-1.29 l -0.211,-10.14 c -0.031,-1.07 -5.117,-2.25 -11.383,-2.61 l -36.828,-2.09 c -6.305,-0.35 -11.328,0.25 -11.211,1.34" /><path
         id="path272"
         style="fill:#ffffff;fill-opacity:1;fill-rule:nonzero;stroke:none"
         d="m 773.883,1349.48 -5.781,9.46 c -0.61,0.97 3.531,2.02 9.25,2.34 l 33.296,1.85 c 5.688,0.32 10.829,-0.21 11.5,-1.18 l 6.563,-9.36 c 0.703,-1 -3.391,-2.09 -9.172,-2.41 l -33.969,-1.94 c -5.828,-0.33 -11.047,0.23 -11.687,1.24" /><path
         id="path274"
         style="fill:#ffffff;fill-opacity:1;fill-rule:nonzero;stroke:none"
         d="m 2131.88,1426.33 -22.54,7.36 c -2.35,0.76 -0.63,1.59 3.82,1.83 l 26.04,1.45 c 4.43,0.25 9.95,-0.17 12.34,-0.92 l 23.01,-7.31 c 2.46,-0.78 0.82,-1.62 -3.68,-1.87 l -26.41,-1.51 c -4.53,-0.25 -10.16,0.18 -12.58,0.97" /><path
         id="path276"
         style="fill:#ffffff;fill-opacity:1;fill-rule:nonzero;stroke:none"
         d="m 2473.12,1445.63 -26.03,6.89 c -2.71,0.71 -1.52,1.48 2.65,1.71 l 24.33,1.35 c 4.14,0.23 9.72,-0.16 12.47,-0.86 l 26.44,-6.83 c 2.81,-0.73 1.7,-1.51 -2.5,-1.76 l -24.66,-1.4 c -4.22,-0.23 -9.91,0.17 -12.7,0.9" /><path
         id="path278"
         style="fill:#ffffff;fill-opacity:1;fill-rule:nonzero;stroke:none"
         d="m 319.586,1285.03 -8.82,10.7 c -0.914,1.11 3.562,2.46 10.015,3.02 l 37.586,3.27 c 6.375,0.56 12.352,0.13 13.367,-0.97 l 9.68,-10.53 c 1.039,-1.12 -3.391,-2.51 -9.883,-3.09 l -38.312,-3.41 c -6.578,-0.59 -12.672,-0.13 -13.633,1.01" /><path
         id="path280"
         style="fill:#ffffff;fill-opacity:1;fill-rule:nonzero;stroke:none"
         d="m 802.352,1327.89 -15.11,9.45 c -1.578,0.99 1.797,2.18 7.516,2.68 l 33.297,2.9 c 5.656,0.49 11.547,0.11 13.187,-0.86 l 15.766,-9.32 c 1.687,-1 -1.61,-2.22 -7.36,-2.73 l -33.843,-3.02 c -5.813,-0.51 -11.844,-0.11 -13.453,0.9" /><path
         id="path282"
         style="fill:#ffffff;fill-opacity:1;fill-rule:nonzero;stroke:none"
         d="m 2081.41,1441.44 -27.57,6.54 c -2.88,0.68 -1.97,1.51 2.01,1.86 l 23.14,2.01 c 3.94,0.35 9.47,0.08 12.38,-0.59 l 27.84,-6.47 c 2.97,-0.7 2.17,-1.54 -1.81,-1.89 l -23.38,-2.09 c -4.01,-0.35 -9.65,-0.08 -12.61,0.63" /><path
         id="path284"
         style="fill:#ffffff;fill-opacity:1;fill-rule:nonzero;stroke:none"
         d="m 2379.99,1467.94 -29.62,5.94 c -3.1,0.63 -2.66,1.38 0.95,1.69 l 21.05,1.83 c 3.58,0.32 8.98,0.07 12.09,-0.54 l 29.83,-5.88 c 3.19,-0.62 2.84,-1.39 -0.77,-1.71 l -21.22,-1.89 c -3.64,-0.33 -9.15,-0.08 -12.31,0.56" /><path
         id="path286"
         style="fill:#ffffff;fill-opacity:1;fill-rule:nonzero;stroke:none"
         d="m 377.242,1246.54 -20.156,10.79 c -2.094,1.12 1.5,2.68 8.023,3.49 l 37.875,4.7 c 6.43,0.79 13.368,0.55 15.532,-0.54 l 20.82,-10.57 c 2.234,-1.13 -1.227,-2.72 -7.734,-3.55 l -38.469,-4.89 c -6.602,-0.85 -13.742,-0.58 -15.891,0.57" /><path
         id="path288"
         style="fill:#ffffff;fill-opacity:1;fill-rule:nonzero;stroke:none"
         d="m 853.148,1306.84 -24.843,9.14 c -2.578,0.95 -0.188,2.27 5.359,2.96 l 32.172,3.99 c 5.453,0.68 11.984,0.48 14.609,-0.46 l 25.297,-8.97 c 2.703,-0.95 0.438,-2.3 -5.078,-3.01 l -32.562,-4.13 c -5.594,-0.71 -12.297,-0.5 -14.954,0.48" /><path
         id="path290"
         style="fill:#ffffff;fill-opacity:1;fill-rule:nonzero;stroke:none"
         d="m 2020.99,1454.8 -31.73,5.68 c -3.31,0.59 -3.19,1.42 0.26,1.85 l 20.07,2.48 c 3.42,0.42 8.86,0.3 12.17,-0.29 l 31.84,-5.58 c 3.39,-0.59 3.38,-1.42 -0.03,-1.86 l -20.17,-2.57 c -3.45,-0.44 -9.02,-0.31 -12.41,0.29" /><path
         id="path292"
         style="fill:#ffffff;fill-opacity:1;fill-rule:nonzero;stroke:none"
         d="m 2275.8,1487.09 -32.37,5.03 c -3.38,0.52 -3.63,1.26 -0.58,1.63 l 17.81,2.21 c 3.02,0.38 8.21,0.26 11.6,-0.26 l 32.42,-4.94 c 3.45,-0.53 3.81,-1.28 0.78,-1.66 l -17.86,-2.27 c -3.06,-0.38 -8.34,-0.27 -11.8,0.26" /><path
         id="path294"
         style="fill:#ffffff;fill-opacity:1;fill-rule:nonzero;stroke:none"
         d="m 476.984,1208.72 -32.422,10.41 c -3.374,1.08 -0.968,2.83 5.336,3.9 l 36.571,6.24 c 6.187,1.06 13.945,1.06 17.359,0 l 32.774,-10.14 c 3.5,-1.08 1.312,-2.85 -4.93,-3.94 l -36.883,-6.47 c -6.351,-1.11 -14.336,-1.11 -17.805,0" /><path
         id="path296"
         style="fill:#ffffff;fill-opacity:1;fill-rule:nonzero;stroke:none"
         d="m 925.633,1287.07 -34.578,8.46 c -3.594,0.88 -2.328,2.31 2.797,3.18 l 29.828,5.09 c 5.047,0.86 12.062,0.86 15.672,0 l 34.75,-8.27 c 3.703,-0.88 2.609,-2.32 -2.454,-3.2 l -29.968,-5.26 c -5.172,-0.91 -12.344,-0.91 -16.047,0" /><path
         id="path298"
         style="fill:#ffffff;fill-opacity:1;fill-rule:nonzero;stroke:none"
         d="m 1951.9,1466.3 -35.11,4.75 c -3.67,0.5 -4.27,1.3 -1.38,1.79 l 16.88,2.88 c 2.87,0.49 8.16,0.49 11.81,0.01 l 35.03,-4.68 c 3.74,-0.5 4.46,-1.31 1.61,-1.8 l -16.83,-2.95 c -2.89,-0.51 -8.28,-0.51 -12.01,0" /><path
         id="path300"
         style="fill:#ffffff;fill-opacity:1;fill-rule:nonzero;stroke:none"
         d="m 2162.8,1503.12 -34.46,4.13 c -3.6,0.43 -4.46,1.13 -1.94,1.56 l 14.65,2.49 c 2.49,0.43 7.41,0.43 11.02,0.01 l 34.36,-4.06 c 3.66,-0.43 4.62,-1.13 2.14,-1.56 l -14.58,-2.57 c -2.51,-0.44 -7.53,-0.44 -11.19,0" /><path
         id="path302"
         style="fill:#ffffff;fill-opacity:1;fill-rule:nonzero;stroke:none"
         d="M 621.844,1173.55 576.93,1183 c -4.68,0.98 -3.797,2.88 1.953,4.22 l 33.305,7.8 c 5.624,1.31 13.945,1.6 18.609,0.65 l 44.836,-9.16 c 4.789,-0.99 4.148,-2.88 -1.461,-4.24 l -33.227,-8.04 c -5.75,-1.39 -14.304,-1.7 -19.101,-0.68" /><path
         id="path304"
         style="fill:#ffffff;fill-opacity:1;fill-rule:nonzero;stroke:none"
         d="m 1019.98,1269.48 -43.785,7.4 c -4.562,0.77 -4.609,2.24 -0.093,3.3 l 26.158,6.12 c 4.42,1.04 11.67,1.26 16.22,0.52 l 43.61,-7.2 c 4.65,-0.77 4.87,-2.25 0.48,-3.32 l -26,-6.29 c -4.47,-1.08 -11.91,-1.32 -16.59,-0.53" /><path
         id="path306"
         style="fill:#ffffff;fill-opacity:1;fill-rule:nonzero;stroke:none"
         d="m 1876.4,1475.83 -37.77,3.82 c -3.95,0.39 -5.25,1.16 -2.89,1.71 l 13.6,3.19 c 2.31,0.54 7.36,0.65 11.28,0.26 l 37.53,-3.74 c 4,-0.4 5.39,-1.17 3.11,-1.72 l -13.42,-3.24 c -2.3,-0.56 -7.44,-0.7 -11.44,-0.28" /><path
         id="path308"
         style="fill:#ffffff;fill-opacity:1;fill-rule:nonzero;stroke:none"
         d="m 2043.65,1516.12 -36,3.27 c -3.77,0.34 -5.19,0.99 -3.19,1.46 l 11.61,2.72 c 1.98,0.46 6.61,0.56 10.34,0.23 l 35.8,-3.2 c 3.8,-0.34 5.31,-1 3.38,-1.47 l -11.44,-2.76 c -1.97,-0.48 -6.69,-0.59 -10.5,-0.25" /><path
         id="path310"
         style="fill:#ffffff;fill-opacity:1;fill-rule:nonzero;stroke:none"
         d="m 809.727,1143.34 -56.61,7.86 c -5.906,0.82 -6.781,2.79 -1.953,4.39 l 27.844,9.25 c 4.687,1.56 13.219,2.18 19.062,1.39 l 56,-7.6 c 5.969,-0.79 7.094,-2.75 2.485,-4.34 l -27.328,-9.5 c -4.735,-1.63 -13.485,-2.29 -19.5,-1.45" /><path
         id="path312"
         style="fill:#ffffff;fill-opacity:1;fill-rule:nonzero;stroke:none"
         d="m 1133.45,1255.02 -51.88,5.96 c -5.42,0.61 -6.83,2.1 -3.17,3.32 l 21.15,7.03 c 3.58,1.19 10.82,1.66 16.19,1.05 l 51.33,-5.76 c 5.45,-0.62 7.06,-2.1 3.56,-3.32 l -20.7,-7.18 c -3.58,-1.24 -10.97,-1.74 -16.48,-1.1" /><path
         id="path314"
         style="fill:#ffffff;fill-opacity:1;fill-rule:nonzero;stroke:none"
         d="m 1795.49,1483.41 -39.72,2.87 c -4.17,0.31 -6.11,1.02 -4.32,1.61 l 10.28,3.42 c 1.73,0.58 6.5,0.81 10.62,0.52 l 39.39,-2.81 c 4.17,-0.3 6.21,-1.02 4.52,-1.61 l -10,-3.46 c -1.72,-0.61 -6.55,-0.84 -10.77,-0.54" /><path
         id="path316"
         style="fill:#ffffff;fill-opacity:1;fill-rule:nonzero;stroke:none"
         d="m 1919.65,1526.24 -37.1,2.42 c -3.87,0.25 -5.82,0.86 -4.32,1.36 l 8.67,2.87 c 1.45,0.49 5.76,0.69 9.64,0.43 l 36.78,-2.37 c 3.91,-0.24 5.92,-0.85 4.5,-1.35 l -8.42,-2.91 c -1.45,-0.51 -5.83,-0.71 -9.75,-0.45" /><path
         id="path318"
         style="fill:#ffffff;fill-opacity:1;fill-rule:nonzero;stroke:none"
         d="m 1034.18,1120.16 -66.235,5.65 c -6.937,0.59 -9.687,2.54 -6.187,4.35 l 20.297,10.48 c 3.406,1.76 11.687,2.72 18.495,2.15 l 65.16,-5.44 c 6.92,-0.58 9.91,-2.5 6.66,-4.29 l -19.38,-10.65 c -3.34,-1.85 -11.76,-2.86 -18.81,-2.25" /><path
         id="path320"
         style="fill:#ffffff;fill-opacity:1;fill-rule:nonzero;stroke:none"
         d="m 1261.88,1244.34 -58.2,4.18 c -6.11,0.43 -8.92,1.88 -6.33,3.22 l 15.03,7.76 c 2.53,1.3 9.46,2.02 15.47,1.59 l 57.35,-4.04 c 6.07,-0.43 9.07,-1.85 6.65,-3.17 l -14.31,-7.88 c -2.47,-1.37 -9.5,-2.11 -15.66,-1.66" /><path
         id="path322"
         style="fill:#ffffff;fill-opacity:1;fill-rule:nonzero;stroke:none"
         d="m 1710.4,1488.96 -41.13,1.91 c -4.31,0.21 -6.82,0.86 -5.64,1.48 l 6.96,3.59 c 1.15,0.6 5.57,0.94 9.84,0.74 l 40.69,-1.88 c 4.31,-0.19 6.9,-0.85 5.78,-1.46 l -6.58,-3.62 c -1.12,-0.62 -5.58,-0.96 -9.92,-0.76" /><path
         id="path324"
         style="fill:#ffffff;fill-opacity:1;fill-rule:nonzero;stroke:none"
         d="m 1792.04,1533.48 -37.81,1.61 c -3.99,0.17 -6.39,0.71 -5.39,1.23 l 5.79,2.99 c 0.99,0.5 4.96,0.78 8.89,0.63 l 37.47,-1.57 c 3.97,-0.17 6.42,-0.71 5.5,-1.22 l -5.5,-3.03 c -0.94,-0.52 -4.95,-0.81 -8.95,-0.64" /><path
         id="path326"
         style="fill:#ffffff;fill-opacity:1;fill-rule:nonzero;stroke:none"
         d="m 1286.98,1105.97 -72.63,2.96 c -7.62,0.32 -12.26,2.16 -10.36,4.12 l 10.96,11.29 c 1.84,1.9 9.39,3.19 16.87,2.89 l 71.17,-2.85 c 7.55,-0.29 12.33,-2.08 10.71,-4 l -9.74,-11.4 c -1.69,-1.97 -9.3,-3.33 -16.98,-3.01" /><path
         id="path328"
         style="fill:#ffffff;fill-opacity:1;fill-rule:nonzero;stroke:none"
         d="m 1401.95,1238.09 -62.25,2.16 c -6.55,0.23 -10.72,1.57 -9.35,2.99 l 8,8.24 c 1.35,1.39 7.64,2.33 14.08,2.11 l 61.17,-2.07 c 6.49,-0.23 10.77,-1.54 9.58,-2.93 l -7.09,-8.31 c -1.24,-1.43 -7.57,-2.41 -14.14,-2.19" /><path
         id="path330"
         style="fill:#ffffff;fill-opacity:1;fill-rule:nonzero;stroke:none"
         d="m 1623.26,1492.48 -41.92,0.95 c -4.41,0.09 -7.49,0.7 -6.86,1.34 l 3.56,3.68 c 0.61,0.62 4.64,1.05 9,0.95 l 41.44,-0.94 c 4.39,-0.09 7.48,-0.68 6.95,-1.3 l -3.16,-3.71 c -0.53,-0.64 -4.59,-1.07 -9.01,-0.97" /><path
         id="path332"
         style="fill:#ffffff;fill-opacity:1;fill-rule:nonzero;stroke:none"
         d="m 1662.84,1537.96 -38.24,0.8 c -4.03,0.08 -6.86,0.57 -6.36,1.1 l 2.97,3.05 c 0.5,0.53 4.13,0.88 8.13,0.8 l 37.82,-0.78 c 4,-0.09 6.88,-0.57 6.44,-1.09 l -2.62,-3.07 c -0.46,-0.54 -4.1,-0.89 -8.14,-0.81" /><path
         id="path334"
         style="fill:#fef4e1;fill-opacity:1;fill-rule:nonzero;stroke:none"
         d="m 864.523,1396.34 c 59.938,55.93 345.387,94.21 646.927,94.21 301.51,0 586.95,-38.28 646.9,-94.21 73.58,-68.68 -208.56,-136.96 -646.9,-136.96 -438.35,0 -720.52,68.28 -646.927,136.96" /><g
         id="g336"><g
           clip-path="url(#clipPath340)"
           id="g338"><path
             id="path344"
             style="fill:#006867;fill-opacity:1;fill-rule:nonzero;stroke:none"
             d="m 966.273,1272.81 c 0,302.92 245.597,548.47 548.547,548.47 302.94,0 548.53,-245.55 548.53,-548.47 0,-302.896 -245.59,-548.451 -548.53,-548.451 -302.95,0 -548.547,245.555 -548.547,548.451" /><path
             id="path346"
             style="fill:#006969;fill-opacity:1;fill-rule:nonzero;stroke:none"
             d="m 976.148,1277.44 c 0,298.68 242.152,540.79 540.872,540.79 298.74,0 540.88,-242.11 540.88,-540.79 0,-298.682 -242.14,-540.807 -540.88,-540.807 -298.72,0 -540.872,242.125 -540.872,540.807" /><path
             id="path348"
             style="fill:#006a6a;fill-opacity:1;fill-rule:nonzero;stroke:none"
             d="m 986.039,1282.06 c 0,294.45 238.721,533.14 533.201,533.14 294.49,0 533.21,-238.69 533.21,-533.14 0,-294.451 -238.72,-533.138 -533.21,-533.138 -294.48,0 -533.201,238.687 -533.201,533.138" /><path
             id="path350"
             style="fill:#006b6c;fill-opacity:1;fill-rule:nonzero;stroke:none"
             d="m 995.914,1286.68 c 0,290.21 235.296,525.47 525.536,525.47 290.26,0 525.56,-235.26 525.56,-525.47 0,-290.211 -235.3,-525.469 -525.56,-525.469 -290.24,0 -525.536,235.258 -525.536,525.469" /><path
             id="path352"
             style="fill:#006c6e;fill-opacity:1;fill-rule:nonzero;stroke:none"
             d="m 1005.79,1291.3 c 0,285.98 231.86,517.82 517.87,517.82 286.04,0 517.89,-231.84 517.89,-517.82 0,-285.98 -231.85,-517.808 -517.89,-517.808 -286.01,0 -517.87,231.828 -517.87,517.808" /><path
             id="path354"
             style="fill:#006d6f;fill-opacity:1;fill-rule:nonzero;stroke:none"
             d="m 1015.66,1295.92 c 0,281.75 228.44,510.15 510.22,510.15 281.78,0 510.22,-228.4 510.22,-510.15 0,-281.75 -228.44,-510.147 -510.22,-510.147 -281.78,0 -510.22,228.397 -510.22,510.147" /><path
             id="path356"
             style="fill:#006e71;fill-opacity:1;fill-rule:nonzero;stroke:none"
             d="m 1025.54,1300.55 c 0,277.51 225,502.48 502.56,502.48 277.56,0 502.55,-224.97 502.55,-502.48 0,-277.53 -224.99,-502.495 -502.55,-502.495 -277.56,0 -502.56,224.965 -502.56,502.495" /><path
             id="path358"
             style="fill:#007073;fill-opacity:1;fill-rule:nonzero;stroke:none"
             d="m 1035.41,1305.16 c 0,273.29 221.58,494.82 494.89,494.82 273.33,0 494.9,-221.53 494.9,-494.82 0,-273.28 -221.57,-494.816 -494.9,-494.816 -273.31,0 -494.89,221.536 -494.89,494.816" /><path
             id="path360"
             style="fill:#007175;fill-opacity:1;fill-rule:nonzero;stroke:none"
             d="m 1045.29,1309.78 c 0,269.06 218.14,487.17 487.23,487.17 269.1,0 487.24,-218.11 487.24,-487.17 0,-269.05 -218.14,-487.163 -487.24,-487.163 -269.09,0 -487.23,218.113 -487.23,487.163" /><path
             id="path362"
             style="fill:#007276;fill-opacity:1;fill-rule:nonzero;stroke:none"
             d="m 1055.18,1314.41 c 0,264.82 214.69,479.5 479.55,479.5 264.86,0 479.57,-214.68 479.57,-479.5 0,-264.83 -214.71,-479.504 -479.57,-479.504 -264.86,0 -479.55,214.674 -479.55,479.504" /><path
             id="path364"
             style="fill:#007378;fill-opacity:1;fill-rule:nonzero;stroke:none"
             d="m 1065.05,1319.02 c 0,260.6 211.27,471.85 471.9,471.85 260.64,0 471.9,-211.25 471.9,-471.85 0,-260.59 -211.26,-471.832 -471.9,-471.832 -260.63,0 -471.9,211.242 -471.9,471.832" /><path
             id="path366"
             style="fill:#00747a;fill-opacity:1;fill-rule:nonzero;stroke:none"
             d="m 1074.91,1323.64 c 0,256.37 207.86,464.18 464.25,464.18 256.39,0 464.25,-207.81 464.25,-464.18 0,-256.35 -207.86,-464.171 -464.25,-464.171 -256.39,0 -464.25,207.821 -464.25,464.171" /><path
             id="path368"
             style="fill:#00757c;fill-opacity:1;fill-rule:nonzero;stroke:none"
             d="m 1084.8,1328.27 c 0,252.13 204.41,456.51 456.58,456.51 252.16,0 456.58,-204.38 456.58,-456.51 0,-252.14 -204.42,-456.52 -456.58,-456.52 -252.17,0 -456.58,204.38 -456.58,456.52" /><path
             id="path370"
             style="fill:#00767e;fill-opacity:1;fill-rule:nonzero;stroke:none"
             d="m 1094.68,1332.89 c 0,247.89 200.98,448.84 448.91,448.84 247.93,0 448.92,-200.95 448.92,-448.84 0,-247.9 -200.99,-448.851 -448.92,-448.851 -247.93,0 -448.91,200.951 -448.91,448.851" /><path
             id="path372"
             style="fill:#007780;fill-opacity:1;fill-rule:nonzero;stroke:none"
             d="m 1104.55,1337.51 c 0,243.66 197.55,441.19 441.25,441.19 243.69,0 441.25,-197.53 441.25,-441.19 0,-243.67 -197.56,-441.198 -441.25,-441.198 -243.7,0 -441.25,197.528 -441.25,441.198" /><path
             id="path374"
             style="fill:#007881;fill-opacity:1;fill-rule:nonzero;stroke:none"
             d="m 1114.43,1342.13 c 0,239.43 194.12,433.53 433.59,433.53 239.47,0 433.58,-194.1 433.58,-433.53 0,-239.43 -194.11,-433.528 -433.58,-433.528 -239.47,0 -433.59,194.098 -433.59,433.528" /><path
             id="path376"
             style="fill:#007983;fill-opacity:1;fill-rule:nonzero;stroke:none"
             d="m 1124.3,1346.75 c 0,235.2 190.71,425.87 425.93,425.87 235.23,0 425.92,-190.67 425.92,-425.87 0,-235.2 -190.69,-425.867 -425.92,-425.867 -235.22,0 -425.93,190.667 -425.93,425.867" /><path
             id="path378"
             style="fill:#007a85;fill-opacity:1;fill-rule:nonzero;stroke:none"
             d="m 1134.2,1351.38 c 0,230.96 187.25,418.19 418.26,418.19 230.99,0 418.24,-187.23 418.24,-418.19 0,-230.98 -187.25,-418.208 -418.24,-418.208 -231.01,0 -418.26,187.228 -418.26,418.208" /><path
             id="path380"
             style="fill:#007b87;fill-opacity:1;fill-rule:nonzero;stroke:none"
             d="m 1144.07,1355.99 c 0,226.74 183.81,410.54 410.59,410.54 226.77,0 410.58,-183.8 410.58,-410.54 0,-226.73 -183.81,-410.537 -410.58,-410.537 -226.78,0 -410.59,183.807 -410.59,410.537" /><path
             id="path382"
             style="fill:#007d89;fill-opacity:1;fill-rule:nonzero;stroke:none"
             d="m 1153.93,1360.61 c 0,222.51 180.41,402.87 402.94,402.87 222.53,0 402.92,-180.36 402.92,-402.87 0,-222.5 -180.39,-402.876 -402.92,-402.876 -222.53,0 -402.94,180.376 -402.94,402.876" /><path
             id="path384"
             style="fill:#007e8b;fill-opacity:1;fill-rule:nonzero;stroke:none"
             d="m 1163.82,1365.23 c 0,218.28 176.95,395.22 395.27,395.22 218.29,0 395.26,-176.94 395.26,-395.22 0,-218.27 -176.97,-395.207 -395.26,-395.207 -218.32,0 -395.27,176.937 -395.27,395.207" /><path
             id="path386"
             style="fill:#007f8d;fill-opacity:1;fill-rule:nonzero;stroke:none"
             d="m 1173.7,1369.85 c 0,214.05 173.53,387.56 387.59,387.56 214.08,0 387.61,-173.51 387.61,-387.56 0,-214.04 -173.53,-387.553 -387.61,-387.553 -214.06,0 -387.59,173.513 -387.59,387.553" /><path
             id="path388"
             style="fill:#00808f;fill-opacity:1;fill-rule:nonzero;stroke:none"
             d="m 1183.57,1374.48 c 0,209.8 170.11,379.89 379.94,379.89 209.84,0 379.94,-170.09 379.94,-379.89 0,-209.82 -170.1,-379.886 -379.94,-379.886 -209.83,0 -379.94,170.066 -379.94,379.886" /><path
             id="path390"
             style="fill:#008190;fill-opacity:1;fill-rule:nonzero;stroke:none"
             d="m 1193.45,1379.09 c 0,205.58 166.67,372.23 372.28,372.23 205.61,0 372.26,-166.65 372.26,-372.23 0,-205.57 -166.65,-372.22 -372.26,-372.22 -205.61,0 -372.28,166.65 -372.28,372.22" /><path
             id="path392"
             style="fill:#008292;fill-opacity:1;fill-rule:nonzero;stroke:none"
             d="m 1203.32,1383.72 c 0,201.34 163.25,364.56 364.63,364.56 201.37,0 364.6,-163.22 364.6,-364.56 0,-201.34 -163.23,-364.57 -364.6,-364.57 -201.38,0 -364.63,163.23 -364.63,364.57" /><path
             id="path394"
             style="fill:#008394;fill-opacity:1;fill-rule:nonzero;stroke:none"
             d="m 1213.21,1388.34 c 0,197.11 159.8,356.9 356.94,356.9 197.14,0 356.95,-159.79 356.95,-356.9 0,-197.12 -159.81,-356.9 -356.95,-356.9 -197.14,0 -356.94,159.78 -356.94,356.9" /><path
             id="path396"
             style="fill:#008496;fill-opacity:1;fill-rule:nonzero;stroke:none"
             d="m 1223.09,1392.96 c 0,192.88 156.37,349.24 349.28,349.24 192.92,0 349.28,-156.36 349.28,-349.24 0,-192.88 -156.36,-349.24 -349.28,-349.24 -192.91,0 -349.28,156.36 -349.28,349.24" /><path
             id="path398"
             style="fill:#008598;fill-opacity:1;fill-rule:nonzero;stroke:none"
             d="m 1232.95,1397.58 c 0,188.65 152.96,341.58 341.62,341.58 188.69,0 341.64,-152.93 341.64,-341.58 0,-188.65 -152.95,-341.58 -341.64,-341.58 -188.66,0 -341.62,152.93 -341.62,341.58" /><path
             id="path400"
             style="fill:#00869a;fill-opacity:1;fill-rule:nonzero;stroke:none"
             d="m 1242.84,1402.2 c 0,184.42 149.51,333.92 333.95,333.92 184.44,0 333.97,-149.5 333.97,-333.92 0,-184.42 -149.53,-333.91 -333.97,-333.91 -184.44,0 -333.95,149.49 -333.95,333.91" /><path
             id="path402"
             style="fill:#00889c;fill-opacity:1;fill-rule:nonzero;stroke:none"
             d="m 1252.71,1406.82 c 0,180.19 146.08,326.26 326.3,326.26 180.22,0 326.29,-146.07 326.29,-326.26 0,-180.19 -146.07,-326.26 -326.29,-326.26 -180.22,0 -326.3,146.07 -326.3,326.26" /><path
             id="path404"
             style="fill:#00899e;fill-opacity:1;fill-rule:nonzero;stroke:none"
             d="m 1262.59,1411.45 c 0,175.95 142.65,318.59 318.64,318.59 175.97,0 318.62,-142.64 318.62,-318.59 0,-175.97 -142.65,-318.6 -318.62,-318.6 -175.99,0 -318.64,142.63 -318.64,318.6" /><path
             id="path406"
             style="fill:#008aa0;fill-opacity:1;fill-rule:nonzero;stroke:none"
             d="m 1272.46,1416.05 c 0,171.73 139.22,310.94 310.97,310.94 171.75,0 310.98,-139.21 310.98,-310.94 0,-171.71 -139.23,-310.92 -310.98,-310.92 -171.75,0 -310.97,139.21 -310.97,310.92" /><path
             id="path408"
             style="fill:#008ba2;fill-opacity:1;fill-rule:nonzero;stroke:none"
             d="m 1282.34,1420.68 c 0,167.5 135.79,303.27 303.31,303.27 167.51,0 303.31,-135.77 303.31,-303.27 0,-167.48 -135.8,-303.27 -303.31,-303.27 -167.52,0 -303.31,135.79 -303.31,303.27" /><path
             id="path410"
             style="fill:#008ca4;fill-opacity:1;fill-rule:nonzero;stroke:none"
             d="m 1292.23,1425.3 c 0,163.26 132.34,295.61 295.62,295.61 163.3,0 295.66,-132.35 295.66,-295.61 0,-163.26 -132.36,-295.6 -295.66,-295.6 -163.28,0 -295.62,132.34 -295.62,295.6" /><path
             id="path412"
             style="fill:#008da6;fill-opacity:1;fill-rule:nonzero;stroke:none"
             d="m 1302.1,1429.92 c 0,159.03 128.92,287.95 287.97,287.95 159.05,0 287.98,-128.92 287.98,-287.95 0,-159.02 -128.93,-287.94 -287.98,-287.94 -159.05,0 -287.97,128.92 -287.97,287.94" /><path
             id="path414"
             style="fill:#008da6;fill-opacity:1;fill-rule:nonzero;stroke:none"
             d="m 1305.87,1429.92 c 0,159.03 128.93,287.95 287.98,287.95 159.05,0 287.99,-128.92 287.99,-287.95 0,-159.02 -128.94,-287.94 -287.99,-287.94 -159.05,0 -287.98,128.92 -287.98,287.94" /><path
             id="path416"
             style="fill:#0891a8;fill-opacity:1;fill-rule:nonzero;stroke:none"
             d="m 1318.63,1436.4 c 0,153.17 124.17,277.33 277.36,277.33 153.21,0 277.38,-124.16 277.38,-277.33 0,-153.17 -124.17,-277.34 -277.38,-277.34 -153.19,0 -277.36,124.17 -277.36,277.34" /><path
             id="path418"
             style="fill:#1194aa;fill-opacity:1;fill-rule:nonzero;stroke:none"
             d="m 1331.38,1442.88 c 0,147.3 119.42,266.71 266.77,266.71 147.31,0 266.75,-119.41 266.75,-266.71 0,-147.31 -119.44,-266.72 -266.75,-266.72 -147.35,0 -266.77,119.41 -266.77,266.72" /><path
             id="path420"
             style="fill:#1998ab;fill-opacity:1;fill-rule:nonzero;stroke:none"
             d="m 1344.13,1449.34 c 0,141.46 114.69,256.11 256.14,256.11 141.49,0 256.16,-114.65 256.16,-256.11 0,-141.45 -114.67,-256.11 -256.16,-256.11 -141.45,0 -256.14,114.66 -256.14,256.11" /><path
             id="path422"
             style="fill:#229cad;fill-opacity:1;fill-rule:nonzero;stroke:none"
             d="m 1356.88,1455.82 c 0,135.59 109.94,245.5 245.55,245.5 135.59,0 245.53,-109.91 245.53,-245.5 0,-135.59 -109.94,-245.51 -245.53,-245.51 -135.61,0 -245.55,109.92 -245.55,245.51" /><path
             id="path424"
             style="fill:#2ba0af;fill-opacity:1;fill-rule:nonzero;stroke:none"
             d="m 1369.65,1462.29 c 0,129.74 105.17,234.91 234.92,234.91 129.75,0 234.94,-105.17 234.94,-234.91 0,-129.73 -105.19,-234.9 -234.94,-234.9 -129.75,0 -234.92,105.17 -234.92,234.9" /><path
             id="path426"
             style="fill:#34a4b1;fill-opacity:1;fill-rule:nonzero;stroke:none"
             d="m 1382.4,1468.77 c 0,123.87 100.42,224.28 224.31,224.28 123.89,0 224.31,-100.41 224.31,-224.28 0,-123.88 -100.42,-224.29 -224.31,-224.29 -123.89,0 -224.31,100.41 -224.31,224.29" /><path
             id="path428"
             style="fill:#3da8b3;fill-opacity:1;fill-rule:nonzero;stroke:none"
             d="m 1395.15,1475.23 c 0,118.02 95.67,213.69 213.7,213.69 118.03,0 213.72,-95.67 213.72,-213.69 0,-118.01 -95.69,-213.68 -213.72,-213.68 -118.03,0 -213.7,95.67 -213.7,213.68" /><path
             id="path430"
             style="fill:#46acb5;fill-opacity:1;fill-rule:nonzero;stroke:none"
             d="m 1407.9,1481.71 c 0,112.16 90.94,203.07 203.11,203.07 112.17,0 203.09,-90.91 203.09,-203.07 0,-112.15 -90.92,-203.08 -203.09,-203.08 -112.17,0 -203.11,90.93 -203.11,203.08" /><path
             id="path432"
             style="fill:#4fb0b7;fill-opacity:1;fill-rule:nonzero;stroke:none"
             d="m 1420.65,1488.18 c 0,106.3 86.19,192.47 192.5,192.47 106.31,0 192.48,-86.17 192.48,-192.47 0,-106.3 -86.17,-192.46 -192.48,-192.46 -106.31,0 -192.5,86.16 -192.5,192.46" /><path
             id="path434"
             style="fill:#58b4b9;fill-opacity:1;fill-rule:nonzero;stroke:none"
             d="m 1433.41,1494.66 c 0,100.43 81.43,181.85 181.88,181.85 100.45,0 181.87,-81.42 181.87,-181.85 0,-100.44 -81.42,-181.86 -181.87,-181.86 -100.45,0 -181.88,81.42 -181.88,181.86" /><path
             id="path436"
             style="fill:#61b8bb;fill-opacity:1;fill-rule:nonzero;stroke:none"
             d="m 1446.16,1501.13 c 0,94.58 76.68,171.25 171.27,171.25 94.59,0 171.28,-76.67 171.28,-171.25 0,-94.58 -76.69,-171.25 -171.28,-171.25 -94.59,0 -171.27,76.67 -171.27,171.25" /><path
             id="path438"
             style="fill:#6bbcbd;fill-opacity:1;fill-rule:nonzero;stroke:none"
             d="m 1458.91,1507.6 c 0,88.72 71.93,160.65 160.66,160.65 88.73,0 160.67,-71.93 160.67,-160.65 0,-88.72 -71.94,-160.64 -160.67,-160.64 -88.73,0 -160.66,71.92 -160.66,160.64" /><path
             id="path440"
             style="fill:#75c0bf;fill-opacity:1;fill-rule:nonzero;stroke:none"
             d="m 1471.66,1514.08 c 0,82.85 67.19,150.03 150.05,150.03 82.89,0 150.06,-67.18 150.06,-150.03 0,-82.86 -67.17,-150.04 -150.06,-150.04 -82.86,0 -150.05,67.18 -150.05,150.04" /><path
             id="path442"
             style="fill:#7fc4c1;fill-opacity:1;fill-rule:nonzero;stroke:none"
             d="m 1484.41,1520.55 c 0,77 62.44,139.43 139.46,139.43 77.01,0 139.45,-62.43 139.45,-139.43 0,-77.01 -62.44,-139.43 -139.45,-139.43 -77.02,0 -139.46,62.42 -139.46,139.43" /><path
             id="path444"
             style="fill:#89c8c4;fill-opacity:1;fill-rule:nonzero;stroke:none"
             d="m 1497.18,1527.02 c 0,71.14 57.67,128.82 128.83,128.82 71.15,0 128.83,-57.68 128.83,-128.82 0,-71.14 -57.68,-128.82 -128.83,-128.82 -71.16,0 -128.83,57.68 -128.83,128.82" /><path
             id="path446"
             style="fill:#93cdc6;fill-opacity:1;fill-rule:nonzero;stroke:none"
             d="m 1509.93,1533.49 c 0,65.28 52.92,118.21 118.22,118.21 65.3,0 118.23,-52.93 118.23,-118.21 0,-65.28 -52.93,-118.2 -118.23,-118.2 -65.3,0 -118.22,52.92 -118.22,118.2" /><path
             id="path448"
             style="fill:#9dd1c8;fill-opacity:1;fill-rule:nonzero;stroke:none"
             d="m 1522.68,1539.96 c 0,59.43 48.19,107.6 107.62,107.6 59.44,0 107.61,-48.17 107.61,-107.6 0,-59.43 -48.17,-107.6 -107.61,-107.6 -59.43,0 -107.62,48.17 -107.62,107.6" /><path
             id="path450"
             style="fill:#a7d5cb;fill-opacity:1;fill-rule:nonzero;stroke:none"
             d="m 1535.43,1546.44 c 0,53.57 43.44,96.99 97.02,96.99 53.56,0 97,-43.42 97,-96.99 0,-53.57 -43.44,-96.99 -97,-96.99 -53.58,0 -97.02,43.42 -97.02,96.99" /><path
             id="path452"
             style="fill:#b1dacd;fill-opacity:1;fill-rule:nonzero;stroke:none"
             d="m 1548.2,1552.91 c 0,47.71 38.67,86.39 86.39,86.39 47.71,0 86.39,-38.68 86.39,-86.39 0,-47.71 -38.68,-86.38 -86.39,-86.38 -47.72,0 -86.39,38.67 -86.39,86.38" /></g></g><path
         id="path454"
         style="fill:#0e8873;fill-opacity:1;fill-rule:nonzero;stroke:none"
         d="m 1489.21,1765.36 c 16.56,25.21 68.69,33.59 117.56,21.19 48.46,-12.28 83.07,-42.3 77.13,-69.67 -6.61,-30.64 -60.55,-46.62 -120.27,-32.09 -60.39,14.69 -93.01,52.29 -74.42,80.57" /><path
         id="path456"
         style="fill:#0d8673;fill-opacity:1;fill-rule:nonzero;stroke:none"
         d="m 1492.9,1762.42 c 15.89,24.17 65.84,32.2 112.69,20.32 46.43,-11.77 79.57,-40.54 73.92,-66.77 -6.36,-29.36 -58.03,-44.69 -115.28,-30.76 -57.86,14.08 -89.13,50.11 -71.33,77.21" /><path
         id="path458"
         style="fill:#0b8473;fill-opacity:1;fill-rule:nonzero;stroke:none"
         d="m 1496.62,1759.49 c 15.17,23.11 62.97,30.8 107.76,19.43 44.42,-11.26 76.14,-38.77 70.71,-63.87 -6.08,-28.08 -55.52,-42.75 -110.25,-29.42 -55.36,13.46 -85.27,47.93 -68.22,73.86" /><path
         id="path460"
         style="fill:#0a8272;fill-opacity:1;fill-rule:nonzero;stroke:none"
         d="m 1500.3,1756.55 c 14.52,22.06 60.13,29.4 102.9,18.56 42.39,-10.75 72.67,-37.02 67.48,-60.97 -5.8,-26.8 -52.98,-40.8 -105.23,-28.09 -52.85,12.86 -81.4,45.75 -65.15,70.5" /><path
         id="path462"
         style="fill:#088072;fill-opacity:1;fill-rule:nonzero;stroke:none"
         d="m 1504.02,1753.62 c 13.8,21.01 57.24,28 97.97,17.67 40.38,-10.24 69.21,-35.25 64.28,-58.06 -5.53,-25.54 -50.47,-38.86 -100.23,-26.75 -50.33,12.25 -77.5,43.57 -62.02,67.14" /><path
         id="path464"
         style="fill:#077e71;fill-opacity:1;fill-rule:nonzero;stroke:none"
         d="m 1507.71,1750.68 c 13.13,19.96 54.39,26.6 93.09,16.79 38.35,-9.73 65.75,-33.49 61.05,-55.17 -5.23,-24.25 -47.92,-36.9 -95.22,-25.4 -47.79,11.63 -73.62,41.4 -58.92,63.78" /><path
         id="path466"
         style="fill:#067b70;fill-opacity:1;fill-rule:nonzero;stroke:none"
         d="m 1511.41,1747.75 c 12.44,18.91 51.54,25.2 88.19,15.91 36.33,-9.21 62.3,-31.73 57.86,-52.27 -4.98,-22.98 -45.44,-34.96 -90.22,-24.06 -45.28,11.01 -69.75,39.22 -55.83,60.42" /><path
         id="path468"
         style="fill:#04786f;fill-opacity:1;fill-rule:nonzero;stroke:none"
         d="m 1515.12,1744.81 c 11.75,17.86 48.67,23.81 83.29,15.03 34.32,-8.71 58.82,-29.97 54.63,-49.36 -4.69,-21.7 -42.89,-33.03 -85.2,-22.73 -42.77,10.4 -65.88,37.04 -52.72,57.06" /><path
         id="path470"
         style="fill:#03756e;fill-opacity:1;fill-rule:nonzero;stroke:none"
         d="m 1518.82,1741.88 c 11.05,16.81 45.8,22.4 78.39,14.14 32.3,-8.2 55.36,-28.21 51.42,-46.45 -4.42,-20.43 -40.37,-31.09 -80.18,-21.4 -40.27,9.79 -62,34.86 -49.63,53.71" /><path
         id="path472"
         style="fill:#02726c;fill-opacity:1;fill-rule:nonzero;stroke:none"
         d="m 1522.52,1738.95 c 10.36,15.75 42.94,21 73.49,13.25 30.28,-7.68 51.92,-26.44 48.2,-43.54 -4.12,-19.16 -37.83,-29.15 -75.16,-20.07 -37.75,9.18 -58.14,32.68 -46.53,50.36" /><path
         id="path474"
         style="fill:#016f6b;fill-opacity:1;fill-rule:nonzero;stroke:none"
         d="m 1526.23,1736.01 c 9.67,14.71 40.07,19.6 68.59,12.37 28.25,-7.17 48.44,-24.68 45,-40.65 -3.89,-17.86 -35.34,-27.19 -70.17,-18.71 -35.24,8.57 -54.25,30.5 -43.42,46.99" /><path
         id="path476"
         style="fill:#016c69;fill-opacity:1;fill-rule:nonzero;stroke:none"
         d="m 1529.95,1733.08 c 8.95,13.65 37.18,18.2 63.67,11.48 26.25,-6.65 44.98,-22.91 41.78,-37.73 -3.6,-16.6 -32.8,-25.27 -65.16,-17.39 -32.7,7.96 -50.37,28.32 -40.29,43.64" /><path
         id="path478"
         style="fill:#006867;fill-opacity:1;fill-rule:nonzero;stroke:none"
         d="m 1533.63,1730.14 c 8.3,12.61 34.35,16.81 58.8,10.61 24.22,-6.15 41.53,-21.16 38.56,-34.84 -3.31,-15.32 -30.28,-23.32 -60.14,-16.05 -30.19,7.34 -46.5,26.14 -37.22,40.28" /><path
         id="path480"
         style="fill:#0e8873;fill-opacity:1;fill-rule:nonzero;stroke:none"
         d="m 1810.13,1465.95 c 15.42,6.74 36.69,-4.55 48.85,-24.42 12.03,-19.69 12.45,-43.5 -0.11,-54.32 -14.08,-12.12 -38.89,-3.79 -53.97,20.2 -15.25,24.27 -12.06,50.97 5.23,58.54" /><path
         id="path482"
         style="fill:#0d8673;fill-opacity:1;fill-rule:nonzero;stroke:none"
         d="m 1810.29,1463.53 c 14.78,6.45 35.16,-4.36 46.8,-23.41 11.53,-18.87 11.95,-41.68 -0.1,-52.05 -13.5,-11.61 -37.26,-3.62 -51.72,19.37 -14.61,23.25 -11.57,48.84 5.02,56.09" /><path
         id="path484"
         style="fill:#0b8473;fill-opacity:1;fill-rule:nonzero;stroke:none"
         d="m 1810.45,1461.1 c 14.12,6.19 33.62,-4.15 44.75,-22.38 11.04,-18.05 11.45,-39.87 -0.1,-49.79 -12.9,-11.11 -35.64,-3.47 -49.45,18.52 -13.97,22.25 -11.08,46.72 4.8,53.65" /><path
         id="path486"
         style="fill:#0a8272;fill-opacity:1;fill-rule:nonzero;stroke:none"
         d="m 1810.59,1458.69 c 13.51,5.89 32.11,-3.98 42.73,-21.37 10.55,-17.23 10.92,-38.05 -0.08,-47.53 -12.31,-10.59 -34.03,-3.31 -47.23,17.69 -13.33,21.23 -10.55,44.59 4.58,51.21" /><path
         id="path488"
         style="fill:#088072;fill-opacity:1;fill-rule:nonzero;stroke:none"
         d="m 1810.74,1456.27 c 12.86,5.61 30.58,-3.79 40.71,-20.36 10.03,-16.4 10.39,-36.24 -0.1,-45.26 -11.72,-10.1 -32.39,-3.15 -44.95,16.84 -12.72,20.22 -10.08,42.48 4.34,48.78" /><path
         id="path490"
         style="fill:#077e71;fill-opacity:1;fill-rule:nonzero;stroke:none"
         d="m 1810.9,1453.85 c 12.22,5.34 29.05,-3.61 38.67,-19.33 9.53,-15.6 9.86,-34.43 -0.09,-43 -11.14,-9.59 -30.78,-3 -42.72,16 -12.08,19.2 -9.56,40.35 4.14,46.33" /><path
         id="path492"
         style="fill:#067b70;fill-opacity:1;fill-rule:nonzero;stroke:none"
         d="m 1811.05,1451.43 c 11.57,5.05 27.5,-3.41 36.63,-18.31 9.03,-14.78 9.34,-32.63 -0.08,-40.74 -10.56,-9.09 -29.17,-2.84 -40.48,15.15 -11.42,18.2 -9.05,38.23 3.93,43.9" /><path
         id="path494"
         style="fill:#04786f;fill-opacity:1;fill-rule:nonzero;stroke:none"
         d="m 1811.2,1449.01 c 10.93,4.77 26,-3.22 34.6,-17.3 8.54,-13.94 8.83,-30.81 -0.09,-38.48 -9.95,-8.57 -27.53,-2.68 -38.2,14.32 -10.81,17.18 -8.56,36.11 3.69,41.46" /><path
         id="path496"
         style="fill:#03756e;fill-opacity:1;fill-rule:nonzero;stroke:none"
         d="m 1811.35,1446.59 c 10.28,4.5 24.47,-3.04 32.56,-16.28 8.04,-13.13 8.32,-29 -0.06,-36.21 -9.39,-8.08 -25.94,-2.52 -35.98,13.47 -10.16,16.18 -8.05,33.98 3.48,39.02" /><path
         id="path498"
         style="fill:#02726c;fill-opacity:1;fill-rule:nonzero;stroke:none"
         d="m 1811.51,1444.16 c 9.64,4.22 22.94,-2.83 30.53,-15.25 7.51,-12.31 7.8,-27.18 -0.08,-33.96 -8.8,-7.56 -24.3,-2.36 -33.73,12.64 -9.52,15.17 -7.55,31.86 3.28,36.57" /><path
         id="path500"
         style="fill:#016f6b;fill-opacity:1;fill-rule:nonzero;stroke:none"
         d="m 1811.66,1441.75 c 9,3.94 21.41,-2.66 28.49,-14.24 7.03,-11.49 7.28,-25.38 -0.05,-31.69 -8.23,-7.06 -22.69,-2.21 -31.48,11.79 -8.91,14.16 -7.05,29.73 3.04,34.14" /><path
         id="path502"
         style="fill:#016c69;fill-opacity:1;fill-rule:nonzero;stroke:none"
         d="m 1811.82,1439.34 c 8.36,3.64 19.88,-2.47 26.45,-13.23 6.52,-10.67 6.75,-23.56 -0.06,-29.42 -7.62,-6.57 -21.05,-2.06 -29.23,10.93 -8.25,13.15 -6.53,27.61 2.84,31.72" /><path
         id="path504"
         style="fill:#006867;fill-opacity:1;fill-rule:nonzero;stroke:none"
         d="m 1811.98,1436.91 c 7.7,3.37 18.32,-2.27 24.4,-12.21 6.03,-9.84 6.24,-21.75 -0.04,-27.16 -7.04,-6.06 -19.46,-1.89 -26.99,10.11 -7.62,12.13 -6.03,25.47 2.63,29.26" /><path
         id="path506"
         style="fill:#0e8873;fill-opacity:1;fill-rule:nonzero;stroke:none"
         d="m 1823.01,1617.68 c 17.14,7.49 40.76,-5.06 54.28,-27.13 13.37,-21.89 13.84,-48.35 -0.13,-60.38 -15.64,-13.45 -43.21,-4.2 -59.96,22.47 -16.96,26.95 -13.43,56.63 5.81,65.04" /><path
         id="path508"
         style="fill:#0d8673;fill-opacity:1;fill-rule:nonzero;stroke:none"
         d="m 1823.18,1614.98 c 16.44,7.19 39.08,-4.83 52.02,-26 12.82,-20.97 13.28,-46.32 -0.13,-57.85 -14.98,-12.9 -41.41,-4.03 -57.47,21.53 -16.23,25.83 -12.86,54.27 5.58,62.32" /><path
         id="path510"
         style="fill:#0b8473;fill-opacity:1;fill-rule:nonzero;stroke:none"
         d="m 1823.34,1612.3 c 15.73,6.86 37.39,-4.63 49.76,-24.88 12.27,-20.06 12.7,-44.3 -0.11,-55.33 -14.34,-12.34 -39.61,-3.86 -54.98,20.59 -15.53,24.72 -12.3,51.92 5.33,59.62" /><path
         id="path512"
         style="fill:#0a8272;fill-opacity:1;fill-rule:nonzero;stroke:none"
         d="m 1823.52,1609.61 c 15,6.55 35.68,-4.42 47.47,-23.74 11.72,-19.15 12.14,-42.29 -0.09,-52.82 -13.69,-11.78 -37.8,-3.68 -52.47,19.65 -14.83,23.6 -11.75,49.56 5.09,56.91" /><path
         id="path514"
         style="fill:#088072;fill-opacity:1;fill-rule:nonzero;stroke:none"
         d="m 1823.7,1606.92 c 14.28,6.24 33.96,-4.21 45.21,-22.62 11.16,-18.23 11.55,-40.28 -0.09,-50.29 -13.05,-11.22 -36.02,-3.51 -49.98,18.71 -14.13,22.47 -11.19,47.2 4.86,54.2" /><path
         id="path516"
         style="fill:#077e71;fill-opacity:1;fill-rule:nonzero;stroke:none"
         d="m 1823.87,1604.23 c 13.56,5.93 32.26,-4 42.95,-21.48 10.59,-17.33 10.97,-38.26 -0.09,-47.79 -12.38,-10.66 -34.21,-3.33 -47.47,17.78 -13.42,21.35 -10.63,44.84 4.61,51.49" /><path
         id="path518"
         style="fill:#067b70;fill-opacity:1;fill-rule:nonzero;stroke:none"
         d="m 1824.02,1601.55 c 12.86,5.61 30.6,-3.79 40.71,-20.35 10.04,-16.43 10.4,-36.26 -0.08,-45.28 -11.74,-10.09 -32.41,-3.16 -44.97,16.85 -12.72,20.21 -10.06,42.47 4.34,48.78" /><path
         id="path520"
         style="fill:#04786f;fill-opacity:1;fill-rule:nonzero;stroke:none"
         d="m 1824.2,1598.85 c 12.14,5.31 28.89,-3.58 38.43,-19.22 9.49,-15.5 9.83,-34.23 -0.08,-42.75 -11.07,-9.54 -30.6,-2.98 -42.46,15.9 -12.02,19.1 -9.5,40.12 4.11,46.07" /><path
         id="path522"
         style="fill:#03756e;fill-opacity:1;fill-rule:nonzero;stroke:none"
         d="m 1824.37,1596.16 c 11.42,5 27.18,-3.36 36.17,-18.08 8.92,-14.6 9.25,-32.23 -0.06,-40.24 -10.44,-8.98 -28.82,-2.81 -39.99,14.97 -11.29,17.97 -8.94,37.76 3.88,43.35" /><path
         id="path524"
         style="fill:#02726c;fill-opacity:1;fill-rule:nonzero;stroke:none"
         d="m 1824.54,1593.48 c 10.72,4.68 25.48,-3.16 33.92,-16.96 8.36,-13.68 8.66,-30.21 -0.08,-37.73 -9.76,-8.41 -27,-2.63 -37.47,14.04 -10.61,16.85 -8.39,35.4 3.63,40.65" /><path
         id="path526"
         style="fill:#016f6b;fill-opacity:1;fill-rule:nonzero;stroke:none"
         d="m 1824.71,1590.79 c 10,4.37 23.77,-2.95 31.66,-15.83 7.79,-12.77 8.08,-28.19 -0.07,-35.22 -9.12,-7.84 -25.21,-2.45 -34.98,13.11 -9.89,15.73 -7.83,33.03 3.39,37.94" /><path
         id="path528"
         style="fill:#016c69;fill-opacity:1;fill-rule:nonzero;stroke:none"
         d="m 1824.87,1588.1 c 9.29,4.06 22.09,-2.73 29.4,-14.7 7.25,-11.85 7.5,-26.18 -0.06,-32.7 -8.47,-7.29 -23.41,-2.28 -32.48,12.18 -9.19,14.6 -7.27,30.67 3.14,35.22" /><path
         id="path530"
         style="fill:#006867;fill-opacity:1;fill-rule:nonzero;stroke:none"
         d="m 1825.04,1585.41 c 8.58,3.75 20.39,-2.53 27.14,-13.57 6.69,-10.93 6.94,-24.17 -0.06,-30.18 -7.83,-6.73 -21.6,-2.11 -29.99,11.23 -8.47,13.49 -6.7,28.32 2.91,32.52" /><path
         id="path532"
         style="fill:#0e8873;fill-opacity:1;fill-rule:nonzero;stroke:none"
         d="m 1640.18,1352.02 c 11.89,5.21 28.3,-3.5 37.67,-18.82 9.28,-15.2 9.61,-33.56 -0.09,-41.9 -10.85,-9.35 -29.99,-2.92 -41.63,15.58 -11.75,18.71 -9.29,39.32 4.05,45.14" /><path
         id="path534"
         style="fill:#0d8673;fill-opacity:1;fill-rule:nonzero;stroke:none"
         d="m 1640.29,1350.16 c 11.41,4.98 27.12,-3.36 36.09,-18.05 8.92,-14.56 9.22,-32.15 -0.06,-40.15 -10.41,-8.95 -28.75,-2.8 -39.89,14.94 -11.27,17.93 -8.92,37.67 3.86,43.26" /><path
         id="path536"
         style="fill:#0b8473;fill-opacity:1;fill-rule:nonzero;stroke:none"
         d="m 1640.41,1348.29 c 10.91,4.77 25.94,-3.21 34.54,-17.26 8.51,-13.93 8.81,-30.76 -0.08,-38.41 -9.96,-8.57 -27.49,-2.67 -38.16,14.29 -10.78,17.15 -8.53,36.04 3.7,41.38" /><path
         id="path538"
         style="fill:#0a8272;fill-opacity:1;fill-rule:nonzero;stroke:none"
         d="m 1640.54,1346.42 c 10.41,4.56 24.75,-3.07 32.95,-16.47 8.13,-13.3 8.42,-29.36 -0.08,-36.67 -9.5,-8.17 -26.23,-2.55 -36.4,13.64 -10.3,16.38 -8.16,34.4 3.53,39.5" /><path
         id="path540"
         style="fill:#088072;fill-opacity:1;fill-rule:nonzero;stroke:none"
         d="m 1640.65,1344.56 c 9.92,4.33 23.58,-2.93 31.39,-15.69 7.73,-12.66 8.01,-27.96 -0.06,-34.92 -9.05,-7.79 -25,-2.43 -34.69,12.99 -9.8,15.59 -7.77,32.76 3.36,37.62" /><path
         id="path542"
         style="fill:#077e71;fill-opacity:1;fill-rule:nonzero;stroke:none"
         d="m 1640.77,1342.7 c 9.43,4.1 22.41,-2.79 29.82,-14.92 7.34,-12.02 7.61,-26.55 -0.07,-33.16 -8.59,-7.4 -23.75,-2.32 -32.95,12.34 -9.31,14.81 -7.37,31.12 3.2,35.74" /><path
         id="path544"
         style="fill:#067b70;fill-opacity:1;fill-rule:nonzero;stroke:none"
         d="m 1640.88,1340.83 c 8.92,3.9 21.22,-2.63 28.25,-14.13 6.97,-11.4 7.22,-25.16 -0.06,-31.42 -8.14,-7.01 -22.5,-2.19 -31.2,11.7 -8.83,14.03 -6.99,29.47 3.01,33.85" /><path
         id="path546"
         style="fill:#04786f;fill-opacity:1;fill-rule:nonzero;stroke:none"
         d="m 1640.99,1338.96 c 8.44,3.68 20.05,-2.48 26.69,-13.34 6.58,-10.76 6.81,-23.76 -0.05,-29.68 -7.68,-6.61 -21.25,-2.06 -29.48,11.04 -8.35,13.26 -6.6,27.85 2.84,31.98" /><path
         id="path548"
         style="fill:#03756e;fill-opacity:1;fill-rule:nonzero;stroke:none"
         d="m 1641.12,1337.09 c 7.93,3.47 18.87,-2.34 25.11,-12.56 6.2,-10.12 6.42,-22.36 -0.05,-27.92 -7.23,-6.23 -20,-1.95 -27.75,10.39 -7.83,12.48 -6.2,26.2 2.69,30.09" /><path
         id="path550"
         style="fill:#02726c;fill-opacity:1;fill-rule:nonzero;stroke:none"
         d="m 1641.24,1335.23 c 7.42,3.25 17.67,-2.19 23.53,-11.77 5.82,-9.49 6.02,-20.97 -0.03,-26.19 -6.79,-5.83 -18.75,-1.82 -26.01,9.75 -7.36,11.69 -5.85,24.57 2.51,28.21" /><path
         id="path552"
         style="fill:#016f6b;fill-opacity:1;fill-rule:nonzero;stroke:none"
         d="m 1641.35,1333.36 c 6.94,3.04 16.52,-2.04 21.99,-10.98 5.4,-8.86 5.59,-19.58 -0.05,-24.44 -6.34,-5.46 -17.5,-1.71 -24.28,9.09 -6.86,10.92 -5.46,22.93 2.34,26.33" /><path
         id="path554"
         style="fill:#016c69;fill-opacity:1;fill-rule:nonzero;stroke:none"
         d="m 1641.48,1331.49 c 6.45,2.82 15.32,-1.9 20.4,-10.19 5.03,-8.23 5.21,-18.18 -0.04,-22.71 -5.89,-5.05 -16.25,-1.57 -22.55,8.46 -6.38,10.13 -5.03,21.29 2.19,24.44" /><path
         id="path556"
         style="fill:#006867;fill-opacity:1;fill-rule:nonzero;stroke:none"
         d="m 1641.59,1329.63 c 5.95,2.6 14.15,-1.75 18.82,-9.42 4.66,-7.59 4.83,-16.77 -0.01,-20.94 -5.44,-4.68 -15,-1.47 -20.83,7.78 -5.87,9.36 -4.66,19.66 2.02,22.58" /><path
         id="path558"
         style="fill:#008093;fill-opacity:1;fill-rule:nonzero;stroke:none"
         d="m 1613.62,809.977 c -23.52,36.601 3.89,91.414 64.47,118.554 61.25,27.453 122.15,11.391 134.06,-31.195 10.61,-37.984 -22.52,-83.617 -72.56,-105.305 -49.61,-21.508 -104.96,-14.742 -125.97,17.946" /><path
         id="path560"
         style="fill:#007d8d;fill-opacity:1;fill-rule:nonzero;stroke:none"
         d="m 1617.52,816.094 c -22.03,34.304 3.66,85.695 60.46,111.148 57.42,25.727 114.53,10.672 125.67,-29.265 9.95,-35.602 -21.1,-78.383 -68.02,-98.719 -46.51,-20.156 -98.4,-13.82 -118.11,16.836" /><path
         id="path562"
         style="fill:#007a88;fill-opacity:1;fill-rule:nonzero;stroke:none"
         d="m 1621.45,822.203 c -20.58,32.016 3.4,79.985 56.42,103.735 53.58,24.015 106.87,9.968 117.29,-27.305 9.27,-33.235 -19.68,-73.156 -63.5,-92.141 -43.4,-18.812 -91.82,-12.898 -110.21,15.711" /><path
         id="path564"
         style="fill:#007782;fill-opacity:1;fill-rule:nonzero;stroke:none"
         d="m 1625.35,828.312 c -19.09,29.735 3.17,74.274 52.39,96.329 49.77,22.297 99.27,9.257 108.92,-25.352 8.63,-30.867 -18.29,-67.937 -58.95,-85.57 -40.31,-17.469 -85.28,-11.969 -102.36,14.593" /><path
         id="path566"
         style="fill:#00747c;fill-opacity:1;fill-rule:nonzero;stroke:none"
         d="m 1629.27,834.422 c -17.64,27.445 2.91,68.562 48.35,88.922 45.95,20.578 91.62,8.539 100.54,-23.414 7.96,-28.485 -16.87,-62.703 -54.4,-78.969 -37.21,-16.125 -78.74,-11.063 -94.49,13.461" /><path
         id="path568"
         style="fill:#007177;fill-opacity:1;fill-rule:nonzero;stroke:none"
         d="m 1633.18,840.531 c -16.16,25.157 2.69,62.844 44.33,81.508 42.11,18.867 84,7.828 92.17,-21.453 7.3,-26.109 -15.47,-57.477 -49.89,-72.391 -34.11,-14.789 -72.16,-10.14 -86.61,12.336" /><path
         id="path570"
         style="fill:#006e71;fill-opacity:1;fill-rule:nonzero;stroke:none"
         d="m 1637.1,846.648 c -14.7,22.868 2.44,57.125 40.3,74.094 38.28,17.149 76.34,7.117 83.8,-19.5 6.6,-23.742 -14.08,-52.265 -45.36,-65.82 -31.02,-13.438 -65.61,-9.211 -78.74,11.226" /><path
         id="path572"
         style="fill:#006b6c;fill-opacity:1;fill-rule:nonzero;stroke:none"
         d="m 1641.01,852.75 c -13.22,20.594 2.2,51.43 36.28,66.695 34.44,15.438 68.7,6.407 75.41,-17.562 5.96,-21.36 -12.66,-47.024 -40.83,-59.227 -27.89,-12.094 -59.03,-8.297 -70.86,10.094" /><path
         id="path574"
         style="fill:#006867;fill-opacity:1;fill-rule:nonzero;stroke:none"
         d="m 1644.93,858.867 c -11.75,18.289 1.94,45.703 32.25,59.274 30.62,13.726 61.08,5.703 67.02,-15.602 5.29,-18.992 -11.25,-41.805 -36.27,-52.648 -24.81,-10.75 -52.5,-7.368 -63,8.976" /><path
         id="path576"
         style="fill:#008093;fill-opacity:1;fill-rule:nonzero;stroke:none"
         d="m 1882.38,964.641 c -20.47,8.382 -25.03,39.199 -7.73,68.179 17.51,29.29 47.56,40.36 64.95,26.09 15.5,-12.72 15.02,-41.38 0.49,-65.012 -14.39,-23.421 -39.43,-36.75 -57.71,-29.257" /><path
         id="path578"
         style="fill:#007d8d;fill-opacity:1;fill-rule:nonzero;stroke:none"
         d="m 1882.23,968.328 c -19.19,7.86 -23.47,36.762 -7.24,63.912 16.42,27.46 44.58,37.85 60.89,24.47 14.52,-11.93 14.07,-38.8 0.44,-60.952 -13.48,-21.961 -36.94,-34.453 -54.09,-27.43" /><path
         id="path580"
         style="fill:#007a88;fill-opacity:1;fill-rule:nonzero;stroke:none"
         d="m 1882.09,972.016 c -17.93,7.336 -21.91,34.304 -6.75,59.644 15.29,25.64 41.59,35.33 56.79,22.85 13.57,-11.14 13.14,-36.21 0.44,-56.901 -12.59,-20.492 -34.48,-32.148 -50.48,-25.593" /><path
         id="path582"
         style="fill:#007782;fill-opacity:1;fill-rule:nonzero;stroke:none"
         d="m 1881.93,975.703 c -16.63,6.805 -20.34,31.847 -6.28,55.387 14.22,23.8 38.65,32.8 52.76,21.21 12.6,-10.35 12.21,-33.63 0.41,-52.823 -11.69,-19.039 -32.03,-29.86 -46.89,-23.774" /><path
         id="path584"
         style="fill:#00747c;fill-opacity:1;fill-rule:nonzero;stroke:none"
         d="m 1881.77,979.383 c -15.34,6.289 -18.76,29.407 -5.78,51.137 13.13,21.96 35.67,30.28 48.71,19.57 11.6,-9.54 11.25,-31.04 0.35,-48.76 -10.79,-17.572 -29.56,-27.564 -43.28,-21.947" /><path
         id="path586"
         style="fill:#007177;fill-opacity:1;fill-rule:nonzero;stroke:none"
         d="m 1881.62,983.07 c -14.07,5.774 -17.21,26.96 -5.32,46.88 12.04,20.14 32.72,27.75 44.66,17.93 10.66,-8.75 10.31,-28.45 0.34,-44.69 -9.89,-16.104 -27.09,-25.268 -39.68,-20.12" /><path
         id="path588"
         style="fill:#006e71;fill-opacity:1;fill-rule:nonzero;stroke:none"
         d="m 1881.48,986.766 c -12.8,5.234 -15.66,24.504 -4.83,42.614 10.94,18.3 29.73,25.22 40.59,16.3 9.69,-7.95 9.38,-25.86 0.3,-40.63 -9,-14.652 -24.64,-22.972 -36.06,-18.284" /><path
         id="path590"
         style="fill:#006b6c;fill-opacity:1;fill-rule:nonzero;stroke:none"
         d="m 1881.34,990.445 c -11.52,4.711 -14.11,22.045 -4.36,38.355 9.84,16.47 26.75,22.71 36.53,14.68 8.72,-7.16 8.44,-23.28 0.28,-36.58 -8.11,-13.173 -22.17,-20.666 -32.45,-16.455" /><path
         id="path592"
         style="fill:#006867;fill-opacity:1;fill-rule:nonzero;stroke:none"
         d="m 1881.18,994.133 c -10.23,4.195 -12.53,19.607 -3.88,34.097 8.77,14.64 23.79,20.18 32.47,13.04 7.77,-6.36 7.52,-20.69 0.25,-32.51 -7.18,-11.713 -19.72,-18.369 -28.84,-14.627" /><path
         id="path594"
         style="fill:#0e8873;fill-opacity:1;fill-rule:nonzero;stroke:none"
         d="m 1375.04,1417.84 c -22.03,4.36 -48.09,-14.03 -60.17,-40.44 -11.99,-26.17 -7.58,-54.48 11.48,-64.35 21.36,-11.03 52.77,4.68 67.91,36.67 15.29,32.35 5.5,63.24 -19.22,68.12" /><path
         id="path596"
         style="fill:#0d8673;fill-opacity:1;fill-rule:nonzero;stroke:none"
         d="m 1375.34,1414.94 c -21.11,4.18 -46.08,-13.45 -57.66,-38.76 -11.48,-25.08 -7.28,-52.2 11.02,-61.66 20.43,-10.58 50.54,4.48 65.06,35.14 14.67,31 5.26,60.6 -18.42,65.28" /><path
         id="path598"
         style="fill:#0b8473;fill-opacity:1;fill-rule:nonzero;stroke:none"
         d="m 1375.65,1412.04 c -20.2,3.99 -44.1,-12.87 -55.17,-37.08 -10.97,-23.99 -6.94,-49.94 10.54,-58.98 19.57,-10.11 48.36,4.29 62.24,33.61 14.03,29.65 5.03,57.97 -17.61,62.45" /><path
         id="path600"
         style="fill:#0a8272;fill-opacity:1;fill-rule:nonzero;stroke:none"
         d="m 1375.95,1409.13 c -19.29,3.81 -42.08,-12.28 -52.66,-35.38 -10.49,-22.91 -6.63,-47.68 10.05,-56.3 18.68,-9.66 46.17,4.09 59.42,32.08 13.4,28.3 4.79,55.34 -16.81,59.6" /><path
         id="path602"
         style="fill:#088072;fill-opacity:1;fill-rule:nonzero;stroke:none"
         d="m 1376.24,1406.23 c -18.36,3.63 -40.08,-11.7 -50.14,-33.7 -9.97,-21.82 -6.33,-45.41 9.58,-53.62 17.8,-9.2 43.97,3.89 56.58,30.56 12.76,26.94 4.58,52.69 -16.02,56.76" /><path
         id="path604"
         style="fill:#077e71;fill-opacity:1;fill-rule:nonzero;stroke:none"
         d="m 1376.54,1403.33 c -17.44,3.44 -38.06,-11.12 -47.63,-32.02 -9.48,-20.72 -6,-43.13 9.1,-50.93 16.89,-8.75 41.76,3.69 53.76,29.02 12.11,25.61 4.35,50.06 -15.23,53.93" /><path
         id="path606"
         style="fill:#067b70;fill-opacity:1;fill-rule:nonzero;stroke:none"
         d="m 1376.84,1400.42 c -16.52,3.27 -36.07,-10.51 -45.13,-30.33 -8.98,-19.63 -5.67,-40.86 8.63,-48.25 16.01,-8.29 39.56,3.5 50.92,27.5 11.48,24.25 4.12,47.42 -14.42,51.08" /><path
         id="path608"
         style="fill:#04786f;fill-opacity:1;fill-rule:nonzero;stroke:none"
         d="m 1377.15,1397.52 c -15.6,3.08 -34.06,-9.94 -42.63,-28.65 -8.47,-18.53 -5.37,-38.59 8.14,-45.57 15.13,-7.82 37.38,3.31 48.1,25.97 10.84,22.91 3.89,44.79 -13.61,48.25" /><path
         id="path610"
         style="fill:#03756e;fill-opacity:1;fill-rule:nonzero;stroke:none"
         d="m 1377.45,1394.62 c -14.69,2.9 -32.07,-9.35 -40.11,-26.96 -7.99,-17.46 -5.05,-36.32 7.65,-42.9 14.24,-7.35 35.19,3.12 45.27,24.44 10.2,21.57 3.65,42.17 -12.81,45.42" /><path
         id="path612"
         style="fill:#02726c;fill-opacity:1;fill-rule:nonzero;stroke:none"
         d="m 1377.76,1391.72 c -13.78,2.72 -30.06,-8.77 -37.61,-25.28 -7.5,-16.36 -4.74,-34.06 7.17,-40.22 13.34,-6.89 32.98,2.93 42.44,22.92 9.58,20.21 3.44,39.52 -12,42.58" /><path
         id="path614"
         style="fill:#016f6b;fill-opacity:1;fill-rule:nonzero;stroke:none"
         d="m 1378.05,1388.81 c -12.84,2.54 -28.06,-8.19 -35.09,-23.58 -6.98,-15.28 -4.44,-31.79 6.7,-37.55 12.44,-6.43 30.79,2.73 39.61,21.4 8.93,18.87 3.21,36.89 -11.22,39.73" /><path
         id="path616"
         style="fill:#016c69;fill-opacity:1;fill-rule:nonzero;stroke:none"
         d="m 1378.37,1385.91 c -11.96,2.36 -26.07,-7.61 -32.61,-21.91 -6.49,-14.17 -4.11,-29.51 6.22,-34.85 11.56,-5.98 28.59,2.53 36.78,19.86 8.29,17.52 2.98,34.26 -10.39,36.9" /><path
         id="path618"
         style="fill:#006867;fill-opacity:1;fill-rule:nonzero;stroke:none"
         d="m 1378.65,1383.01 c -11.02,2.17 -24.05,-7.02 -30.08,-20.23 -6,-13.08 -3.78,-27.23 5.73,-32.16 10.69,-5.53 26.4,2.33 33.97,18.33 7.64,16.17 2.74,31.61 -9.62,34.06" /><path
         id="path620"
         style="fill:#008093;fill-opacity:1;fill-rule:nonzero;stroke:none"
         d="m 1305.23,1657.01 c 36.76,-23.23 35.09,-84.49 -8.35,-134.7 -43.9,-50.75 -105.9,-61.94 -134.68,-28.36 -25.66,29.93 -14.94,85.28 21.25,126.1 35.89,40.44 88.92,57.71 121.78,36.96" /><path
         id="path622"
         style="fill:#007d8d;fill-opacity:1;fill-rule:nonzero;stroke:none"
         d="m 1304.24,1649.81 c 34.49,-21.77 32.92,-79.21 -7.79,-126.28 -41.16,-47.58 -99.29,-58.06 -126.29,-26.58 -24.06,28.07 -14,79.95 19.94,118.21 33.63,37.93 83.35,54.11 114.14,34.65" /><path
         id="path624"
         style="fill:#007a88;fill-opacity:1;fill-rule:nonzero;stroke:none"
         d="m 1303.27,1642.62 c 32.19,-20.32 30.74,-73.93 -7.28,-117.85 -38.42,-44.42 -92.65,-54.21 -117.84,-24.82 -22.45,26.19 -13.06,74.61 18.59,110.34 31.39,35.38 77.78,50.49 106.53,32.33" /><path
         id="path626"
         style="fill:#007782;fill-opacity:1;fill-rule:nonzero;stroke:none"
         d="m 1302.32,1635.43 c 29.89,-18.88 28.52,-68.65 -6.77,-109.45 -35.67,-41.23 -86.04,-50.32 -109.43,-23.03 -20.86,24.32 -12.14,69.29 17.28,102.45 29.14,32.87 72.22,46.89 98.92,30.03" /><path
         id="path628"
         style="fill:#00747c;fill-opacity:1;fill-rule:nonzero;stroke:none"
         d="m 1301.35,1628.24 c 27.58,-17.43 26.33,-63.37 -6.23,-101.02 -32.96,-38.07 -79.42,-46.46 -101.03,-21.27 -19.25,22.45 -11.21,63.96 15.95,94.57 26.91,30.33 66.66,43.28 91.31,27.72" /><path
         id="path630"
         style="fill:#007177;fill-opacity:1;fill-rule:nonzero;stroke:none"
         d="m 1300.38,1621.05 c 25.28,-15.97 24.14,-58.1 -5.72,-92.61 -30.18,-34.89 -72.79,-42.59 -92.59,-19.5 -17.66,20.59 -10.27,58.63 14.61,86.69 24.66,27.82 61.12,39.68 83.7,25.42" /><path
         id="path632"
         style="fill:#006e71;fill-opacity:1;fill-rule:nonzero;stroke:none"
         d="m 1299.43,1613.85 c 22.98,-14.52 21.94,-52.8 -5.22,-84.18 -27.44,-31.72 -66.17,-38.72 -84.17,-17.73 -16.05,18.71 -9.33,53.3 13.28,78.81 22.42,25.28 55.56,36.07 76.11,23.1" /><path
         id="path634"
         style="fill:#006b6c;fill-opacity:1;fill-rule:nonzero;stroke:none"
         d="m 1298.46,1606.66 c 20.69,-13.07 19.75,-47.53 -4.69,-75.77 -24.7,-28.55 -59.57,-34.84 -75.76,-15.95 -14.44,16.84 -8.41,47.97 11.97,70.94 20.17,22.74 50,32.45 68.48,20.78" /><path
         id="path636"
         style="fill:#006867;fill-opacity:1;fill-rule:nonzero;stroke:none"
         d="m 1297.49,1599.47 c 18.39,-11.62 17.55,-42.25 -4.15,-67.35 -21.96,-25.38 -52.96,-30.97 -67.35,-14.18 -12.84,14.97 -7.47,42.64 10.63,63.05 17.93,20.22 44.43,28.85 60.87,18.48" /></g></g></svg>